<svg xmlns="http://www.w3.org/2000/svg">
<defs>
<font id="UTMCooperBlack" horiz-adv-x="1594" >
  <font-face 
    font-family="UTM Cooper Black"
    font-weight="400"
    font-stretch="normal"
    units-per-em="2048"
    panose-1="2 4 6 3 5 5 6 2 2 4"
    ascent="1638"
    descent="-410"
    x-height="989"
    cap-height="1386"
    bbox="-84 -687.996 4942 2350"
    underline-thickness="109"
    underline-position="-143"
    unicode-range="U+0020-U+2026"
  />
<missing-glyph horiz-adv-x="5040" 
d="M3351 2045h10c24.667 -6.66699 37 -24 37 -52c0 -8 -10.667 -27 -32 -57h-28c0 16 9.33301 34 28 54l2 10c-3.33301 8.66699 -6.66602 13.667 -10 15h-9c-5.33301 0 -8.66602 -6.33301 -10 -19h-30c4 32.667 18 49 42 49zM2019 2016l29.001 -31
c0 -10.667 -13.333 -20.667 -40 -30h-19l-59 12l-11 -12l-28 25c7.33301 19.333 21.666 29 42.999 29h11l42 -11h2c6.66699 0 16.667 6 30 18zM468.001 1980h142v-60h-94v-75h89v-59h-89v-129l-5 -5h-49v323zM1155 1980h43l6 -5v-78h30v-52h-30v-188l-6 -5h-49v193h-25v52
h25v78zM1621 1980h41.999l4 -5v-94h3c15.333 16 33.333 24 54 24h2c38.667 0 66.334 -23.667 83.001 -71l2 -39v-143h-52v115c0 53.333 -14 80 -42 80h-7c-28.667 0 -43 -28.667 -43 -86v-109h-51v323zM2200 1980l49 -0.000976562l5 -5v-222c6.66699 -34 21.667 -51 45 -51
c29.333 4.66699 44 24.334 44 59.001v214l5 5h49v-216c0 -56.667 -22 -94 -66 -112c-10 -5.33301 -21.667 -8 -35 -8c-31.333 0 -58.666 18.333 -82 55c-9.33301 16 -14 35 -14 57v224zM2435 1980h159v-60h-56v-268h-53v268h-55v55zM2621 1980l71 0.000976562
c4.66699 -2.66699 32.334 -86.334 83 -251.001h2l80 251h73v-328h-54v242h-2l-74 -242h-44c-2.66699 0 -22 60.667 -58 182l-19 60h-3v-242h-55v328zM3760 1980l52 -0.000976562v-328h-45l-5 5v11l3 2l-3 14c-19.333 -26.667 -45.333 -40 -78 -40
c-44.667 0 -78 30.333 -100 91l-5 39v3c0 62.667 30.667 104.334 92 125.001l23 3c23.333 0 44.333 -10.667 63 -32h3v107zM2057 1928l36 0.00195312l4 -6v-49h-45v-221h-48v23c-15.333 -20.667 -35 -31 -59 -31c-59.333 9.33301 -89 41.666 -89 96.999v156h51v-104

<glyph glyph-name=".notdef" horiz-adv-x="5040" 
d="M3351 2045h10c24.667 -6.66699 37 -24 37 -52c0 -8 -10.667 -27 -32 -57h-28c0 16 9.33301 34 28 54l2 10c-3.33301 8.66699 -6.66602 13.667 -10 15h-9c-5.33301 0 -8.66602 -6.33301 -10 -19h-30c4 32.667 18 49 42 49zM2019 2016l29.001 -31
c0 -10.667 -13.333 -20.667 -40 -30h-19l-59 12l-11 -12l-28 25c7.33301 19.333 21.666 29 42.999 29h11l42 -11h2c6.66699 0 16.667 6 30 18zM468.001 1980h142v-60h-94v-75h89v-59h-89v-129l-5 -5h-49v323zM1155 1980h43l6 -5v-78h30v-52h-30v-188l-6 -5h-49v193h-25v52
h25v78zM1621 1980h41.999l4 -5v-94h3c15.333 16 33.333 24 54 24h2c38.667 0 66.334 -23.667 83.001 -71l2 -39v-143h-52v115c0 53.333 -14 80 -42 80h-7c-28.667 0 -43 -28.667 -43 -86v-109h-51v323zM2200 1980l49 -0.000976562l5 -5v-222c6.66699 -34 21.667 -51 45 -51
c29.333 4.66699 44 24.334 44 59.001v214l5 5h49v-216c0 -56.667 -22 -94 -66 -112c-10 -5.33301 -21.667 -8 -35 -8c-31.333 0 -58.666 18.333 -82 55c-9.33301 16 -14 35 -14 57v224zM2435 1980h159v-60h-56v-268h-53v268h-55v55zM2621 1980l71 0.000976562
c4.66699 -2.66699 32.334 -86.334 83 -251.001h2l80 251h73v-328h-54v242h-2l-74 -242h-44c-2.66699 0 -22 60.667 -58 182l-19 60h-3v-242h-55v328zM3760 1980l52 -0.000976562v-328h-45l-5 5v11l3 2l-3 14c-19.333 -26.667 -45.333 -40 -78 -40
c-44.667 0 -78 30.333 -100 91l-5 39v3c0 62.667 30.667 104.334 92 125.001l23 3c23.333 0 44.333 -10.667 63 -32h3v107zM2057 1928l36 0.00195312l4 -6v-49h-45v-221h-48v23c-15.333 -20.667 -35 -31 -59 -31c-59.333 9.33301 -89 41.666 -89 96.999v156h51v-104
c0 -52.667 8.66699 -81.334 26 -86.001l18 -5h6c17.333 0 30.333 12 39 36l3 26v133h53v25zM3476 1928v-55h-31v-221h-47v25h-2c-10 -22 -29 -33 -57 -33c-45.333 0 -74 26 -86 78l-3 29v146h52v-120c0 -33.333 6.33301 -56 19 -68l21 -7h9c28 0 42 23 42 69v126h27
c2.66699 0 4 9.33301 4 28l3 3h49zM758 1905c45.333 0 79.667 -25.667 103 -77c6 -12 10 -30 12 -54c0 -58.667 -30 -101 -90 -127l-32 -3c-42 0 -75.667 24.333 -101 73c-8 14.667 -12 32 -12 52v10c0 62.667 33.667 104.667 101 126h19zM1011 1905h3
c49.333 0 77 -33.667 83 -101v-152h-51v119c0 50.667 -14 76 -42 76h-5c-29.333 0 -44 -25.333 -44 -76v-119h-52v245h46v-21c20 19.333 40.667 29 62 29zM1466 1905l7 -0.000976562c48 0 83 -29.667 105 -89h-60c-10.667 20.667 -24.667 31 -42 31h-17
c-35.333 -9.33301 -53 -29.666 -53 -60.999l-3 -15c8 -46 28.333 -69 61 -69h9c14.667 0 30.334 9 47.001 27h40l2 3h3l2 -3l2 3l3 -3l2 3l2 -7c-22 -54 -58.667 -81 -110 -81c-50.667 0 -87.334 31.333 -110.001 94l-4 36v3c0 56.667 25.667 96.667 77 120
c10 5.33301 22.333 8 37 8zM3141 1905h1.99902c32.667 0 56 -20 70 -60v-14h-52c0 10.667 -5.33301 16 -16 16h-4c-9.33301 0 -15.666 -4.33301 -18.999 -13v-13c0 -6 22.667 -17.667 68 -35c20 -12.667 30 -32.334 30 -59.001c0 -38.667 -20.333 -65.334 -61 -80.001
l-23 -3c-50.667 8 -76 35.667 -76 83h54c0 -13.333 9 -21.666 27 -24.999h4c12.667 0 20.667 7.66699 24 23c0 14.667 -22.667 29.334 -68 44.001c-22.667 18 -34 37.667 -34 59c0 44 24.667 69.667 74 77zM4203 1905c36.666 0 62.333 -21 77 -63
c4.66602 -12 7 -33.667 7 -65v-125h-52v112c0 55.333 -13.334 83 -40 83h-11c-22 0 -35.334 -18 -40 -54v-141h-52v5h-2l2 2v238h47v-21c16.666 19.333 38 29 64 29zM4432 1905h5c26.666 0 49.666 -13.333 69 -40v18l-3 3l3 11h47v-208c0 -64.667 -28.334 -108.667 -85 -132
l-33 -4h-7c-46.666 0 -81.333 26.667 -104 80h59c16 -14.667 31 -22.334 45 -23.001h13c14.666 0 29 7.33301 43 22c10 8.66699 17.334 26 22 52h-3c-21.334 -26.667 -45.667 -40 -73 -40c-38 0 -70 23.333 -96 70c-6.66602 12 -11.333 33 -14 63
c0 58.667 29 100.334 87 125.001zM3851 1897l53 -0.000976562v-136c4 -39.333 17.333 -59 40 -59h7c30.667 0 46 31 46 93v102h51v-245h-47l-3 10h3l-3 3v5l3 2v3h-4c0 -15.333 -19 -25.666 -57 -30.999h-3c-39.333 0 -67.333 25 -84 75l-2 85v93zM690 1771
c6.66699 -46 27.6689 -69 63.002 -69h7c39.333 9.33301 59 31 59 65v15c-8.66699 43.333 -28.334 65 -59.001 65h-5c-38.667 0 -60.334 -25.333 -65.001 -76zM3630 1774c8.66699 -48 29 -72 61 -72h5c38.667 0 60.667 25 66 75c0 32.667 -17 56 -51 70h-22
c-24.667 0 -43.334 -19 -56 -57zM4374 1774c5.33398 -48 27 -71.999 65 -71.999h5c39.334 8 59 32 59 72c0 40.667 -19.666 65 -59 73h-14c-37.334 -10.667 -56 -31.334 -56 -62.001v-11zM3928 1620h52v-57h-52v57zM1054 1402c28.667 -7.33301 43 -23.667 43 -49v-4
c0 -11.333 -10.667 -31.333 -32 -60h-28c0 16.667 10.333 35.667 31 57v7c0 8 -2.33301 13 -7 15h-12c-6.66699 -2.66699 -10 -9 -10 -19h-28v6c0 21.333 11 36 33 44zM3349 1339c61.333 0 107.333 -33.001 138 -99.001h-60c-24.667 28 -51.334 42 -80 42
c-36.667 0 -65.667 -22.667 -87 -68c-6.66699 -14.667 -10 -30.334 -10 -47.001c0 -52 27 -88.667 81 -110l18 -1c24 0 49 13 75 39h61c-29.333 -64.667 -75.333 -97 -138 -97c-62 0 -109 37.333 -141 112c-6.66699 20.667 -10 41.334 -10 62.001
c0 64.667 30 115.334 90 152.001c19.333 10 40.333 15 63 15zM3664 1339c38 0 72.333 -15.666 103 -46.999c30.667 -34 46 -72.333 46 -115v-20c0 -59.333 -30.333 -108 -91 -146c-22 -8.66699 -43 -13 -63 -13c-59.333 0 -105.333 33.667 -138 101
c-8.66699 22 -13 42 -13 60v18c0 65.333 32.667 115.666 98 150.999c19.333 7.33301 38.666 11 58 11zM2261 1337h2l47 -11h3c7.33301 0 16 3.66699 26 11l18 -36c-12 -12.667 -23.667 -19 -35 -19h-3l-54 10l-20 -7l-20 36c12 10.667 24 16 36 16zM716.002 1334h19
c78.667 0 121.667 -8.66699 129 -26c16.667 -17.333 25 -38 25 -62c-6.66699 -38 -16.667 -57 -30 -57v-6c31.333 -15.333 47 -37.333 47 -66v-18c0 -42 -23 -71.333 -69 -88l-54 -5h-67v328zM2550 1334h53v-217c4 -40.667 19 -61 45 -61c19.333 0 34 13 44 39l3 30v203l4 6
h45l5 -6v-171c0 -78.667 -13.333 -123 -40 -133c-16 -17.333 -37.333 -26 -64 -26c-36.667 0 -67 25.333 -91 76l-4 54v206zM2805 1334h59c2.66699 0 43.334 -79 122 -237h4v237h50l4 -6v-322h-58c-19.333 32 -61 111.333 -125 238h-3v-238h-53v328zM3101 1334h54v-328h-54
v328zM3859 1334l8 0.000976562c103.333 0 161.333 -13.333 174 -40c15.333 -7.33301 31 -32.333 47 -75l4 -36v-11l3 -2c0 -62.667 -27.333 -112.334 -82 -149.001c-23.333 -10 -56.333 -15 -99 -15h-55v328zM4141 1334h153v-60h-103v-75h101v-57h-101v-74l4 -5h99v-57h-157
v322zM3563 1175v-10c0 -50.667 26.333 -86.667 79 -108l19 -1c45.333 0 77.333 28.667 96 86l3 20v15c0 40.667 -20 72 -60 94c-8 5.33301 -21 9 -39 11c-44 0 -76 -27.667 -96 -83zM770.002 1274v-67h9c36 0 54 9.33301 54 28l3 14c-7.33301 16.667 -17 25 -29 25h-37z
M3912 1274v-206.001l2 -3v-2c69.333 0 110 25.333 122 76l2 15v29c0 22.667 -10.667 45.334 -32 68.001c-16.667 15.333 -42.667 23 -78 23h-16zM1041 1259h5c25.333 0 49 -13.333 71 -40v32h49v-245h-49v32c-24 -26.667 -50.667 -40 -80 -40c-50 0 -83.667 32.333 -101 97
l-5 36c0 59.333 28.333 101 85 125zM1314 1259h3c49.333 0 77 -34 83 -102v-151h-51v128c0 44.667 -14 67 -42 67h-10c-22.667 0 -35.667 -20.667 -39 -62v-133h-52v245h47v-21c18.667 19.333 39 29 61 29zM1543 1259h5c30 0 53.667 -13.333 71 -40v32h47v-219
c0 -63.333 -34.667 -105.333 -104 -126h-16c-49.333 0 -85.333 27.333 -108 82h59c17.333 -16.667 32 -25 44 -25h14c34.667 0 56 25.667 64 77c-22 -28 -47.333 -42 -76 -42c-40 0 -73.667 27 -101 81l-7 44v16c0 52.667 28.333 91.667 85 117zM1912 1259l2 0.000976562
c28.667 0 49 -12.333 61 -37h2c21.333 24.667 44.333 37 69 37h4c38 0 64.333 -18.333 79 -55c5.33301 -16.667 8 -31.667 8 -45v-153h-52v138c0 29.333 -7.66699 47.666 -23 54.999l-12 2h-15c-21.333 0 -33.333 -21.667 -36 -65v-130h-52v136c0 39.333 -14.333 59 -43 59
h-8c-21.333 0 -33.333 -19 -36 -57v-138h-54v245h50v-21h2c4 16 22 25.667 54 29zM2282 1259c31.333 0 56.333 -14 75 -42v34h47v-245h-47v32c-24 -26.667 -50 -40 -78 -40c-49.333 0 -83.333 30.667 -102 92l-6 41c0 60 28.333 101.667 85 125zM985.002 1117
c0 -32 20.333 -52.333 61 -61h4c30 0 50.667 15.333 62 46l3 15v22c-8 41.333 -27 62 -57 62h-14c-27.333 0 -47 -19 -59 -57v-27zM1487 1128c0 -32 14.332 -54.667 42.999 -68l18 -4h5c31.333 0 52.333 19 63 57v23c-7.33301 43.333 -26.666 65 -57.999 65h-12
c-33.333 0 -53 -24.333 -59 -73zM2225 1131v-14.001c10 -40.667 29 -61 57 -61h14c38.667 8 58 29.333 58 64v11c0 30 -12.333 51.667 -37 65l-18 5h-10c-42.667 -5.33301 -64 -28.666 -64 -69.999zM770.001 1150v-82c0 -3.33301 2.33301 -5 7 -5c51.333 0 77 15 77 45
c0 22.667 -15.667 36.667 -47 42h-37zM2966 752.999l24 -28l-51 -55c-12 8 -21 16.667 -27 26zM1524 726.999l85 -54c0 -10 -7 -24 -21 -42l-87 54c12 27.333 19.667 41.333 23 42zM2850 692.999h38l55 -60h-54l-21 26l-23 -26h-54c36 40 55.667 60 59 60zM3422 692.999h40
l56 -60h-54l-24 26h-1c0 -3.33301 -6.33301 -12 -19 -26h-54zM622.001 684.999l52 0.00195312c5.33301 -2.66699 21 -48.334 47 -137.001l34 -110c6 5.33301 17.333 38.666 34 99.999l48 147h54v-2l-112 -326h-44zM1159 685.001h51v-54h-51v54zM1354 685.001h46l6 -5v-323
h-52v328zM2317 685.001h45l4 -5v-78h31v-52h-31v-193h-53v193h-26v52h26v78zM2425 685.001h52v-98h2c15.333 15.333 33.333 23 54 23h3c38 0 65 -23.667 81 -71l3 -38v-144h-52v115c0 54 -13 81 -39 81h-10c-28 0 -42 -29 -42 -87v-109h-52v328zM2664 685.001h52v-54h-52v54
zM3028 685.001h44l6 -5v-78h29v-52h-29v-193h-54v193h-27v52h27v78zM3234 685.001h52v-328h-52v328zM3957 685.001h52v-328h-52v328zM4316 685.001h51v-54h-51v54zM1555 610.001h5c55.333 0 92 -34 110 -102l3 -23v-11c0 -55.333 -28.333 -95.333 -85 -120l-35 -5
c-50.667 0 -87.667 32.333 -111 97l-4 32c0 64.667 31 108 93 130zM1811 610.001h4c35.333 0 61.333 -20 78 -60c4.66699 -16.667 7 -43.667 7 -81v-112h-54v146c-4.66699 33.333 -17 50 -37 50h-10c-25.333 0 -39.333 -19 -42 -57v-139h-54v245h49v-21
c17.333 19.333 37 29 59 29zM2046 610.001h4.00098c30 0 51 -13 63 -39h3v31h49v-206c0 -68 -29.667 -113 -89 -135l-28 -3h-5c-48.667 0 -84 27 -106 81h52l37 -20l15 -3h14c33.333 0 53.666 24 60.999 72c-22 -26 -46.333 -39 -73 -39c-41.333 0 -74 25.333 -98 76
c-7.33301 15.333 -11.333 35.333 -12 60c0 56.667 28.667 97.667 86 123zM2866 610.001l2 -0.000976562c54.667 0 91.667 -34.667 111 -104l2 -25l-2 -27h-172c10 -30 25 -45 45 -45l14 -3c19.333 0 35.666 7.33301 49 22h57v-3c-23.333 -50.667 -59.333 -76 -108 -76
c-51.333 0 -88.333 32.333 -111 97l-1 28v8c0 32.667 10.667 62.334 32 89.001c22.667 26 50 39 82 39zM3429 610h5c27.333 0 50.666 -13 70 -39h2v31h47v-245h-47v31h-2c-23.333 -26 -49 -39 -77 -39c-47.333 0 -81 29.667 -101 89l-5 36v14c0 57.333 28 97.333 84 120z
M3711 610l7 -0.000976562c58.667 0 94.334 -42.667 107 -128l-2 -1v-15c0 -43.333 -22 -78.666 -66 -105.999c-14 -7.33301 -29.333 -11 -46 -11c-22.667 0 -44 10.667 -64 32v-99l-5 -5h-49v325h49v-28c20.667 24 43.667 36 69 36zM4151 609.999
c29.334 0 54.334 -13 75 -39v31h49v-245h-49v31c-23.334 -26 -49 -39 -77 -39c-61.333 0 -97.333 44 -108 132c0 56 24.333 96.333 73 121c10 5.33301 22.334 8 37 8zM922.002 601.999h50v-136c2 -40 16 -60 42 -60h5c29.333 0 44 29 44 87v109h52v-245h-47v24h-5
c0 -15.333 -18.667 -26 -56 -32h-3c-36.667 0 -64 22.667 -82 68c-2.66699 23.333 -4 56.333 -4 99v81zM1159 601.999h51v-245h-51v245zM2664 601.999h52v-245h-52v245zM4316 601.999h51v-245h-51v245zM1492 487.999v-15.999c8.66699 -44 28.334 -66 59.001 -66h4
c39.333 0 61.333 25.333 66 76c-8.66699 47.333 -28.334 71 -59.001 71h-11c-39.333 -10.667 -59 -32.334 -59 -65.001zM1987 472c10 -44 29.667 -66 59 -66h11c32 0 51.667 25 59 75v1c-8.66699 47.333 -28.334 71 -59 71h-14c-26 0 -44.667 -19 -56 -57v-24zM2805 506h122
v2c-10.667 30 -30.334 45 -59 45h-7c-23.333 0 -42 -15.667 -56 -47zM3373 474c8.66699 -45.333 29 -68 61 -68h5c34.667 0 56.334 21 65 63v12c-6.66699 48 -25.667 72 -57 72h-16c-37.333 -9.33301 -56 -30.333 -56 -63zM3642 478c8 -48 28.333 -72.001 61 -72.001h3
c33.333 0 55 20 65 60v22c0 28.667 -16.333 50.334 -49 65.001h-22c-31.333 0 -50.666 -24 -58 -72v-3zM4095 471.999c6.66602 -44 28.666 -66 66 -66c28.666 0 49 16 61 48l2 15v16c0 36 -17.334 58.667 -52 68h-18c-28 0 -47.666 -20 -59 -60v-21zM3416 320.999h51v-52
h-51v52zM4137 320.999h51v-52h-51v52zM2733 132.999h4c23.333 0 37.666 -16.667 43 -50v-2c0 -10.667 -8 -24.334 -24 -41.001l-10 -17h-28c0 16.667 9.33301 35.334 28 56.001l3 2v2c-2 12.667 -5 19 -9 19h-10c-5.33301 0 -8.33301 -6.33301 -9 -19h-30
c4 33.333 18 50 42 50zM1546 115.999l52 -60l-26 -19l-52 52zM352.002 78.999h4c50 -32 78.333 -52 85 -60l-20 -37c-58.667 32.667 -88 52 -88 58zM3490 78.999l86 -58l-18 -39c-6.66699 0 -37 18.333 -91 55c10 24 17.667 38 23 42zM4578 75.999l19 -42l-91 -52l-20 39
l92 58v-3zM1204 52.999h51v-19l5 -5h14v-36h-14l-5 -5v-279h-46v31c-22.667 -26.667 -49.667 -40 -81 -40c-48 0 -82 35 -102 105l-3 26c0 68 33.667 111.667 101 131h14c22 0 44 -11 66 -33v59l-6 5h-43v36h49v24zM1480 44.999h40l56 -61h-53l-23 27l-23 -27h-53z
M2641 44.999h33c8 0 29 -20.333 63 -61h-54l-23 27c-12.667 -14 -19 -23 -19 -27h-58v4zM49.002 36.999h160v-60h-56v-268h-50l-4 5v245l2 3v2l-2 2l2 3l-2 2l2 3l-2 3h-54v54zM699.002 36.999h47v-73l2 -2l-2 -3v-3l2 -2l-2 -3v-3l2 -2v-2l-2 -3l2 -3h3
c11.333 16 28.333 24 51 24h3c35.333 0 61 -19.333 77 -58c4.66699 -11.333 7 -25.333 7 -42v-153h-52v127c0 45.333 -13.333 68 -40 68h-8c-28.667 0 -43 -28.667 -43 -86v-109h-52v322zM1297 36.999h47l5 -6v-49h-52v55zM1987 36.999h52v-198l70 115h62l-78 -118l90 -125
v-2h-70c-6.66699 14.667 -31.334 53 -74 115v-115h-52v328zM2271 36.999v-98.999c16 16 33.667 24 53 24c38 0 64.667 -18.667 80 -56c6.66699 -12.667 10 -38.334 10 -77.001v-120h-54v133c0 41.333 -13.667 62 -41 62h-11c-20.667 0 -33 -18.333 -37 -55v-140h-53v314
l-1 3v3l1 2l-1 3l1 3h53zM2458 37h51v-55h-51v55zM3148 37h51v-108c18 22 40.667 33 68 33h3c50 0 85 -31.333 105 -94l5 -37c0 -50 -21.333 -90 -64 -120c-20 -7.33301 -36.333 -11 -49 -11c-27.333 0 -51.333 13.333 -72 40v-31h-47v328zM4275 37h52v-99h2
c15.334 16 33.334 24 54 24h3c40 0 67.334 -24.667 82 -74l2 -41v-138h-52v111c0 54.667 -10.666 82 -32 82l-10 2h-12c-24.666 0 -37 -26.667 -37 -80v-115h-52v328zM329.002 -38h3v-58h-5c-28 0 -42 -19 -42 -57v-138h-53v245h47v-21c12 19.333 28.667 29 50 29z
M564.002 -38c47.333 0 75.999 -29 85.999 -87v-166h-51v136c-4 39.333 -17.667 59 -41 59h-6c-30 0 -45 -28 -45 -84v-111h-52v245h50v-21c16.667 19.333 36.334 29 59.001 29zM1504 -38c48 0 83 -31.333 105 -94l5 -39c-1.33301 -16 -3.66602 -24 -6.99902 -24h-169
c11.333 -31.333 32 -47 62 -47c16 0 32 7 48 21h57c-22 -52.667 -58 -79 -108 -79c-54.667 0 -92.334 35 -113.001 105v37c0 54 29.667 93 89 117zM2657 -38h5c51.333 0 87 -32.333 107 -97l3 -26v-21l-3 -13h-170c12 -31.333 29.667 -47 53 -47h12c14 0 28 7 42 21h59
c-22.667 -52.667 -57.667 -79 -105 -79c-56 0 -94.333 34 -115 102l-2 29c0 62 30.333 104.667 91 128zM2915 -38h3.99902c36 0 62 -20 78 -60c4.66699 -16.667 7 -44 7 -82v-111h-54v138c0 32 -11.667 51 -35 57h-11c-25.333 0 -39.666 -19 -42.999 -57v-138h-54v245h50
v-21c16.667 19.333 36 29 58 29zM3508 -38h6c26.667 0 50 -13.333 70 -40h2v32h47v-245h-47v31h-2c-22.667 -26.667 -48.667 -40 -78 -40c-47.333 0 -81 30 -101 90l-4 37v12c0 54.667 25.667 93.667 77 117c7.33301 4 17.333 6 30 6zM3781 -38h4
c41.333 0 68.666 -26 82 -78l3 -84v-91h-54v138c0 32 -12.667 51 -38 57h-9c-25.333 0 -39.333 -17.333 -42 -52v-143h-54v245h49v-21c17.333 19.333 37 29 59 29zM4133 -38h1c49.334 0 84 -31 104 -93l4 -40c0 -58.667 -28 -100.667 -84 -126l-25 -3
c-27.333 0 -50 11.333 -68 34v-106h-52v326h47v-29c20 24.667 44.334 37 73 37zM4714 -38h5c22.666 0 43.666 -12.333 63 -37c18 24.667 41 37 69 37h6c37.334 0 63.667 -22 79 -66l6 -51v-136h-52v122c0 48.667 -13 73 -39 73h-7c-23.334 0 -37 -16.667 -41 -50v-140l-5 -5
h-48v140c0 28 -10.334 46.333 -31 55h-17c-26.666 0 -40 -25.667 -40 -77v-118h-51v245h47v-21c14.666 19.333 33.333 29 56 29zM359 -46h49l5 -6v-234l-5 -5h-49v245zM1297 -46h52v-245h-52v245zM1649 -46h52v-136c2.66699 -40 17 -60 43 -60h4c29.333 0 44 27 44 81v115
h52v-245h-47v24h-5c-8 -22 -27.667 -33 -59 -33c-34.667 0 -61 21 -79 63c-3.33301 8 -5 19.333 -5 34v157zM2458 -46h51v-245h-51v245zM4515 -46h51v-245h-51v245zM1077 -169c0 -35.333 16.999 -59.666 50.999 -72.999h12c36 0 58 22 66 66v10
c0 35.333 -18 58.666 -54 69.999h-17c-25.333 0 -44.666 -19 -57.999 -57v-16zM1438 -143h122.001c-12 31.333 -29.667 47 -53 47h-7c-28.667 0 -49.334 -14.667 -62.001 -44v-3zM2599 -143h122c-14 31.333 -32 47 -54 47h-7c-30.667 0 -51 -15.667 -61 -47zM3196 -158v-11
c6.66699 -48.667 27 -73 61 -73h5c42.667 5.33301 64 29 64 71v5c0 30 -12.667 51.667 -38 65l-18 5h-14c-40 -9.33301 -60 -30 -60 -62zM3452 -173c9.33301 -46 30 -69 62 -69h11c27.333 0 47 20 59 60v13c-5.33301 48.667 -24 73 -56 73h-17
c-31.333 0 -51 -24.333 -59 -73v-4zM4062 -158v-22c0 -31.333 19.667 -52 59 -62h9c33.334 0 53.667 25.333 61 76c-8.66602 46.667 -28 70 -58 70h-15c-37.333 -11.333 -56 -32 -56 -62z" />
    <glyph glyph-name="space" unicode=" " horiz-adv-x="645" 
 />
    <glyph glyph-name="exclam" unicode="!" horiz-adv-x="631" 
d="M321 406c58 0 107.667 -21.668 149 -65.001c41.333 -42.667 62 -92.667 62 -150c0 -59.333 -21.333 -110.5 -64 -153.5s-93.667 -64.5 -153 -64.5c-58 0 -107.667 19.667 -149 59c-44.667 42.667 -67 95.334 -67 158.001c0 58 19.667 107 59 147c44 46 98.333 69 163 69z
M316 1351c59.333 0 109.668 -21.334 151.001 -64.001c55.333 -56 83 -135.333 83 -238c0 -68 -11.833 -141.167 -35.5 -219.5s-55.167 -148.166 -94.5 -209.499c-44.667 -69.333 -80.667 -104 -108 -104c-26.667 0 -64.334 44.333 -113.001 133
c-36 65.333 -64.5 135.333 -85.5 210s-31.5 143 -31.5 205c0 76 17 139.667 51 191c42 64 103 96 183 96z" />
    <glyph glyph-name="quotedbl" unicode="&#x22;" horiz-adv-x="885" 
d="M233 1385c49.333 0 89.334 -21.001 120.001 -63.001s46 -96.333 46 -163c0 -51.333 -8.33301 -106.166 -25 -164.499s-39 -110.5 -67 -156.5c-31.333 -52 -56.666 -78 -75.999 -78c-18.667 0 -45.334 33 -80.001 99c-55.333 106 -83 210 -83 312
c0 64 15.167 115.667 45.5 155s70.166 59 119.499 59zM651.001 1385c49.333 0 89.333 -21.001 120 -63.001s46 -96.333 46 -163c0 -51.333 -8.33301 -106.166 -25 -164.499s-39 -110.5 -67 -156.5c-31.333 -52 -56.666 -78 -75.999 -78s-46 33 -80 99
c-55.333 106.667 -83 210.667 -83 312c0 64 15.167 115.667 45.5 155s70.166 59 119.499 59z" />
    <glyph glyph-name="numbersign" unicode="#" horiz-adv-x="1229" 
d="M264 239l6.99316 44.002c2.66699 25.333 4 38.333 4 39c0 21.333 -16.667 32 -50 32c-8 0 -32.667 -1.66699 -74 -5c-8 -0.666992 -15.333 -1 -22 -1c-28 0 -42 10.333 -42 31c0 8.66699 10 32.5 30 71.5s36.667 67.167 50 84.5c20.667 27.333 45.334 41 74.001 41
c8 0 17 -0.666992 27 -2c7.33301 -0.666992 13.666 -1 18.999 -1c16 0 26 12.667 30 38l7 57c0.666992 4.66699 1 9.33398 1 14.001c-0.666992 18 -11 27 -31 27c-10.667 0 -42 -1.66699 -94 -5c-10 -0.666992 -17.333 -1 -22 -1c-28 0 -42 10.333 -42 31
c0 9.33301 9.66699 32.833 29 70.5s36.333 66.167 51 85.5c20.667 27.333 45.667 41 75 41c8 0 17 -0.666992 27 -2c8 -1.33301 14.333 -2 19 -2c16 0 25.667 13 29 39l6 38c4 32 6.33301 78 7 138c0.666992 30 10 51.333 28 64c19.333 12.667 51.166 27 95.499 43
s75.5 24 93.5 24c22.667 0 34 -10 34 -30c0 -7.33301 -2 -19 -6 -35c-3.33301 -11.333 -8.66602 -43 -15.999 -95l-20 -146c-2 -12.667 -3 -19.667 -3 -21c-1.33301 -17.333 13.334 -26 44.001 -26h52c20 0 33.333 2.83301 40 8.5s11.334 18.5 14.001 38.5l5 37
c5.33301 36.667 8 82 8 136c0 30.667 9.33301 52.667 28 66c19.333 13.333 51.166 27.833 95.499 43.5s75.833 23.5 94.5 23.5c8.66699 0 16.334 -3 23.001 -9s10 -13 10 -21c0 -7.33301 -2.33301 -19 -7 -35c-2.66699 -11.333 -7.66699 -43 -15 -95l-20 -146
c-2 -12 -3 -20 -3 -24c0 -15.333 11.667 -23 35 -23c48 0 78.667 0.666992 92 2c14 2 23.333 3 28 3c21.333 0 32 -11 32 -33c0 -13.333 -16.667 -52.333 -50 -117c-27.333 -52 -56 -78 -86 -78c-10.667 0 -25.334 1.66699 -44.001 5c-8.66699 1.33301 -15 2 -19 2
c-15.333 0 -24.666 -12.667 -27.999 -38l-6 -47c-2 -12.667 -3 -21 -3 -25c0 -20.667 18.667 -31 56 -31c26 0 49.667 1.33301 71 4c12 2 21 3 27 3c22 0 33 -9.66699 33 -29c0 -12 -8.33301 -36 -25 -72s-32.667 -64.667 -48 -86c-20 -27.333 -40.667 -41 -62 -41
c-13.333 0 -28.333 1.66699 -45 5c-8.66699 1.33301 -15 2 -19 2c-15.333 0 -24.666 -12 -27.999 -36c-10 -62 -15.667 -124 -17 -186c-1.33301 -38 -11.333 -64.333 -30 -79c-15.333 -12.667 -47.166 -28.334 -95.499 -47.001s-80.166 -28 -95.499 -28
c-21.333 0 -32 12 -32 36c0 6 1.66699 16.667 5 32c11.333 56.667 22.333 122.667 33 198l8 58c1.33301 8 2 15.333 2 22c0 23.333 -14 35 -42 35h-59c-28 0 -43.333 -13.667 -46 -41l-3 -22c-8 -56 -12.667 -110.667 -14 -164c-1.33301 -38 -11.333 -64.333 -30 -79
c-15.333 -12.667 -47.166 -28.334 -95.499 -47.001s-80.166 -28 -95.499 -28c-21.333 0 -32 12.333 -32 37c0 5.33301 1.66699 15.666 5 30.999c11.333 57.333 22.333 123.333 33 198zM571.993 565.002h65.999c17.333 0 28.833 2.33301 34.5 7s9.83398 16 12.501 34l7 56
c2 12 3 19.667 3 23c0 16 -12.333 24 -37 24h-66c-17.333 0 -28.833 -2.33301 -34.5 -7s-9.5 -16 -11.5 -34l-8 -56c-1.33301 -8 -2 -15.333 -2 -22c0 -16.667 12 -25 36 -25z" />
    <glyph glyph-name="dollar" unicode="$" horiz-adv-x="1229" 
d="M486 1214l0.000976562 46.9961c0 26.667 4.33301 44.334 13 53.001s26.334 13 53.001 13h84c26 0 43.333 -4.33301 52 -13s13 -26.334 13 -53.001v-48c0 -21.333 3 -34.166 9 -38.499s28 -9.83301 66 -16.5c9.33301 -2 28 -7.33301 56 -16c12 -3.33301 21.333 -5 28 -5
s15.667 2 27 6c28 10 48 15 60 15c35.333 0 75 -29.667 119 -89c46.667 -62.667 70 -123.667 70 -183c0 -34.667 -9.66699 -62.667 -29 -84s-44.333 -32 -75 -32c-22.667 0 -41.167 4.83301 -55.5 14.5s-52.166 42.5 -113.499 98.5c-60 55.333 -125 83 -195 83
c-30 0 -54.5 -8.16699 -73.5 -24.5s-28.5 -37.5 -28.5 -63.5c0 -36 20 -64.667 60 -86c15.333 -8.66699 76.666 -29 183.999 -61c107.333 -32.667 188.666 -73.667 243.999 -123c70.667 -64 106 -147.333 106 -250c0 -104.667 -37.667 -192.334 -113 -263.001
c-42 -40 -91 -73.333 -147 -100s-108.667 -42 -158 -46c-18 -1.33301 -29.333 -4.66602 -34 -9.99902s-7 -17.666 -7 -36.999v-46c0 -26.667 -4.33301 -44.334 -13 -53.001s-26 -13 -52 -13h-84c-26.667 0 -44.334 4.33301 -53.001 13s-13 26.334 -13 53.001v46
c0 18 -1.83301 29.833 -5.5 35.5s-11.5 9.16699 -23.5 10.5c-58 7.33301 -115.5 19.833 -172.5 37.5s-95.5 34.834 -115.5 51.501c-25.333 20.667 -48.5 62 -69.5 124s-31.5 119.667 -31.5 173c0 28 6.5 50.167 19.5 66.5s30.167 24.5 51.5 24.5
c25.333 0 51.333 -15.333 78 -46c7.33301 -8.66699 30 -42.334 68 -101.001c25.333 -39.333 60.833 -70.166 106.5 -92.499s95.5 -33.5 149.5 -33.5c43.333 0 78.833 8 106.5 24s41.5 36.667 41.5 62c0 30.667 -19 56.667 -57 78
c-12.667 6.66699 -69.667 28.334 -171 65.001c-242 86 -363 220 -363 402c0 102 41.667 191.333 125 268c64.667 60 137.667 98 219 114c21.333 4 34 8.33301 38 13s6 16.667 6 36z" />
    <glyph glyph-name="percent" unicode="%" horiz-adv-x="1660" 
d="M455 1386c84 0 159.999 -26.668 227.999 -80.001c88.667 -69.333 133 -153.666 133 -252.999c0 -49.333 -12.167 -97.333 -36.5 -144s-57.833 -87 -100.5 -121c-81.333 -64 -177 -96 -287 -96c-111.333 0 -201.666 32.667 -270.999 98c-62.667 59.333 -94 135 -94 227
c0 107.333 38.333 194 115 260c38 33.333 85.167 59.833 141.5 79.5s113.5 29.5 171.5 29.5zM385.999 1231c-17.333 0 -31.6689 -6.83301 -43.002 -20.5s-17 -31.5 -17 -53.5c0 -66 14 -134.333 42 -205c12.667 -32.667 24.834 -55.167 36.501 -67.5
s26.834 -18.5 45.501 -18.5c37.333 0 56 25.667 56 77c0 76.667 -15 149.667 -45 219c-18.667 44.667 -43.667 67.667 -75 69zM1271 684.999c84 0 159.999 -26.668 227.999 -80.001c88.667 -69.333 133 -153.666 133 -252.999c0 -49.333 -12.167 -97.333 -36.5 -144
s-57.833 -87 -100.5 -121c-81.333 -64 -177 -96 -287 -96c-111.333 0 -201.666 32.667 -270.999 98c-62.667 59.333 -94 135 -94 227c0 107.333 38.333 194 115 260c38 33.333 85.333 59.833 142 79.5s113.667 29.5 171 29.5zM1202 529.998
c-18 0 -32.5029 -6.83301 -43.5029 -20.5s-16.5 -31.5 -16.5 -53.5c0 -66.667 14 -135 42 -205c12.667 -32.667 24.834 -55.167 36.501 -67.5s26.834 -18.5 45.501 -18.5c37.333 0 56 25.667 56 77c0 76.667 -14.667 149.667 -44 219
c-19.333 44.667 -44.666 67.667 -75.999 69zM629.992 497.998l303.999 511.999c80.667 140.667 135 239.667 163 297c16.667 34 32.834 56.833 48.501 68.5s38.167 17.5 67.5 17.5c63.333 0 95 -15.667 95 -47c0 -22 -26 -71.333 -78 -148
c-38.667 -56.667 -93.667 -144.667 -165 -264l-309 -523l-179 -326c-18 -37.333 -34 -62.333 -48 -75s-32.333 -19 -55 -19c-34 0 -61.833 5 -83.5 15s-32.5 22.667 -32.5 38c0 12.667 7 29.334 21 50.001l166 259z" />
    <glyph glyph-name="ampersand" unicode="&#x26;" horiz-adv-x="1780" 
d="M660 1419c92.667 0 172.33 -18.5029 238.997 -55.5029s100 -81.167 100 -132.5c0 -29.333 -11.5 -55.666 -34.5 -78.999s-48.833 -35 -77.5 -35c-12.667 0 -23.167 2 -31.5 6s-30.5 18.333 -66.5 43c-31.333 21.333 -64 32 -98 32s-62.167 -12.667 -84.5 -38
s-33.5 -57 -33.5 -95c0 -52 20 -88.667 60 -110c10.667 -5.33301 41 -11.333 91 -18c40.667 -4.66699 61 -32.334 61 -83.001c0 -54.667 -22.333 -95 -67 -121c-20 -11.333 -57 -20.666 -111 -27.999c-31.333 -4.66699 -47 -35 -47 -91c0 -66.667 21 -135 63 -205
c38.667 -63.333 88.667 -112.666 150 -147.999c56 -32.667 113.667 -49 173 -49c80.667 0 151.667 24 213 72c55.333 43.333 83 98 83 164c0 32 -12.5 59.5 -37.5 82.5s-55.167 34.5 -90.5 34.5c-54.667 0 -102 -34 -142 -102c-17.333 -29.333 -35.333 -44 -54 -44
c-24 0 -44.667 14.167 -62 42.5s-26 61.5 -26 99.5c0 81.333 28.833 154 86.5 218s141.167 116 250.5 156c88 32.667 142 58.334 162 77.001c23.333 21.333 35 44 35 68c0 13.333 -4.66699 25 -14 35s-20.333 15 -33 15c-5.33301 0 -17.333 -3.66699 -36 -11
c-4 -1.33301 -8.66699 -2 -14 -2c-11.333 0 -21.166 4.16699 -29.499 12.5s-12.5 18.5 -12.5 30.5c0 28.667 13.667 55.667 41 81c24.667 23.333 57 42 97 56s80.333 21 121 21c74 0 138.667 -19 194 -57c31.333 -21.333 56 -49.833 74 -85.5s27 -73.167 27 -112.5
c0 -58 -19.333 -114 -58 -168s-92 -99 -160 -135c-48.667 -26.667 -73 -49.667 -73 -69c0 -14 16.333 -31 49 -51c30 -18.667 53.833 -44.167 71.5 -76.5s26.5 -67.166 26.5 -104.499c0 -62.667 -24 -126.667 -72 -192c-71.333 -98 -179.666 -173.667 -324.999 -227
c-120.667 -44.667 -256.667 -67 -408 -67c-199.333 0 -369.666 37 -510.999 111c-102 52.667 -181 129.667 -237 231c-36.667 66 -55 136.333 -55 211c0 80.667 26.333 149.667 79 207c31.333 34.667 64.333 60.667 99 78c24.667 12.667 37 25 37 37
c0 6 -3.33301 14.667 -10 26c-40.667 70 -61 129.333 -61 178c0 49.333 14.167 98.166 42.5 146.499s66.5 88.833 114.5 121.5c44.667 30 97 54 157 72s118.333 27 175 27z" />
    <glyph glyph-name="quotesingle" unicode="'" horiz-adv-x="467" 
d="M233 1385c49.333 0 89.334 -21.001 120.001 -63.001s46 -96.333 46 -163c0 -51.333 -8.33301 -106.166 -25 -164.499s-39 -110.5 -67 -156.5c-31.333 -52 -56.666 -78 -75.999 -78c-18.667 0 -45.334 33 -80.001 99c-55.333 106 -83 210 -83 312
c0 64 15.167 115.667 45.5 155s70.166 59 119.499 59z" />
    <glyph glyph-name="parenleft" unicode="(" horiz-adv-x="1021" 
d="M772 1387c90 0 155.998 -13 197.998 -39c20 -12.667 30 -34 30 -64c0 -31.333 -5.83301 -56 -17.5 -74s-27.5 -27 -47.5 -27c-11.333 0 -24.666 1 -39.999 3c-43.333 6.66699 -70.666 10 -81.999 10c-84 0 -145.333 -61.333 -184 -184
c-46 -145.333 -69 -310.666 -69 -495.999c0 -132.667 10.5 -253.834 31.5 -363.501s49.833 -196.5 86.5 -260.5c37.333 -62.667 88.666 -94 153.999 -94c17.333 0 36 1 56 3c22.667 2 36.334 3 41.001 3c48 0 72 -31.333 72 -94c0 -32 -13.333 -55 -40 -69
c-39.333 -20 -92.666 -30 -159.999 -30c-179.333 0 -329.333 76 -450 228c-142.667 179.333 -214 406.666 -214 681.999c0 198.667 35.333 370.334 106 515.001c113.333 233.333 289.666 350.333 528.999 351z" />
    <glyph glyph-name="parenright" unicode=")" horiz-adv-x="1021" 
d="M86 -187c9.33301 0.666992 22.6689 -0.333984 40.002 -3.00098c40 -6 67.333 -9 82 -9c84 0 145.333 61.333 184 184c46 145.333 69 310.666 69 495.999c0 132.667 -10.5 253.834 -31.5 363.501s-50.167 196.5 -87.5 260.5c-36.667 62.667 -87.667 94 -153 94
c-17.333 0 -36 -1 -56 -3c-22.667 -2 -36.334 -3 -41.001 -3c-48 0 -72 31.333 -72 94c0 32 13.333 55 40 69c39.333 20 92.666 30 159.999 30c178.667 0 328.667 -76 450 -228c142.667 -179.333 214 -406.666 214 -681.999c0 -286 -71.667 -513 -215 -681
c-104.667 -123.333 -244.667 -185 -420 -185c-90 0 -156 13 -198 39c-20 12 -30 33.333 -30 64c0 64.667 21.667 98 65 100z" />
    <glyph glyph-name="asterisk" unicode="*" horiz-adv-x="1229" 
d="M342 1163l129.001 -47.9941c11.333 -4 19 -6 23 -6c8.66699 0 14 9.33301 16 28l1 6l-6 138v11c0 41.333 6.16699 67.166 18.5 77.499s42.5 15.5 90.5 15.5c41.333 0 68.833 -3.16699 82.5 -9.5s21.834 -19.5 24.501 -39.5c2.66699 -18 3.66699 -36.333 3 -55l-5 -138
c0 -22.667 5.66699 -34 17 -34c4 0 11.333 2 22 6l129 48c29.333 10.667 51.333 16 66 16c14 0 25 -4.33301 33 -13s16.667 -25.334 26 -50.001c16 -43.333 24.667 -77 26 -101c1.33301 -24.667 -26.334 -44.667 -83.001 -60l-133 -38c-18.667 -5.33301 -28 -13 -28 -23
c0 -4 4.33301 -11.667 13 -23l86 -108c25.333 -32.667 38 -57.334 38 -74.001c0 -18.667 -22 -43.667 -66 -75c-38.667 -27.333 -65.334 -41 -80.001 -41c-18.667 0 -42 20.333 -70 61l-76 115c-9.33301 13.333 -17.666 20 -24.999 20c-6.66699 0 -14.667 -6.66699 -24 -20
l-76 -115c-27.333 -40.667 -50.666 -61 -69.999 -61c-14.667 0 -41.334 13.667 -80.001 41c-44 30.667 -66 55.667 -66 75c0 16 13 40.667 39 74l85 108c8.66699 11.333 13 19.333 13 24c0 9.33301 -9.33301 16.666 -28 21.999l-132 38
c-55.333 15.333 -83 34.666 -83 57.999c0 25.333 10 63.666 30 114.999c13.333 33.333 31.666 50 54.999 50c15.333 0 37 -5 65 -15z" />
    <glyph glyph-name="plus" unicode="+" horiz-adv-x="1229" 
d="M439 469l-49.001 -0.00390625c-80 0 -146.333 -2 -199 -6c-8 -0.666992 -15.333 -1 -22 -1c-12.667 0 -23.5 3.83301 -32.5 11.5s-13.5 16.834 -13.5 27.501c0 11.333 7.16699 37.5 21.5 78.5s26.5 70.5 36.5 88.5c17.333 30.667 39.333 46 66 46c8 0 18 -0.666992 30 -2
c70.667 -6.66699 116.334 -9.66699 137.001 -9h25h2c36 0 53.667 18 53 54v65c-0.666992 41.333 -4.66699 87.333 -12 138c-1.33301 6.66699 -2 13.667 -2 21c0 24 20.667 45.333 62 64c25.333 10.667 54.666 20.834 87.999 30.501s57 14.5 71 14.5c27.333 0 41 -13 41 -39
c0 -3.33301 -1 -11.666 -3 -24.999c-1.33301 -10 -2 -41.667 -2 -95v-174c0.666992 -35.333 19 -53.333 55 -54h155c52.667 0 84 0.666992 94 2c14 2 22.667 3 26 3c26 0 39 -13.333 39 -40c0 -14.667 -5.66699 -40.5 -17 -77.5s-23 -66.5 -35 -88.5
c-16 -31.333 -35 -47 -57 -47l-159 14h-46c-39.333 2.66699 -57.666 -15.666 -54.999 -54.999v-16c0 -44.667 3.33301 -99.334 10 -164.001c1.33301 -12 2 -22 2 -30c0 -29.333 -20.333 -53.666 -61 -72.999c-22 -10 -51.833 -21 -89.5 -33s-61.167 -18 -70.5 -18
c-12 0 -21.833 4.5 -29.5 13.5s-11.5 20.167 -11.5 33.5c0 6 0.333008 13 1 21c4 52.667 6 119 6 199v67c2 38.667 -16.333 57 -55 55z" />
    <glyph glyph-name="comma" unicode="," horiz-adv-x="614" 
d="M291 458c32.667 0 64.999 -7.83398 96.999 -23.501s58.667 -36.834 80 -63.501c50.667 -63.333 76 -143.333 76 -240c0 -53.333 -9.83301 -113.166 -29.5 -179.499s-45.5 -126.5 -77.5 -180.5c-52.667 -88 -107.667 -132 -165 -132c-25.333 0 -48.166 7.66699 -68.499 23
s-30.5 33 -30.5 53c0 10.667 12.667 36.334 38 77.001c15.333 24 28.833 51 40.5 81s17.5 52.667 17.5 68c0 24 -11.333 40.333 -34 49c-44.667 16.667 -76.334 33 -95.001 49c-56 48 -84 109.667 -84 185c0 60 19.667 111.333 59 154c48.667 53.333 107.334 80 176.001 80z
" />
    <glyph glyph-name="hyphen" unicode="-" horiz-adv-x="582" 
d="M174 714c16.667 0 34.332 -0.999023 52.999 -2.99902c80.667 -8.66699 142.334 -13 185.001 -13c43.333 0 74.666 1.66699 93.999 5c22.667 3.33301 37.667 5 45 5c20.667 0 31 -15.333 31 -46c0 -28.667 -6.33301 -65.334 -19 -110.001s-29 -87.334 -49 -128.001
c-16 -31.333 -29.5 -52.666 -40.5 -63.999s-23.833 -17 -38.5 -17c-12.667 0 -29 1.66699 -49 5c-59.333 10 -127.666 15 -204.999 15c-32.667 0 -62.667 -1.33301 -90 -4c-22 -2 -38.667 -3 -50 -3c-27.333 0 -41 16 -41 48c-0 21.333 7.83301 57.333 23.5 108
s30.834 89.667 45.501 117c18 32 34.167 54 48.5 66s33.166 18.333 56.499 19z" />
    <glyph glyph-name="hyphen" unicode="&#x2010;" horiz-adv-x="582" 
d="M174 714c16.667 0 34.332 -0.999023 52.999 -2.99902c80.667 -8.66699 142.334 -13 185.001 -13c43.333 0 74.666 1.66699 93.999 5c22.667 3.33301 37.667 5 45 5c20.667 0 31 -15.333 31 -46c0 -28.667 -6.33301 -65.334 -19 -110.001s-29 -87.334 -49 -128.001
c-16 -31.333 -29.5 -52.666 -40.5 -63.999s-23.833 -17 -38.5 -17c-12.667 0 -29 1.66699 -49 5c-59.333 10 -127.666 15 -204.999 15c-32.667 0 -62.667 -1.33301 -90 -4c-22 -2 -38.667 -3 -50 -3c-27.333 0 -41 16 -41 48c-0 21.333 7.83301 57.333 23.5 108
s30.834 89.667 45.501 117c18 32 34.167 54 48.5 66s33.166 18.333 56.499 19z" />
    <glyph glyph-name="period" unicode="." horiz-adv-x="614" 
d="M308 445c63.333 0 118.333 -21.999 165 -65.999c47.333 -44.667 71 -102.334 71 -173.001c0 -66 -23.667 -121.667 -71 -167c-46.667 -44 -101.667 -66 -165 -66s-118.333 22 -165 66c-47.333 45.333 -71 102 -71 170c0 69.333 23.667 126 71 170
c46.667 43.333 101.667 65.333 165 66z" />
    <glyph glyph-name="slash" unicode="/" horiz-adv-x="966" 
d="M114 125l361 823l27 69l19 47l46 112c20.667 49.333 36.334 88.666 47.001 117.999c12.667 36.667 26.167 61.167 40.5 73.5s36.166 18.5 65.499 18.5c110.667 0 166 -26.333 166 -79c0 -22.667 -8.33301 -49.667 -25 -81c-77.333 -150 -135 -269.333 -173 -358
l-360 -820c-50 -112.667 -83 -191 -99 -235c-34 -90 -57.667 -144.333 -71 -163c-19.333 -26 -47.333 -39 -84 -39c-44 0 -81.333 8.33301 -112 25s-46 36.667 -46 60c0 15.333 2.83301 29.833 8.5 43.5s26.167 54.5 61.5 122.5c57.333 110.667 100 198.334 128 263.001z
" />
    <glyph glyph-name="zero" unicode="0" horiz-adv-x="1229" 
d="M593 1154c91.333 0 179.333 -22.333 264 -67c114.667 -60 200.334 -149.333 257.001 -268c42 -86.667 63 -179 63 -277c0 -178.667 -68.333 -325 -205 -439c-104.667 -86.667 -224 -130 -358 -130c-148 0 -274 48.333 -378 145c-123.333 114 -185 266.333 -185 457
c0 186 56.333 332 169 438c99.333 94 223.666 141 372.999 141zM570 856c-62 0 -93.001 -52.667 -93.001 -158c0 -138 26.333 -262 79 -372c20.667 -42.667 48.334 -64 83.001 -64c60.667 0 91 53.667 91 161c0 60 -6.5 124.167 -19.5 192.5s-29.5 123.833 -49.5 166.5
c-22 47.333 -52.333 72 -91 74z" />
    <glyph glyph-name="one" unicode="1" horiz-adv-x="1229" 
d="M167 195c9.33301 0 31.3291 -2.33105 65.9961 -6.99805c16 -2.66699 28.667 -4 38 -4c56.667 0 89.334 44.667 98.001 134c4.66699 50.667 7 194.667 7 432c0 36 -7.33301 61 -22 75s-41.334 21 -80.001 21c-9.33301 0 -22.666 -1 -39.999 -3
c-13.333 -1.33301 -25 -2 -35 -2c-22.667 0 -41 6.16699 -55 18.5s-21 28.5 -21 48.5c0 21.333 10.667 42.5 32 63.5s51 39.5 89 55.5c188.667 80 389.334 120 602.001 120c58 0 100.167 -6.83301 126.5 -20.5s39.5 -35.5 39.5 -65.5c0 -17.333 -4.33301 -30.833 -13 -40.5
s-26 -20.167 -52 -31.5c-41.333 -18 -65 -40 -71 -66s-10.667 -127.333 -14 -304c5.33301 -178.667 8.33301 -274.334 9 -287.001s3.33398 -30.334 8.00098 -53.001c8 -35.333 23 -59.666 45 -72.999s60.667 -21.333 116 -24c62.667 -2.66699 94 -28.334 94 -77.001
c0 -50.667 -44.333 -84 -133 -100c-123.333 -22 -250 -33 -380 -33c-85.333 0 -166 5 -242 15c-95.333 13.333 -169.333 29.666 -222 48.999c-51.333 18.667 -77 46.667 -77 84c0 20 8.33301 37.333 25 52s37.334 22.334 62.001 23.001z" />
    <glyph glyph-name="two" unicode="2" horiz-adv-x="1229" 
d="M789 0l-681 -0.000976562c-60 0 -90 17 -90 51c0 17.333 6.33301 33.5 19 48.5s53.667 55.167 123 120.5c128.667 121.333 224 234.333 286 339c32 53.333 48 99.333 48 138c0 33.333 -9.66699 59.833 -29 79.5s-45.333 29.5 -78 29.5c-30.667 0 -54 -4.16699 -70 -12.5
s-51.333 -35.5 -106 -81.5c-14.667 -12 -34 -18 -58 -18c-31.333 0 -60.166 12.167 -86.499 36.5s-39.5 50.833 -39.5 79.5c0 26 12 55.5 36 88.5s55.667 64.167 95 93.5c144 103.333 303.667 155 479 155c133.333 0 243.666 -25.667 330.999 -77
c39.333 -23.333 71 -56 95 -98s36 -86 36 -132c0 -116.667 -80.667 -243.334 -242 -380.001c-57.333 -48 -86 -84 -86 -108c0 -18.667 8.66699 -34.5 26 -47.5s38.333 -19.5 63 -19.5c58.667 0 111 22.667 157 68c23.333 22.667 38.833 36.334 46.5 41.001s18.167 7 31.5 7
c58.667 0 88 -50 88 -150c0 -50 -9.5 -100.667 -28.5 -152s-44.833 -95.666 -77.5 -132.999c-34.667 -40 -72.667 -60 -114 -60c-16.667 0 -30 3.5 -40 10.5s-21.333 20.167 -34 39.5c-12 18.667 -23.833 30.667 -35.5 36s-33.167 8 -64.5 8z" />
    <glyph glyph-name="three" unicode="3" horiz-adv-x="1229" 
d="M526 1147c129.333 0 243.666 -23.6689 342.999 -71.002c39.333 -19.333 70.5 -46.166 93.5 -80.499s34.5 -71.166 34.5 -110.499c0 -72 -37.667 -138 -113 -198c-21.333 -17.333 -32 -31 -32 -41c0 -19.333 19 -32.666 57 -39.999c180 -33.333 270 -133.333 270 -300
c0 -104.667 -36.667 -200.334 -110 -287.001c-69.333 -83.333 -171.666 -144.666 -306.999 -183.999c-97.333 -28 -204.333 -42 -321 -42c-136.667 0 -254 19 -352 57c-62 24 -93 59 -93 105c0 28.667 10.5 52.834 31.5 72.501s46.5 29.5 76.5 29.5
c16.667 0 61.667 -8.33301 135 -25c24 -6 58.333 -9 103 -9c80 0 143.667 18.333 191 55c50 39.333 75 84.333 75 135c0 47.333 -19.333 86.166 -58 116.499s-88.334 45.5 -149.001 45.5c-38.667 0 -72.667 -4.33301 -102 -13c-17.333 -5.33301 -30.333 -8 -39 -8
c-17.333 0 -35.166 17.667 -53.499 53s-27.5 69.666 -27.5 102.999c0 16 4.33301 26.833 13 32.5s36.334 16.5 83.001 32.5c42 14 82.333 40.667 121 80c29.333 30 44 62.333 44 97c0 38 -15 70.833 -45 98.5s-66 41.5 -108 41.5c-25.333 0 -46.833 -3 -64.5 -9
s-50.167 -21.667 -97.5 -47c-14 -7.33301 -25 -11 -33 -11c-16.667 0 -32.5 11.667 -47.5 35s-22.5 48 -22.5 74c0 45.333 40 88 120 128c50 25.333 110.167 45.833 180.5 61.5s138.166 23.5 203.499 23.5z" />
    <glyph glyph-name="four" unicode="4" horiz-adv-x="1229" 
d="M1046 1116v-690.998c0 -20.667 2.83301 -34.834 8.5 -42.501s16.167 -11.5 31.5 -11.5h42c31.333 0.666992 47.666 -18.333 48.999 -57v-203c0 -35.333 -18 -55.333 -54 -60c-23.333 -2.66699 -38 -7 -44 -13s-9 -20.333 -9 -43v-118
c2.66699 -42 -16.666 -64 -57.999 -66h-342c-24 0 -39.667 4.16699 -47 12.5s-11 26.166 -11 53.499v103c0 28 -5.33301 47.5 -16 58.5s-29.334 16.5 -56.001 16.5h-390c-46.667 0 -79.5 9.83301 -98.5 29.5s-28.5 53.5 -28.5 101.5c0 64 7.66699 114 23 150
c18.667 44.667 72.334 120 161.001 226l254 305c127.333 152.667 221.333 250 282 292c27.333 18.667 60.5 34 99.5 46s75.5 18 109.5 18c33.333 0 57.333 -8.33301 72 -25s22 -44 22 -82zM626 597.002v48.999c0 60 -16.667 90 -50 90c-25.333 0 -49 -13.667 -71 -41
l-154 -189c-44.667 -55.333 -67 -95 -67 -119c0 -17.333 9.33301 -28.5 28 -33.5s65 -8.5 139 -10.5l79 -1c34 0 57 3.83301 69 11.5s19 22.834 21 45.501c4 36.667 6 102.667 6 198z" />
    <glyph glyph-name="five" unicode="5" horiz-adv-x="1229" 
d="M374 1133l710.997 0.000976562c26.667 0 44.667 -5.66699 54 -17s14 -33.333 14 -66c0 -45.333 -8 -89.833 -24 -133.5s-37 -78.167 -63 -103.5c-20.667 -20 -47.334 -30 -80.001 -30h-452c-50.667 0 -76 -20 -76 -60c0 -16.667 5.83301 -28.334 17.5 -35.001
s37.167 -11.667 76.5 -15c146 -14.667 272.333 -47 379 -97c76.667 -35.333 138 -87.333 184 -156c33.333 -49.333 50 -102.666 50 -159.999c0 -93.333 -40 -181.666 -120 -264.999c-63.333 -66 -146.166 -117 -248.499 -153s-215.166 -54 -338.499 -54
c-98 0 -187 12.667 -267 38c-74 22.667 -111 61 -111 115c0 31.333 5.33301 58.333 16 81s23.334 34 38.001 34c8 0 18 -2 30 -6c26.667 -8 59.5 -15.333 98.5 -22s70.167 -10 93.5 -10c56.667 0 102.334 12.167 137.001 36.5s52 56.5 52 96.5
c0 49.333 -27.333 90.666 -82 123.999c-52.667 32 -119.667 54.667 -201 68c-68.667 11.333 -109.834 18.5 -123.501 21.5s-26.5 8.5 -38.5 16.5c-23.333 14.667 -35 35.334 -35 62.001c0 36 15.333 106.667 46 212s65.667 206.666 105 303.999
c31.333 79.333 55.333 128.166 72 146.499s45.334 27.5 86.001 27.5z" />
    <glyph glyph-name="six" unicode="6" horiz-adv-x="1229" 
d="M497 1301c28.667 0 75.667 -10.333 141 -31c35.333 -11.333 65 -25 89 -41s36 -30.333 36 -43c0 -10 -3.83301 -20.167 -11.5 -30.5s-32.167 -38.833 -73.5 -85.5c-26.667 -28.667 -50.5 -63.334 -71.5 -104.001s-31.5 -71.334 -31.5 -92.001c0 -10 3 -18.5 9 -25.5
s13.333 -10.5 22 -10.5c7.33301 0 31.333 7.33301 72 22c55.333 20 107.333 30 156 30c84 0 160.333 -26.667 229 -80c96.667 -74.667 145 -174.667 145 -300c0 -99.333 -29.333 -194.666 -88 -285.999c-107.333 -167.333 -267 -251 -479 -251c-176 0 -318 50.667 -426 152
c-60 56.667 -106.333 128 -139 214c-27.333 71.333 -41 143 -41 215c0 168.667 67.667 341.334 203 518.001c64 83.333 115.5 142.333 154.5 177s73.833 52 104.5 52zM606 607c-29.333 0 -52.5 -10.5 -69.5 -31.5s-25.5 -49.5 -25.5 -85.5
c0 -55.333 19.667 -110.166 59 -164.499s79.333 -81.5 120 -81.5c27.333 0 49.333 8.16699 66 24.5s25 37.833 25 64.5c0 44.667 -10 91.167 -30 139.5s-44.333 84.166 -73 107.499c-21.333 17.333 -45.333 26.333 -72 27z" />
    <glyph glyph-name="seven" unicode="7" horiz-adv-x="1229" 
d="M1170 1014l-405.999 -1230c-6 -16.667 -16.333 -28 -31 -34s-39.334 -9 -74.001 -9c-76.667 0 -146.5 11.333 -209.5 34s-94.5 47.667 -94.5 75c0 6.66699 2.66699 15 8 25l373 713c27.333 52.667 41 89.334 41 110.001c0 25.333 -15.667 42.666 -47 51.999
s-89.333 14 -174 14c-101.333 0 -173.666 -6.33301 -216.999 -19c-18.667 -6 -35 -18.667 -49 -38c-18.667 -25.333 -35.5 -42.5 -50.5 -51.5s-34.5 -13.5 -58.5 -13.5c-46 0 -81.333 19.167 -106 57.5s-37 93.5 -37 165.5c0 88 16 162.333 48 223
c15.333 28.667 35.166 52.5 59.499 71.5s47.5 28.5 69.5 28.5c15.333 0 49 -11.667 101 -35c32.667 -13.333 74 -20 124 -20h643c63.333 0 95 -24 95 -72c0 -15.333 -2.66699 -31 -8 -47z" />
    <glyph glyph-name="eight" unicode="8" horiz-adv-x="1229" 
d="M598 1267c140 0 268.999 -23.0029 386.999 -69.0029c64.667 -25.333 117 -64.333 157 -117c29.333 -38 44 -82 44 -132c0 -78.667 -43.333 -145.667 -130 -201c-26 -16.667 -39 -30 -39 -40c0 -9.33301 15.667 -24.666 47 -45.999c43.333 -30 78 -69.167 104 -117.5
s39 -98.166 39 -149.499c0 -77.333 -28 -152.666 -84 -225.999c-99.333 -130.667 -256.666 -196 -471.999 -196c-148.667 0 -280.667 26.333 -396 79c-78 36 -139 85.667 -183 149c-33.333 47.333 -50 102.666 -50 165.999c0 86 39.667 157 119 213
c29.333 21.333 44 37.333 44 48c0 8.66699 -12.667 25 -38 49c-63.333 60.667 -95 133.334 -95 218.001c0 117.333 58.667 211 176 281c102 60.667 225.333 91 370 91zM642.999 1082c-29.333 0 -53.833 -7.49902 -73.5 -22.499s-29.5 -33.5 -29.5 -55.5
c0 -34.667 24.333 -69.667 73 -105c54 -40 98 -60 132 -60c17.333 0 33 11.667 47 35s21 49.666 21 78.999c0 39.333 -14.667 69.333 -44 90c-36 26 -78 39 -126 39zM404.999 486.998c-15.333 0 -27.5 -7.16992 -36.5 -21.5029s-13.5 -32.833 -13.5 -55.5
c0 -26 6.66699 -54.333 20 -85s30 -56 50 -76c48 -48.667 106.667 -73 176 -73c40.667 0 73.167 9 97.5 27s36.5 41.667 36.5 71c0 32.667 -11.5 59.334 -34.5 80.001s-71.5 48.334 -145.5 83.001c-70.667 32.667 -120.667 49.334 -150 50.001z" />
    <glyph glyph-name="nine" unicode="9" horiz-adv-x="1229" 
d="M607 1147c133.333 0 255.001 -30.3301 365.001 -90.9971c145.333 -80.667 218 -211.334 218 -392.001c0 -146 -47.333 -299.333 -142 -460c-104.667 -178 -228.334 -319.667 -371.001 -425c-33.333 -24 -62 -36 -86 -36c-40.667 0 -93 17.167 -157 51.5
s-96 62.166 -96 83.499c0 14 19.667 34 59 60c48.667 32 90.667 76 126 132c32.667 51.333 49 92.666 49 123.999c0 25.333 -13.333 38 -40 38c-9.33301 0 -32 -2 -68 -6c-5.33301 -0.666992 -14.666 -1 -27.999 -1c-106.667 0 -192.334 30.667 -257.001 92
c-48.667 45.333 -86.5 101 -113.5 167s-40.5 134.667 -40.5 206c0 142.667 54.333 253 163 331c115.333 84 255 126 419 126zM594.001 861.003c-28.667 0 -52.668 -11.999 -72.001 -35.999s-29 -53.667 -29 -89c0 -68.667 16.667 -127.834 50 -177.501s73 -74.5 119 -74.5
c27.333 0 49.5 10 66.5 30s25.5 46 25.5 78c0 36 -7.66699 76.833 -23 122.5s-32.666 80.167 -51.999 103.5c-24 28 -52.333 42.333 -85 43z" />
    <glyph glyph-name="colon" unicode=":" horiz-adv-x="614" 
d="M311 1023c64 0 118.833 -22.833 164.5 -68.5s68.5 -100.5 68.5 -164.5c0 -70 -23.667 -127.667 -71 -173c-46.667 -44 -101.667 -66 -165 -66s-118.333 22 -165 66c-47.333 45.333 -71 103 -71 173c0 61.333 20 113 60 155c48 52 107.667 78 179 78zM311 445
c64 0 118.833 -22.833 164.5 -68.5s68.5 -100.5 68.5 -164.5c0 -70 -23.667 -127.667 -71 -173c-46.667 -44 -101.667 -66 -165 -66s-118.333 22 -165 66c-47.333 45.333 -71 103 -71 173c0 61.333 20 113 60 155c48 52 107.667 78 179 78z" />
    <glyph glyph-name="semicolon" unicode=";" horiz-adv-x="614" 
d="M291 458c32.667 0 64.999 -7.83398 96.999 -23.501s58.667 -36.834 80 -63.501c50.667 -63.333 76 -143.333 76 -240c0 -53.333 -9.83301 -113.166 -29.5 -179.499s-45.5 -126.5 -77.5 -180.5c-52.667 -88 -107.667 -132 -165 -132c-25.333 0 -48.166 7.66699 -68.499 23
s-30.5 33 -30.5 53c0 10.667 12.667 36.334 38 77.001c15.333 24 28.833 51 40.5 81s17.5 52.667 17.5 68c0 24 -11.333 40.333 -34 49c-44.667 16.667 -76.334 33 -95.001 49c-56 48 -84 109.667 -84 185c0 60 19.667 111.333 59 154c48.667 53.333 107.334 80 176.001 80z
M306.999 1023c64 0 118.833 -22.833 164.5 -68.5s68.5 -100.5 68.5 -164.5c0 -70 -23.667 -127.667 -71 -173c-46.667 -44 -101.667 -66 -165 -66c-64 0 -119 22 -165 66c-47.333 45.333 -71 103 -71 173c0 61.333 20 113 60 155c48 52 107.667 78 179 78z" />
    <glyph glyph-name="less" unicode="&#x3c;" horiz-adv-x="1276" 
d="M527 524l536.001 -234c29.333 -11.333 48.666 -22 57.999 -32c14 -14 21 -34.667 21 -62v-65c0 -68 -13.667 -102 -41 -102c-16 0 -29.5 2.33301 -40.5 7l-38.5 17l-840 365c-21.333 9.33301 -32 44.666 -32 105.999c0 64.667 10.667 101.667 32 111l881 379
c14 4.66699 26.667 7 38 7c27.333 0 41 -33 41 -99v-65c0 -30 -5.83301 -50.667 -17.5 -62s-32.167 -23.666 -61.5 -36.999z" />
    <glyph glyph-name="equal" unicode="=" horiz-adv-x="1276" 
d="M1005 606l-758 -4c-43.333 0 -71 9.66699 -83 29c-9.33301 15.333 -14 46.666 -14 93.999c0 43.333 4 72.333 12 87c12.667 20.667 38.667 31 78 31h803c40.667 0 67.334 -8.83301 80.001 -26.5s19 -48.167 19 -91.5c0 -45.333 -6.83301 -77.166 -20.5 -95.499
s-42.834 -27.5 -87.501 -27.5zM1005 205l-758 -4.00098c-43.333 0 -71 9.33301 -83 28c-9.33301 16 -14 47.667 -14 95c0 43.333 4 72.333 12 87c12.667 20.667 38.667 31 78 31h803c40.667 0 67.334 -8.83301 80.001 -26.5s19 -48.167 19 -91.5
c0 -45.333 -6.83301 -77.166 -20.5 -95.499s-42.834 -27.5 -87.501 -27.5z" />
    <glyph glyph-name="greater" unicode="&#x3e;" horiz-adv-x="1276" 
d="M227 290l536.999 234.002l-537 234c-30 13.333 -50.333 25.666 -61 36.999s-16 32 -16 62v65c0 66 13.667 99 41 99c-3.33301 0 22.334 -7 77.001 -21l836 -365c14.667 -6.66699 25 -22.667 31 -48c2 -29.333 4.33301 -50.333 7 -63c-4 -20.667 -6.33301 -41 -7 -61
c-6 -23.333 -16.333 -38.333 -31 -45l-836 -365c-38 -16 -63.667 -24 -77 -24c-27.333 0 -41 34 -41 102v62c0 28.667 5.33301 49.167 16 61.5s31 24.166 61 35.499z" />
    <glyph glyph-name="question" unicode="?" horiz-adv-x="987" 
d="M465 406c58 0 107.667 -21.668 149 -65.001c41.333 -42.667 62 -92.667 62 -150c0 -59.333 -21.333 -110.5 -64 -153.5s-93.667 -64.5 -153 -64.5c-58 0 -107.667 19.667 -149 59c-44.667 42.667 -67 95.334 -67 158.001c0 58 19.667 107 59 147c44 46 98.333 69 163 69z
M487 1364c74.667 0 150.335 -15.9971 227.002 -47.9971c79.333 -33.333 141.666 -80 186.999 -140c44 -57.333 66 -119.333 66 -186c0 -77.333 -31.667 -142.333 -95 -195c-16.667 -14 -65.667 -41 -147 -81c-29.333 -14.667 -51.166 -28.834 -65.499 -42.501
s-26.833 -31.834 -37.5 -54.501c-22.667 -49.333 -42.667 -80.5 -60 -93.5s-47 -19.5 -89 -19.5c-40 0 -71.667 11.667 -95 35s-35 55.333 -35 96c0 36.667 9 75.667 27 117c4.66699 10 30.334 50 77.001 120c43.333 65.333 65 126.666 65 183.999
c0 28.667 -6.5 52.167 -19.5 70.5s-29.5 27.5 -49.5 27.5c-20.667 0 -35.334 -6.5 -44.001 -19.5s-15 -37.5 -19 -73.5c-6.66699 -68 -29 -119.667 -67 -155c-38 -36 -87.667 -54 -149 -54c-42.667 0 -77.334 12 -104.001 36c-30.667 27.333 -46 62.333 -46 105
c0 64.667 22.167 127.5 66.5 188.5s101.166 106.167 170.499 135.5c73.333 31.333 152 47 236 47z" />
    <glyph glyph-name="at" unicode="@" horiz-adv-x="1636" 
d="M978 1392c184 0 330.668 -50.667 440.001 -152c54 -49.333 96.333 -110.666 127 -183.999c28.667 -69.333 43 -139.333 43 -210c0 -106 -29.667 -205.667 -89 -299c-64 -101.333 -158.667 -174 -284 -218c-64 -22.667 -124 -34 -180 -34
c-48.667 0 -85.167 8.66699 -109.5 26s-41.833 47.333 -52.5 90c-3.33301 12.667 -9.33301 19 -18 19c-10 0 -23 -8 -39 -24c-69.333 -68.667 -138.666 -103 -207.999 -103c-61.333 0 -110.5 21 -147.5 63s-55.5 97.667 -55.5 167c0 122.667 38.333 236.334 115 341.001
c42.667 58.667 91 104.5 145 137.5s107.667 49.5 161 49.5c39.333 0 83.666 -14.667 132.999 -44c16 -10 28 -15 36 -15c7.33301 0 17.333 3.33301 30 10c66 32 118.333 48 157 48c47.333 0 71 -19.667 71 -59c0 -22.667 -5 -53.334 -15 -92.001
c-47.333 -182 -71 -300.333 -71 -355c0 -24 11.667 -36 35 -36c32 0 68 20 108 60c33.333 33.333 59.666 75 78.999 125s29 101.333 29 154c0 106 -34.333 193.333 -103 262c-80 80 -196.667 120 -350 120c-204 0 -374.333 -67 -511 -201
c-82 -81.333 -144 -182.666 -186 -303.999c-27.333 -77.333 -41 -154.333 -41 -231c0 -147.333 55.667 -252 167 -314c77.333 -42.667 171 -64 281 -64c138 0 268 28.667 390 86c31.333 14.667 57.333 22 78 22c18 0 33.333 -5.5 46 -16.5s19 -24.5 19 -40.5
c0 -30.667 -21.333 -60.334 -64 -89.001c-112.667 -76 -265 -114 -457 -114c-179.333 0 -322 36.667 -428 110c-75.333 52.667 -130.333 122.667 -165 210c-26 65.333 -39 135.666 -39 210.999c0 152.667 41.667 301 125 445c103.333 178.667 249.333 305 438 379
c107.333 42.667 227.333 64 360 64zM910.001 888c-21.333 0 -48.668 -23.333 -82.001 -70c-23.333 -32.667 -43 -71.5 -59 -116.5s-24 -84.167 -24 -117.5c0 -30.667 8.66699 -46 26 -46c18.667 0 41.334 20.333 68.001 61c26 40 48 84 66 132s27 87.333 27 118
c0 26 -7.33301 39 -22 39z" />
    <glyph glyph-name="A" unicode="A" horiz-adv-x="1693" 
d="M1332 691l189.003 -404.998c18 -37.333 33 -61.833 45 -73.5s30.333 -19.5 55 -23.5c48 -7.33301 72 -31.666 72 -72.999c0 -48.667 -29.333 -83.667 -88 -105s-154.667 -32 -288 -32c-150.667 0 -262.334 6.33301 -335.001 19c-33.333 6 -59.833 18.167 -79.5 36.5
s-29.5 40.5 -29.5 66.5c0 20 5.16699 35.5 15.5 46.5s29.5 21.167 57.5 30.5c31.333 10.667 47 28.667 47 54c0 44.667 -27 71 -81 79c-58 8 -139.667 12 -245 12c-88.667 0 -141.667 -5.33301 -159 -16c-10.667 -6.66699 -20 -18.667 -28 -36s-12 -34 -12 -50
c0 -14.667 2.83301 -24.167 8.5 -28.5s24.167 -11.5 55.5 -21.5c40.667 -12 61 -36 61 -72c0 -79.333 -95 -119 -285 -119c-108 0 -187.333 7.33301 -238 22c-46.667 14 -70 44.667 -70 92c0 20.667 5.16699 36.667 15.5 48s28.833 21.666 55.5 30.999
c43.333 15.333 76.166 36.833 98.499 64.5s54.166 86.834 95.499 177.501l141 309c52 113.333 86.833 198.166 104.5 254.499s26.834 111.5 27.501 165.5c0.666992 57.333 4.16699 97.166 10.5 119.499s20.5 44.166 42.5 65.499c46 46.667 104.667 70 176 70
c67.333 0 131.666 -26.333 192.999 -79c85.333 -72 209.333 -281.667 372 -629zM636.003 565.002l196.001 0.000976562c36 0 54 8 54 24c0 22 -25 76 -75 162c-22.667 39.333 -40 65.666 -52 78.999s-24.667 20 -38 20c-24 0 -44 -22.333 -60 -67
c-2.66699 -6 -12.334 -29.667 -29.001 -71c-28 -68 -42 -108.667 -42 -122c0 -16.667 15.333 -25 46 -25z" />
    <glyph glyph-name="B" unicode="B" horiz-adv-x="1469" 
d="M582 1l-133.997 -1.00195c-94 -1.33301 -162.667 -3.33301 -206 -6c-38.667 -3.33301 -66.334 -5 -83.001 -5c-40.667 0 -73 10.333 -97 31c-23.333 20.667 -35 45.334 -35 74.001c0 18.667 4.33301 33.334 13 44.001s29.667 27.334 63 50.001
c19.333 13.333 32.666 34.166 39.999 62.499s15.333 89.166 24 182.499c12.667 145.333 19 324.333 19 537c0 78 -5.16699 129.833 -15.5 155.5s-34.5 46.834 -72.5 63.501c-44 18.667 -66 46 -66 82c0 29.333 13.167 53.333 39.5 72s60.166 28 101.499 28
c22.667 0 51.667 -1 87 -3c58.667 -2.66699 122 -4 190 -4c50 0 148.333 2 295 6c46 1.33301 87.667 2 125 2c88.667 0 160.167 -7.16699 214.5 -21.5s101.5 -38.5 141.5 -72.5c65.333 -55.333 98 -129.333 98 -222c0 -46 -9.66699 -90.833 -29 -134.5
s-45.333 -78.5 -78 -104.5c-23.333 -18.667 -35 -35.667 -35 -51c0 -16.667 14 -30.667 42 -42c54.667 -22 104.334 -59 149.001 -111c46 -54 69 -121.667 69 -203c0 -96 -35 -183.667 -105 -263c-92.667 -104.667 -229.667 -157 -411 -157
c-24.667 0 -85.334 1.66699 -182.001 5c-88 3.33301 -142 5.33301 -162 6zM651.003 1086l0.000976562 -206c0 -32.667 4.16699 -55.667 12.5 -69s22.833 -20 43.5 -20c49.333 0 85.666 15.167 108.999 45.5s35 77.833 35 142.5c0 62.667 -12 111.167 -36 145.5
s-58 51.5 -102 51.5c-23.333 0 -39.5 -6.5 -48.5 -19.5s-13.5 -36.5 -13.5 -70.5zM651.004 509.998l-0.00195312 -95c0 -87.333 6.33301 -145.333 19 -174s38.334 -43 77.001 -43c101.333 0 152 59.333 152 178c0 148 -56.667 222 -170 222
c-29.333 0 -49.666 -6.33301 -60.999 -19s-17 -35.667 -17 -69z" />
    <glyph glyph-name="C" unicode="C" horiz-adv-x="1474" 
d="M802 1393c97.333 0 191.333 -21.332 282 -63.999c42.667 -20 72.334 -30 89.001 -30c12 0 31.333 3 58 9c8.66699 2 18.334 3 29.001 3c34.667 0 65 -16 91 -48c64 -77.333 96 -173.333 96 -288c0 -80.667 -27.667 -139.667 -83 -177c-30 -20 -63.667 -30 -101 -30
c-34 0 -61.667 7.33301 -83 22s-42 40.667 -62 78c-28.667 52.667 -52 90.5 -70 113.5s-40 43.833 -66 62.5c-64.667 45.333 -132.334 68 -203.001 68c-68.667 0 -123.167 -24.833 -163.5 -74.5s-60.5 -116.167 -60.5 -199.5c0 -114.667 29 -219.667 87 -315
c78.667 -127.333 191.334 -191 338.001 -191c54 0 107.5 9 160.5 27s94.167 41.333 123.5 70c25.333 24 46 36 62 36c23.333 0 43.333 -10.833 60 -32.5s25 -47.834 25 -78.501c0 -38.667 -11.667 -82 -35 -130s-51.333 -85.667 -84 -113c-14 -11.333 -43 -21.333 -87 -30
c-25.333 -4.66699 -59 -17 -101 -37c-98.667 -47.333 -201.334 -71 -308.001 -71c-111.333 0 -222.333 25 -333 75c-128.667 58 -230.334 147 -305.001 267c-73.333 116.667 -110 238.667 -110 366c0 148 46 283 138 405c80 106 184.333 187 313 243
c98 42.667 199 64 303 64z" />
    <glyph glyph-name="D" unicode="D" horiz-adv-x="1643" 
d="M459 0l-71.999 -0.000976562c-42 0 -89 -2 -141 -6c-32.667 -2.66699 -55.334 -4 -68.001 -4c-44.667 0 -81 10.333 -109 31s-42 47.667 -42 81c0 23.333 6.16699 41.5 18.5 54.5s32.5 23.5 60.5 31.5c26.667 6.66699 44.667 17.5 54 32.5s16.666 44.167 21.999 87.5
c5.33301 50 10.166 147.333 14.499 292s6.5 288.334 6.5 431.001c0 56 -4.33301 93.333 -13 112s-29 33.667 -61 45c-46 17.333 -69 47 -69 89c0 32.667 15.833 58.167 47.5 76.5s75.834 27.5 132.501 27.5c18.667 0 40.667 -0.333008 66 -1c56 -2 96.667 -3 122 -3
c95.333 0 203 3 323 9c25.333 1.33301 57 2 95 2c152.667 0 273.334 -17.333 362.001 -52c132 -52 231.333 -139.333 298 -262c59.333 -108 89 -236.667 89 -386c0 -75.333 -11 -150.833 -33 -226.5s-51.667 -141.167 -89 -196.5c-77.333 -112 -184 -190.667 -320 -236
c-80 -26.667 -165.333 -40 -256 -40l-121 4l-104 3c-80.667 2.66699 -151.667 4 -213 4zM669.001 1084v-774c0 -42 9 -71.833 27 -89.5s48 -26.5 90 -26.5c194.667 0 292 148 292 444c0 163.333 -22.667 290 -68 380c-50 99.333 -134.667 149 -254 149
c-32 0 -54.5 -6.33301 -67.5 -19s-19.5 -34 -19.5 -64z" />
    <glyph glyph-name="E" unicode="E" horiz-adv-x="1415" 
d="M247 1365l514.002 0.00195312c104 0 179.833 2.16699 227.5 6.5s94.167 13.166 139.5 26.499c14 4 25 6 33 6c34.667 0 65.334 -18.667 92.001 -56c44 -60.667 66 -134 66 -220c0 -43.333 -9.16699 -77.5 -27.5 -102.5s-43.5 -37.5 -75.5 -37.5
c-22 0 -39.167 4.5 -51.5 13.5s-28.833 29.167 -49.5 60.5c-29.333 44.667 -66.5 74.5 -111.5 89.5s-118.833 22.5 -221.5 22.5c-76.667 0 -123.334 -13.667 -140.001 -41c-8.66699 -14.667 -13.834 -34.334 -15.501 -59.001s-2.5 -87.667 -2.5 -189
c0 -40 6.66699 -64.833 20 -74.5s48.333 -14.5 105 -14.5c28 0 48.333 5.83301 61 17.5s20.667 32.5 24 62.5c4.66699 38.667 9.5 65.167 14.5 79.5s14.167 26.833 27.5 37.5c14 12 30.333 18 49 18c27.333 0 50.666 -13 69.999 -39c14 -19.333 25.833 -53.5 35.5 -102.5
s14.5 -100.167 14.5 -153.5c0 -105.333 -16.333 -191.666 -49 -258.999c-18 -36.667 -45.333 -55 -82 -55c-22.667 0 -38.334 5.83301 -47.001 17.5s-15.334 35.834 -20.001 72.501c-10 75.333 -54 113 -132 113c-30 0 -50.5 -9.5 -61.5 -28.5s-16.5 -54.167 -16.5 -105.5
c0 -31.333 2.16699 -71.833 6.5 -121.5s8.83301 -82.5 13.5 -98.5c5.33301 -20 21.833 -33.833 49.5 -41.5s73.834 -11.5 138.501 -11.5c100 0 175.333 12.833 226 38.5s92 72.167 124 139.5c18.667 38.667 35.5 64.667 50.5 78s34.5 20 58.5 20
c28 0 51.167 -12.167 69.5 -36.5s27.5 -54.833 27.5 -91.5c0 -40 -10.333 -90 -31 -150s-46 -113.333 -76 -160c-15.333 -22.667 -28 -37.834 -38 -45.501s-22.667 -11.5 -38 -11.5c-12.667 0 -31 2 -55 6c-42.667 8 -99.667 13 -171 15h-848c-34 0 -60.333 7.5 -79 22.5
s-28 36.167 -28 63.5c0 19.333 4 33.333 12 42s26.333 19.667 55 33c20 8.66699 34.833 19.334 44.5 32.001s17.167 31.334 22.5 56.001c22 100.667 33 236.334 33 407.001c0 257.333 -16 419.666 -48 486.999c-6.66699 13.333 -14 22.666 -22 27.999
s-24.667 11.666 -50 18.999c-38 11.333 -57 36.666 -57 75.999c0 21.333 6.33301 40.333 19 57s29.334 27.667 50.001 33c26 6 76.333 9 151 9z" />
    <glyph glyph-name="F" unicode="F" horiz-adv-x="1354" 
d="M773 1159c-46 0 -74.3301 -11.666 -84.9971 -34.999c-8 -17.333 -15.5 -51.333 -22.5 -102s-10.5 -96.667 -10.5 -138c0 -24.667 8 -41.667 24 -51s46 -14 90 -14c29.333 0 51 5.33301 65 16s23.667 28.667 29 54c15.333 72.667 46.666 109 93.999 109
c81.333 0 122 -97.333 122 -292c0 -123.333 -17.667 -214 -53 -272c-21.333 -35.333 -50.666 -53 -87.999 -53c-39.333 0 -62 26.333 -68 79c-3.33301 34 -7.5 58 -12.5 72s-14.5 27.333 -28.5 40c-22 20.667 -54 31 -96 31c-30 0 -50.333 -5.33301 -61 -16
s-15.334 -31 -14.001 -61c0 -5.33301 -0.333008 -36.333 -1 -93c0 -115.333 12 -185.666 36 -210.999c8 -10 16.167 -16.5 24.5 -19.5s30.166 -7.16699 65.499 -12.5c17.333 -2.66699 32 -11.667 44 -27s18 -33 18 -53c0 -51.333 -30 -84.333 -90 -99
c-86.667 -20.667 -208.334 -31 -365.001 -31c-137.333 0 -232 8 -284 24c-23.333 7.33301 -42.333 20.666 -57 39.999s-22 40.666 -22 63.999c0 29.333 10.667 53 32 71c5.33301 4 23.666 12.333 54.999 25c37.333 14.667 59.666 48.667 66.999 102c12 82 18 269 18 561
c0 126 -4.33301 207.667 -13 245s-29.667 63.333 -63 78s-55.166 27.5 -65.499 38.5s-15.5 26.833 -15.5 47.5c0 29.333 14.333 53.833 43 73.5s64 29.5 106 29.5c26.667 0 65.667 -2 117 -6c108.667 -8.66699 238.667 -13 390 -13c242 0 405 6.66699 489 20
c11.333 1.33301 20 2 26 2c23.333 0 45.666 -13.333 66.999 -40c58.667 -74.667 88 -157.334 88 -248.001c0 -41.333 -9.66699 -74.333 -29 -99s-44.666 -37 -75.999 -37c-23.333 0 -41 4.66699 -53 14s-42.667 42 -92 98c-30 34.667 -66.167 57.334 -108.5 68.001
s-121.166 17.667 -236.499 21z" />
    <glyph glyph-name="G" unicode="G" horiz-adv-x="1626" 
d="M809 1393c87.333 0 169.662 -12.335 246.995 -37.002c34.667 -11.333 58.334 -17 71.001 -17c13.333 0 41.333 7.66699 84 23c14 4.66699 28.333 7 43 7c37.333 0 73 -22 107 -66c54.667 -70.667 82 -148 82 -232c0 -57.333 -14.5 -103.666 -43.5 -138.999
s-67.167 -53 -114.5 -53c-38.667 0 -76.667 14 -114 42c-11.333 8.66699 -39 40 -83 94c-73.333 90 -157.666 135 -252.999 135c-86.667 0 -155.5 -31.667 -206.5 -95s-76.5 -148.666 -76.5 -255.999c0 -159.333 40.667 -295 122 -407
c30.667 -40.667 67.334 -73.167 110.001 -97.5s85 -36.5 127 -36.5c34.667 0 63.167 11.5 85.5 34.5s33.5 52.5 33.5 88.5c0 32 -9.33301 54.667 -28 68c-7.33301 5.33301 -14.166 8.5 -20.499 9.5s-25.5 1.5 -57.5 1.5c-28.667 0 -52.5 9.16699 -71.5 27.5
s-28.5 41.5 -28.5 69.5c0 55.333 36.667 94.666 110 117.999c80.667 25.333 173.667 38 279 38c112.667 0 207.334 -11.667 284.001 -35c72.667 -22.667 109 -63.667 109 -123c0 -24 -8.33301 -44.833 -25 -62.5s-38.334 -28.167 -65.001 -31.5
c-23.333 -3.33301 -38.5 -8.5 -45.5 -15.5s-14.167 -24.167 -21.5 -51.5c-28.667 -106 -84.667 -194.667 -168 -266c-57.333 -48.667 -126.5 -86.667 -207.5 -114s-166.167 -41 -255.5 -41c-146 0 -280 33.667 -402 101c-125.333 68.667 -220.666 164.667 -285.999 288
c-54.667 102.667 -82 213.667 -82 333c0 120.667 32.667 235.334 98 344.001c69.333 116.667 166.333 206.667 291 270c108.667 56 232.667 84 372 84z" />
    <glyph glyph-name="H" unicode="H" horiz-adv-x="1642" 
d="M470 1387c208 0 311.996 -43.001 311.996 -129.001c0 -23.333 -5.33301 -42.333 -16 -57s-31 -31 -61 -49c-26 -16 -42.5 -37 -49.5 -63s-10.5 -78.667 -10.5 -158c0 -46.667 8.66699 -75.334 26 -86.001c10 -6.66699 25.167 -10.667 45.5 -12s68.166 -2 143.499 -2
c68.667 0 111.334 3.66699 128.001 11s25 25.666 25 54.999c0 88 -4 149.333 -12 184s-23.667 58.334 -47 71.001c-29.333 16.667 -48.666 30.834 -57.999 42.501s-14 27.167 -14 46.5c0 27.333 10.333 52.166 31 74.499s47.667 37.5 81 45.5
c69.333 16.667 156.333 25 261 25c122.667 0 213.167 -11.167 271.5 -33.5s87.5 -57.166 87.5 -104.499c0 -40 -20.667 -70 -62 -90c-26 -12 -43 -23.5 -51 -34.5s-14.333 -31.5 -19 -61.5c-2.66699 -16.667 -6 -90.667 -10 -222s-6 -235.666 -6 -312.999
c0 -135.333 5 -221.333 15 -258c5.33301 -20 11.333 -33.333 18 -40s27.667 -20 63 -40c25.333 -14 38 -35.333 38 -64c0 -50.667 -30.167 -87.5 -90.5 -110.5s-158.166 -34.5 -293.499 -34.5c-118.667 0 -206.334 11.667 -263.001 35c-51.333 21.333 -77 54.333 -77 99
c0 38 19.667 67.667 59 89c19.333 10.667 32.5 21.334 39.5 32.001s13.833 30.334 20.5 59.001c12 56 18 124.667 18 206c0 42 -6.16699 68 -18.5 78s-44.5 15 -96.5 15c-119.333 0 -195.333 -6.66699 -228 -20c-13.333 -5.33301 -21.666 -21 -24.999 -47
c-4 -32 -6 -71.333 -6 -118c0 -76 10.667 -130.667 32 -164c7.33301 -10.667 24.666 -24.334 51.999 -41.001c28 -16 42 -42.333 42 -79c0 -46.667 -32.333 -82.334 -97 -107.001s-157 -37 -277 -37c-109.333 0 -198.666 11.333 -267.999 34c-30 10 -53.5 24.167 -70.5 42.5
s-25.5 38.5 -25.5 60.5s5.33301 39 16 51s34 27.333 70 46c18.667 9.33301 31.834 21.333 39.501 36s13.5 39.334 17.5 74.001c10 78 15 180 15 306c0 23.333 -0.333008 51 -1 83c-2.66699 160 -4 251.333 -4 274c0.666992 57.333 -4.16602 95.166 -14.499 113.499
s-37.5 38.5 -81.5 60.5c-29.333 14 -44 35 -44 63c0 67.333 65.333 114 196 140c76 15.333 154 23 234 23z" />
    <glyph glyph-name="I" unicode="I" horiz-adv-x="847" 
d="M468 1386c76 0 147.666 -6.66602 214.999 -19.999c90.667 -18 136 -56.333 136 -115c0 -19.333 -4.5 -33.833 -13.5 -43.5s-31.833 -23.834 -68.5 -42.501c-30.667 -15.333 -50.834 -49 -60.501 -101s-14.5 -153.333 -14.5 -304c0 -254.667 6.33301 -412.334 19 -473.001
c4.66699 -19.333 11.834 -34.166 21.501 -44.499s26.5 -21.5 50.5 -33.5c44 -20 66 -49 66 -87c0 -53.333 -40.667 -90 -122 -110c-88 -21.333 -195.667 -32 -323 -32c-217.333 0 -326 41.333 -326 124c0 30 21.333 58 64 84c32.667 20 52 47.333 58 82
c12.667 76 19 237.333 19 484c0 170.667 -8.66699 280 -26 328c-9.33301 27.333 -31.666 52 -66.999 74c-27.333 18 -45.666 33 -54.999 45s-14 27.333 -14 46c0 28.667 13.833 51.5 41.5 68.5s76.5 32.167 146.5 45.5c83.333 16.667 167.666 25 252.999 25z" />
    <glyph glyph-name="J" unicode="J" horiz-adv-x="1284" 
d="M865 1386c74.667 0 150.671 -6.66504 228.004 -19.998c63.333 -10.667 108.666 -25.334 135.999 -44.001s41 -44.334 41 -77.001c0 -20.667 -5 -36.834 -15 -48.501s-31.667 -25.834 -65 -42.501c-38.667 -20 -60.834 -43.5 -66.501 -70.5
s-10.834 -131.833 -15.501 -314.5c-2 -176.667 -3.83301 -282.667 -5.5 -318s-5.83398 -69.666 -12.501 -102.999c-19.333 -97.333 -58.333 -173.666 -117 -228.999c-48 -45.333 -109.667 -81 -185 -107s-154.666 -39 -237.999 -39c-74 0 -148.167 9.66699 -222.5 29
s-138.833 46 -193.5 80c-45.333 28 -81.333 65.833 -108 113.5s-40 98.5 -40 152.5c0 66.667 21 121.834 63 165.501s94.667 65.5 158 65.5c62 0 114.667 -18.333 158 -55c43.333 -37.333 65 -83.333 65 -138c0 -14 -4 -37.333 -12 -70c-1.33301 -6.66699 -2 -14 -2 -22
c0 -21.333 7.66699 -38.666 23 -51.999s35.666 -20 60.999 -20c44.667 0 80.667 20 108 60s41 92.667 41 158l-1 91l-2 245c-6 148.667 -10.5 236.167 -13.5 262.5s-10.5 47.833 -22.5 64.5c-10 13.333 -18.833 22 -26.5 26s-28.5 10.333 -62.5 19
c-16 3.33301 -29.667 12.666 -41 27.999s-17 31.666 -17 48.999c0 36 14.167 64.833 42.5 86.5s74.5 39.167 138.5 52.5c71.333 14.667 145 22 221 22z" />
    <glyph glyph-name="K" unicode="K" horiz-adv-x="1694" 
d="M1196 1092l-106.999 -102.997c-39.333 -37.333 -59 -71.333 -59 -102c0 -16.667 4.5 -33.334 13.5 -50.001s25.833 -39.334 50.5 -68.001l374 -433c33.333 -38.667 56.333 -63.167 69 -73.5s31.667 -21.166 57 -32.499c36 -15.333 61.5 -32.333 76.5 -51
s22.5 -43 22.5 -73c0 -70.667 -50.333 -106 -151 -106h-379c-26 0 -46.5 5.66699 -61.5 17s-38.833 39.333 -71.5 84c-52 71.333 -120.667 153.333 -206 246c-37.333 40 -63.5 66.167 -78.5 78.5s-28.833 18.5 -41.5 18.5c-38.667 0 -58 -36.333 -58 -109
c0 -59.333 12.667 -100.333 38 -123l32 -22c36 -23.333 54 -52.333 54 -87c0 -44 -29.333 -75.5 -88 -94.5s-157.334 -28.5 -296.001 -28.5c-123.333 0 -213.333 7.33301 -270 22c-24 6.66699 -43.5 18.834 -58.5 36.501s-22.5 37.5 -22.5 59.5
c0 35.333 20 65.666 60 90.999c18 12 30.833 25.167 38.5 39.5s14.834 38.5 21.501 72.5c13.333 75.333 20 191.333 20 348c0 186.667 -7 319 -21 397c-5.33301 32 -12.666 55 -21.999 69s-25.666 27.667 -48.999 41c-37.333 21.333 -56 51 -56 89c0 32 11.667 57.667 35 77
s60.666 34 111.999 44c68 13.333 153.333 20 256 20c104.667 0 182.334 -10 233.001 -30c45.333 -18.667 68 -52 68 -100c0 -20 -3.5 -35.5 -10.5 -46.5s-25.167 -28.167 -54.5 -51.5c-10.667 -9.33301 -20.5 -31.666 -29.5 -66.999s-13.5 -70 -13.5 -104
c0 -56 12.667 -84 38 -84c15.333 0 30.166 6.66699 44.499 20s43.166 46.666 86.499 99.999c50 62 75 104.333 75 127c0 12 -6.33301 30 -19 54c-8.66699 16.667 -13 32 -13 46c0 49.333 26.667 84.166 80 104.499s144.333 30.5 273 30.5
c102.667 0 178.667 -6.66699 228 -20c60.667 -16.667 91 -52 91 -106c0 -21.333 -6.33301 -41.166 -19 -59.499s-28.334 -30.166 -47.001 -35.499c-14 -4.66699 -46.333 -7.33398 -97 -8.00098c-35.333 -0.666992 -61.833 -4.83398 -79.5 -12.501
s-40.5 -24.834 -68.5 -51.501z" />
    <glyph glyph-name="L" unicode="L" horiz-adv-x="1296" 
d="M683 928l0.00195312 -458.999c0 -103.333 9 -170 27 -200c22 -35.333 68.333 -53 139 -53c76 0 136 16.667 180 50s74.667 85.333 92 156c10 43.333 32.667 65 68 65s64.166 -15.833 86.499 -47.5s33.5 -72.834 33.5 -123.501c0 -82.667 -30.667 -171 -92 -265
c-19.333 -30 -36.333 -50.5 -51 -61.5s-32.334 -16.5 -53.001 -16.5l-222 27h-699c-46 -0 -78.333 5.33301 -97 16c-27.333 15.333 -41 38.333 -41 69c0 18.667 4.5 32.5 13.5 41.5s30.833 21.833 65.5 38.5c38 18 62.333 43.333 73 76c8.66699 27.333 13 107 13 239
c0 61.333 -1.66699 149.666 -5 264.999c-3.33301 110.667 -5.33301 194 -6 250c0 53.333 -4.16699 89.833 -12.5 109.5s-25.833 33.834 -52.5 42.501c-44 15.333 -72 27.666 -84 36.999c-21.333 16.667 -32 35.667 -32 57c0 48.667 40.333 85.667 121 111
c68.667 22 160.667 33 276 33c129.333 0 226 -6.66699 290 -20c82.667 -18 124 -54 124 -108c0 -22 -5.5 -38.333 -16.5 -49s-37.833 -25 -80.5 -43c-25.333 -11.333 -41.333 -30.666 -48 -57.999s-10 -87 -10 -179z" />
    <glyph glyph-name="M" unicode="M" horiz-adv-x="1810" 
d="M1030 414l-120.001 -268.999c-20.667 -45.333 -37.334 -75.833 -50.001 -91.5s-26.667 -23.5 -42 -23.5c-14.667 0 -27.667 6.33301 -39 19c-7.33301 8 -24.166 37.333 -50.499 88s-48.166 95.667 -65.499 135l-132 297c-18 41.333 -37 62 -57 62
c-21.333 0 -33 -17.667 -35 -53c-4.66699 -78.667 -7 -151.334 -7 -218.001c0 -69.333 3.33301 -116.333 10 -141c4.66699 -14.667 10.834 -25.334 18.501 -32.001s28.5 -18.667 62.5 -36c22 -11.333 33 -31 33 -59c0 -74.667 -95.667 -112 -287 -112
c-161.333 0 -242 36.333 -242 109c0 18.667 4.16699 32.167 12.5 40.5s29.833 20.833 64.5 37.5c22 10 36.833 23.667 44.5 41s14.167 51 19.5 101c6 53.333 11.667 140.833 17 262.5s8 225.834 8 312.501c0 108.667 -8.33301 182.334 -25 221.001
c-6 13.333 -12.833 23.333 -20.5 30s-22.167 15.334 -43.5 26.001c-47.333 22.667 -71 52 -71 88c0 23.333 8.83301 44.666 26.5 63.999s41.167 33 70.5 41c29.333 8.66699 68.5 16.167 117.5 22.5s90.5 9.5 124.5 9.5c85.333 0 145.666 -7 180.999 -21
c17.333 -6.66699 31 -15.667 41 -27s24.333 -34.666 43 -69.999l208 -383c22.667 -42 38.334 -67.667 47.001 -77s20.667 -14 36 -14c13.333 0 25.166 5 35.499 15s22.5 28.667 36.5 56l141 275l34 69c32.667 66.667 65 111 97 133c40.667 28.667 114.667 43 222 43
c188.667 0 283 -43 283 -129c0 -19.333 -3.66699 -34.833 -11 -46.5s-22.333 -25.834 -45 -42.501c-30.667 -23.333 -50 -57 -58 -101c-15.333 -92 -23 -204 -23 -336c0 -170 8 -319 24 -447c4 -31.333 10.167 -52.666 18.5 -63.999s29.833 -28.333 64.5 -51
c24 -16 36 -37.333 36 -64c0 -46.667 -31 -79.667 -93 -99c-32 -10.667 -65.667 -17.667 -101 -21s-89.666 -5 -162.999 -5c-112.667 0 -196.667 8 -252 24c-61.333 18 -92 48.667 -92 92c0 16 4 29.167 12 39.5s28.667 29.166 62 56.499c17.333 14 29.166 41 35.499 81
s9.5 108 9.5 204c0 53.333 -2.5 88.333 -7.5 105s-15.5 25 -31.5 25c-18.667 0 -36.667 -12.833 -54 -38.5s-43.333 -76.834 -78 -153.501z" />
    <glyph glyph-name="N" unicode="N" horiz-adv-x="1700" 
d="M590 1317l497.998 -435.999c46.667 -40.667 80.334 -61 101.001 -61c34.667 0 52 37 52 111c0 84 -5 141.333 -15 172s-31 53.667 -63 69c-26 12.667 -44.333 26.167 -55 40.5s-16 32.833 -16 55.5c0 56 38.333 92 115 108c31.333 6.66699 86 10 164 10
c100.667 0 170.334 -6 209.001 -18c61.333 -18.667 92 -54 92 -106c0 -43.333 -25 -76 -75 -98c-20 -8.66699 -33.667 -16.334 -41 -23.001s-13.666 -16.667 -18.999 -30c-18 -44 -27.333 -127.333 -28 -250v-326c0 -50 0.333008 -118.333 1 -205
c0.666992 -117.333 -6.33301 -202 -21 -254c-18 -64.667 -50.667 -97 -98 -97c-20.667 0 -38.5 4.33301 -53.5 13s-39.833 28.667 -74.5 60l-593 531c-41.333 37.333 -75.666 56 -102.999 56c-40.667 0 -61 -56.333 -61 -169c0 -92.667 5.16699 -156 15.5 -190
s31.5 -59 63.5 -75c44.667 -22 67 -50.667 67 -86c0 -92.667 -99.667 -139 -299 -139c-90 0 -159.833 11.833 -209.5 35.5s-74.5 57.167 -74.5 100.5c0 22.667 4.66699 39.667 14 51s30.333 26.666 63 45.999c31.333 18.667 50.333 51.667 57 99
c11.333 86 17 209.667 17 371c0 172 -10 297.333 -30 376c-7.33301 28.667 -16.666 50 -27.999 64s-30 27.333 -56 40c-30 14.667 -50.833 29 -62.5 43s-17.5 31 -17.5 51c0 64 55 104.333 165 121c37.333 5.33301 102.666 8 195.999 8
c53.333 0 92.166 -4.16699 116.499 -12.5s53.166 -27.166 86.499 -56.499z" />
    <glyph glyph-name="O" unicode="O" 
d="M808 1393c171.333 0 320.998 -49 448.998 -147c86.667 -67.333 157 -154.666 211 -261.999c52.667 -106.667 79 -213.334 79 -320.001c0 -157.333 -52 -298 -156 -422c-88 -105.333 -203 -181 -345 -227c-87.333 -28 -175 -42 -263 -42
c-115.333 0 -225.666 24 -330.999 72c-127.333 58 -227 145.667 -299 263c-70 113.333 -105 238.333 -105 375c0 158.667 45 298.667 135 420c80 108 187.667 187.333 323 238c90.667 34.667 191.334 52 302.001 52zM712.998 1106c-56 0 -100.334 -25 -133.001 -75
c-25.333 -37.333 -38 -81.666 -38 -132.999c0 -75.333 15.333 -162.5 46 -261.5s69.334 -186.833 116.001 -263.5c20.667 -32.667 46.167 -58.667 76.5 -78s61.166 -29 92.499 -29c50.667 0 91.5 19 122.5 57s46.5 88 46.5 150c0 80.667 -13 167.667 -39 261
s-59.667 173 -101 239c-25.333 40.667 -54.666 72.667 -87.999 96s-67 35.666 -101 36.999z" />
    <glyph glyph-name="P" unicode="P" horiz-adv-x="1401" 
d="M207 471v526c0 68 -4.66699 111.167 -14 129.5s-34.666 33.166 -75.999 44.499c-60 17.333 -90 47.333 -90 90c0 30 12.667 53 38 69s62 24 110 24c16 0 55.667 -1 119 -3h60c110.667 0.666992 175.5 1.5 194.5 2.5s86.833 6.83301 203.5 17.5c38.667 4 74 6 106 6
c109.333 0 206.666 -22.333 291.999 -67c148.667 -77.333 223 -200 223 -368c0 -136 -52 -245 -156 -327c-98 -76.667 -216.667 -115 -356 -115c-35.333 0 -78.666 2.33301 -129.999 7c-27.333 2 -44.333 3 -51 3c-19.333 0 -29 -11 -29 -33v-6l7 -164
c1.33301 -32 7.16602 -55.833 17.499 -71.5s31.5 -31.834 63.5 -48.501c43.333 -23.333 65 -48.666 65 -75.999c0 -42 -32 -74.333 -96 -97s-154.667 -34 -272 -34c-246.667 0 -370 42.333 -370 127c0 20 5.33301 35.333 16 46s35.667 26 75 46
c24 12.667 38 30.334 42 53.001s6.66699 95.667 8 219zM658 1124l0.000976562 -340c0 -26 5.66699 -41.667 17 -47c19.333 -9.33301 43.666 -14 72.999 -14c44 0 81 12.333 111 37c43.333 35.333 65 94.666 65 177.999c0 86.667 -25.333 149.334 -76 188.001
c-32 24.667 -70.667 37 -116 37c-49.333 0 -74 -13 -74 -39z" />
    <glyph glyph-name="Q" unicode="Q" horiz-adv-x="1600" 
d="M807 1393c96.667 0 197.663 -21.333 302.996 -64c138 -56 246.333 -150.667 325 -284c72.667 -123.333 109 -251.333 109 -384c0 -148.667 -43.667 -283 -131 -403c-40 -56 -89.667 -105.167 -149 -147.5s-120 -72.166 -182 -89.499
c-16 -4.66699 -24 -11.334 -24 -20.001c0 -24 29.5 -45 88.5 -63s126.5 -27 202.5 -27c46.667 0 91 9.33301 133 28c8.66699 4 16.334 6 23.001 6c10.667 0 21.334 -8.33301 32.001 -25s16 -33.334 16 -50.001c0 -34 -21.333 -70 -64 -108
c-43.333 -38.667 -99.5 -69.334 -168.5 -92.001s-140.167 -34 -213.5 -34c-86 0 -179.167 16.333 -279.5 49s-246.833 94.334 -439.5 185.001c-34 16.667 -72.333 30.5 -115 41.5s-78 16.5 -106 16.5c-9.33301 0 -20.666 -1 -33.999 -3
c-7.33301 -0.666992 -13.666 -1 -18.999 -1c-12.667 0 -23.167 5.5 -31.5 16.5s-12.5 24.833 -12.5 41.5c0 30.667 10 56.334 30 77.001c32 32 71.333 48 118 48l54 -1c14.667 0 22 6.66699 22 20c0 10 -13.667 31 -41 63c-62 71.333 -107.667 138 -137 200
c-45.333 96.667 -68 198 -68 304c0 140 37 265.333 111 376c72 107.333 176.333 191 313 251c112 48.667 223.667 73 335 73zM707.996 1103c-52.667 0 -93.835 -17.834 -123.502 -53.501s-44.5 -84.834 -44.5 -147.501c0 -74 11.833 -154.667 35.5 -242
s55.834 -169.666 96.501 -246.999c54.667 -104 122.667 -156 204 -156c52.667 0 96.167 18.333 130.5 55s51.5 83.334 51.5 140.001c0 74.667 -13.333 159.667 -40 255s-60.667 179 -102 251c-53.333 94 -122.666 142.333 -207.999 145z" />
    <glyph glyph-name="R" unicode="R" horiz-adv-x="1590" 
d="M694 574c-25.333 0 -41.499 -7.6709 -48.499 -23.0039s-10.5 -51 -10.5 -107c0 -84.667 5.33301 -150.667 16 -198c3.33301 -13.333 8.33301 -23.666 15 -30.999s19.334 -16.333 38.001 -27c40 -22 60 -51 60 -87c0 -44 -27.833 -75.167 -83.5 -93.5
s-149.834 -27.5 -282.501 -27.5c-246.667 0 -370 46.667 -370 140c0 16 3.66699 28.833 11 38.5s24 23.167 50 40.5c29.333 19.333 49.166 42.166 59.499 68.499s17.5 71.833 21.5 136.5c3.33301 47.333 5 217 5 509c0 92.667 -4.66699 155.667 -14 189
s-29.333 57.666 -60 72.999c-29.333 14 -49 26.833 -59 38.5s-15 26.834 -15 45.501c0 24.667 9.5 46.167 28.5 64.5s45.5 31.833 79.5 40.5c28.667 7.33301 68 11 118 11c22 0 77 -3.33301 165 -10c16.667 -1.33301 43 -2 79 -2c60 0 140 4 240 12
c63.333 4.66699 107.666 7 132.999 7c142.667 0 260.667 -34.333 354 -103c84 -62 126 -148 126 -258c0 -61.333 -14.667 -117.166 -44 -167.499s-69.666 -88.166 -120.999 -113.499c-21.333 -10.667 -32 -23.334 -32 -38.001c0 -19.333 16.333 -35 49 -47
c70 -25.333 121.333 -63.666 154 -114.999s56 -130 70 -236c6 -44 14.667 -72.5 26 -85.5s37.666 -25.5 78.999 -37.5c12.667 -4 23.334 -12.5 32.001 -25.5s13 -27.5 13 -43.5c0 -20.667 -8 -41.5 -24 -62.5s-36.667 -37.5 -62 -49.5c-56 -26 -132.667 -39 -230 -39
c-130 0 -223 34.333 -279 103c-25.333 30.667 -46.833 69.334 -64.5 116.001s-38.5 119.334 -62.5 218.001c-15.333 63.333 -34.833 108 -58.5 134s-57.5 40 -101.5 42zM636.001 1084l-11.001 -233v-9c0 -24 3.5 -40 10.5 -48s21.167 -12 42.5 -12
c58.667 0 101.334 15.167 128.001 45.5s40 78.833 40 145.5c0 128.667 -45.667 193 -137 193c-26 0 -44.333 -6 -55 -18s-16.667 -33.333 -18 -64z" />
    <glyph glyph-name="S" unicode="S" horiz-adv-x="1321" 
d="M644 1393c68.667 0 158.667 -17.001 270 -51.001c13.333 -4 24 -6 32 -6c6.66699 0 26.667 6 60 18c10.667 4 22 6 34 6c44.667 0 91.834 -35.333 141.501 -106s74.5 -138 74.5 -202c0 -37.333 -11.167 -68.833 -33.5 -94.5s-49.5 -38.5 -81.5 -38.5
c-26.667 0 -48.334 5.33301 -65.001 16s-53.334 42.334 -110.001 95.001c-80 74.667 -158.667 112 -236 112c-37.333 0 -67.166 -9 -89.499 -27s-33.5 -41.667 -33.5 -71c0 -58 51 -101.667 153 -131c138 -40.667 226.333 -70.334 265 -89.001
c170 -82.667 255 -204.334 255 -365.001c0 -142 -58 -258 -174 -348c-118.667 -92 -273.667 -138 -465 -138c-85.333 0 -175.333 10.167 -270 30.5s-163 44.166 -205 71.499c-32 21.333 -60.833 67.833 -86.5 139.5s-38.5 141.5 -38.5 209.5
c0 32.667 6.66699 57.334 20 74.001c16.667 21.333 37.667 32 63 32s49.666 -13 72.999 -39c14 -14.667 47 -61.667 99 -141c24.667 -37.333 63.834 -68.333 117.501 -93s109.167 -37 166.5 -37c49.333 0 89.333 9.16699 120 27.5s46 41.833 46 70.5
c0 26.667 -12 49.667 -36 69s-63 37.333 -117 54c-95.333 30 -168 57.5 -218 82.5s-96.667 56.5 -140 94.5c-105.333 93.333 -158 199.333 -158 318c0 58.667 13.667 115.834 41 171.501s66 103.834 116 144.501c112 94 248.667 141 410 141z" />
    <glyph glyph-name="T" unicode="T" horiz-adv-x="1435" 
d="M467 1365h527.001c56.667 2 108.334 9.66699 155.001 23c20 5.33301 37.667 8 53 8c54 0 106.5 -40 157.5 -120s76.5 -162.333 76.5 -247c0 -58 -17.667 -100.333 -53 -127c-26.667 -20 -58.667 -30 -96 -30c-35.333 0 -66 9.83301 -92 29.5s-51.667 52.167 -77 97.5
c-22 41.333 -39.333 68.333 -52 81s-28 19 -46 19c-24.667 0 -42.334 -10.333 -53.001 -31s-16 -54.667 -16 -102v-560c0 -57.333 6 -99 18 -125s34.667 -46 68 -60c36 -15.333 60.5 -29.833 73.5 -43.5s19.5 -32.5 19.5 -56.5c0 -48 -32.5 -83.667 -97.5 -107
s-164.833 -35 -299.5 -35c-165.333 0 -288 13.667 -368 41c-67.333 22.667 -101 59.334 -101 110.001c0 27.333 12 48.666 36 63.999c6 3.33301 29.667 11.333 71 24c25.333 7.33301 42.833 21.333 52.5 42s17.5 60.334 23.5 119.001c5.33301 52 10.333 136.167 15 252.5
s7 217.166 7 302.499c0 60 -4.66699 102.667 -14 128s-24.666 38 -45.999 38c-26 0 -51.333 -18.667 -76 -56c-44.667 -68 -81.334 -113 -110.001 -135c-34 -26 -67 -39 -99 -39c-36 0 -65.667 13.5 -89 40.5s-35 61.5 -35 103.5c0 41.333 9.33301 86.833 28 136.5
s43.667 95.5 75 137.5c50.667 68 100.667 102 150 102c13.333 0 28.666 -2 45.999 -6c36 -7.33301 65.5 -12.333 88.5 -15s49.5 -4 79.5 -4z" />
    <glyph glyph-name="U" unicode="U" horiz-adv-x="1679" 
d="M1506 865l0.00195312 -244.002c0 -147.333 -11 -251.666 -33 -312.999c-47.333 -129.333 -151.333 -223 -312 -281c-97.333 -36 -207.333 -54 -330 -54c-214 0 -385.333 51 -514 153c-62.667 50 -106 108 -130 174s-36 161.333 -36 286c0 48.667 1.66699 128.667 5 240
c2 78.667 3 130.667 3 156c0 55.333 -4.16699 93.666 -12.5 114.999s-26.5 41.333 -54.5 60c-44 28.667 -66 60.667 -66 96c0 26 11.167 49 33.5 69s51.833 33.667 88.5 41c73.333 14.667 160 22 260 22c110 0 201.333 -8.33301 274 -25c71.333 -16 107 -52.333 107 -109
c0 -28 -10.333 -50.333 -31 -67c-4.66699 -4 -24.667 -14.333 -60 -31c-21.333 -9.33301 -35.833 -26.333 -43.5 -51s-11.5 -65.334 -11.5 -122.001c0 -58 -2.66699 -183.333 -8 -376c-3.33301 -114.667 27.667 -202 93 -262c53.333 -49.333 122 -74 206 -74
c53.333 0 101.666 9.83301 144.999 29.5s76.333 46.5 99 80.5c18 26 30.333 55 37 87s10 75.667 10 131v220c-3.33301 168.667 -8.16602 267.5 -14.499 296.5s-27.833 51.833 -64.5 68.5c-34.667 15.333 -58.334 29.333 -71.001 42s-19 28.334 -19 47.001
c0 40 23.833 69.167 71.5 87.5s124.167 27.5 229.5 27.5c103.333 0 178.166 -9 224.499 -27s69.5 -46.667 69.5 -86c0 -19.333 -4 -33.666 -12 -42.999s-29 -23.666 -63 -42.999c-35.333 -20 -55.5 -41.5 -60.5 -64.5s-8.16699 -108.5 -9.5 -256.5z" />
    <glyph glyph-name="V" unicode="V" horiz-adv-x="1644" 
d="M1417 1055l-459.001 -928.999c-28 -57.333 -54.667 -96.833 -80 -118.5s-57.333 -32.5 -96 -32.5c-32 0 -60.667 7 -86 21c-19.333 10.667 -34.5 23.167 -45.5 37.5s-24.833 40.166 -41.5 77.499l-409 901c-22.667 50.667 -43.167 85.167 -61.5 103.5
s-44.5 30.5 -78.5 36.5c-40 7.33301 -60 32 -60 74c0 51.333 35 90.833 105 118.5s170.333 41.5 301 41.5c136 0 236 -10.333 300 -31s96 -52.667 96 -96c0 -28 -17.333 -54 -52 -78c-26.667 -18 -40 -35 -40 -51c0 -14.667 6 -35.667 18 -63l125 -282
c18 -41.333 38.333 -62 61 -62c22 0 41.667 11 59 33s40.666 65.333 69.999 130c52.667 116 83.334 184.5 92.001 205.5s13 37.167 13 48.5c0 22.667 -15.667 42 -47 58c-34.667 18 -52 41 -52 69c0 79.333 106.333 119 319 119c106 0 180.833 -8.5 224.5 -25.5
s65.5 -46.167 65.5 -87.5c0 -49.333 -28.667 -77.666 -86 -84.999c-40.667 -4.66699 -67 -11.334 -79 -20.001c-21.333 -15.333 -46.666 -53 -75.999 -113z" />
    <glyph glyph-name="W" unicode="W" horiz-adv-x="2129" 
d="M929 1010l-29 70c-18 40.667 -40.333 67.667 -67 81c-48 25.333 -72 57.333 -72 96c0 85.333 128 128 384 128c128 0 225.333 -10.333 292 -31c22.667 -7.33301 40.834 -19 54.501 -35s20.5 -33.667 20.5 -53c0 -16.667 -3.16699 -29.334 -9.5 -38.001
s-23.833 -25.667 -52.5 -51c-16.667 -14 -25 -28.667 -25 -44c0 -23.333 12.667 -62 38 -116l57 -122c26 -55.333 44.5 -90.5 55.5 -105.5s23.5 -22.5 37.5 -22.5c15.333 0 28.5 8.66699 39.5 26s25.167 51.333 42.5 102l48 140c13.333 40 20 70 20 90
c0 26.667 -14 44.334 -42 53.001c-56 18 -84 50 -84 96c0 40 21.667 68.667 65 86s114.666 26 213.999 26c64.667 0 115 -7.33301 151 -22c50 -20 75 -52 75 -96c0 -19.333 -4.5 -36 -13.5 -50s-27.167 -32.667 -54.5 -56c-18 -15.333 -31.833 -31.666 -41.5 -48.999
s-24.5 -53 -44.5 -107l-175 -465c-87.333 -216.667 -140 -345.667 -158 -387s-36.667 -78.333 -56 -111c-14.667 -24 -31 -40.833 -49 -50.5s-42 -14.5 -72 -14.5c-40 0 -72.167 8.66699 -96.5 26s-44.833 46 -61.5 86l-198 470c-10.667 26 -18.667 42.333 -24 49
s-12.666 10 -21.999 10c-14 0 -26 -8.33301 -36 -25s-29 -59.667 -57 -129l-136 -338c-25.333 -61.333 -49.5 -101.833 -72.5 -121.5s-57.833 -29.5 -104.5 -29.5c-42 0 -75.167 10 -99.5 30s-46.5 55.333 -66.5 106l-368 941c-15.333 38.667 -25.833 61.5 -31.5 68.5
s-23.5 18.5 -53.5 34.5c-34 17.333 -51 46.666 -51 87.999c0 94 116.667 141 350 141c119.333 0 205.666 -8.33301 258.999 -25c51.333 -16.667 77 -49.667 77 -99c0 -15.333 -1.33301 -26.5 -4 -33.5s-12.334 -22.5 -29.001 -46.5c-8 -12.667 -12 -28.334 -12 -47.001
c0 -33.333 22.333 -102.666 67 -207.999l41 -96c17.333 -40 28.833 -64.167 34.5 -72.5s13.834 -12.5 24.501 -12.5c26 0 52.667 37 80 111l41 114c3.33301 8 5 14.333 5 19c0 5.33301 -1.66699 12.333 -5 21z" />
    <glyph glyph-name="X" unicode="X" horiz-adv-x="1628" 
d="M1039 800l381.997 -479.005c22.667 -28 40.334 -47 53.001 -57s30.667 -18.667 54 -26c36.667 -12 62.5 -25.667 77.5 -41s22.5 -35.666 22.5 -60.999c0 -24 -8.33301 -46.5 -25 -67.5s-38 -36.5 -64 -46.5c-40 -15.333 -90 -26.166 -150 -32.499
s-143.333 -9.5 -250 -9.5c-114 0 -199.333 6.33301 -256 19c-33.333 8 -59.666 21 -78.999 39s-29 38.333 -29 61c0 28.667 13.333 52 40 70c26.667 17.333 40 32 40 44c0 33.333 -38.667 101 -116 203c-10 12.667 -18.667 19 -26 19
c-6.66699 0 -14.334 -5.33301 -23.001 -16c-32 -38.667 -60.167 -77.334 -84.5 -116.001s-36.5 -63.667 -36.5 -75c0 -10.667 13.667 -26.667 41 -48c26.667 -20 40 -45.333 40 -76c0 -46 -26 -77 -78 -93c-68 -21.333 -149 -32 -243 -32c-106.667 0 -188.667 9 -246 27
c-23.333 7.33301 -43 21 -59 41s-24 41 -24 63c0 29.333 9.83301 52.333 29.5 69s47.834 25.667 84.501 27c44 1.33301 81.333 14.5 112 39.5s84 85.5 160 181.5l155 194c8.66699 10.667 13 19 13 25c0 4 -4.33301 11.333 -13 22l-256 327c-40 52 -66.333 83.667 -79 95
s-33 21.333 -61 30c-40 12.667 -66 24.334 -78 35.001c-22.667 20.667 -34 45.334 -34 74.001c0 60 47.333 100.667 142 122c100 22.667 213 34 339 34c132.667 0 222.667 -8.66699 270 -26c20.667 -7.33301 37.334 -20 50.001 -38s19 -37.667 19 -59
c0 -33.333 -12.333 -58.666 -37 -75.999c-15.333 -10.667 -24.5 -17.667 -27.5 -21s-4.5 -8.66602 -4.5 -15.999c0 -15.333 12.333 -39 37 -71s43 -48 55 -48c10.667 0 30 17 58 51s42 57.667 42 71c0 8 -1.83301 14 -5.5 18s-16.5 14.333 -38.5 31
c-20 14.667 -30 36.667 -30 66c0 42 26 72.333 78 91s136.667 28 254 28c86 0 152.333 -7 199 -21c58.667 -17.333 88 -52 88 -104c0 -34.667 -15 -60.667 -45 -78c-12 -6.66699 -43.333 -11.667 -94 -15c-33.333 -2.66699 -67.5 -17.334 -102.5 -44.001
s-75.833 -69.667 -122.5 -129l-118 -148c-8.66699 -11.333 -13 -19.666 -13 -24.999c0 -4 4.33301 -11.333 13 -22z" />
    <glyph glyph-name="Y" unicode="Y" horiz-adv-x="1597" 
d="M439 1386c130.667 0 230.335 -6.99805 299.002 -20.998c31.333 -6 56.5 -17.833 75.5 -35.5s28.5 -37.834 28.5 -60.501c0 -17.333 -7.33301 -35 -22 -53c-21.333 -27.333 -32 -47 -32 -59c0 -24 19 -62.333 57 -115c24.667 -34 48 -51 70 -51
c14 0 27.667 5.16699 41 15.5s30.666 28.833 51.999 55.5c26 32.667 39 58.667 39 78c0 12 -1.5 21 -4.5 27s-13.833 20.333 -32.5 43c-13.333 15.333 -20 36 -20 62c0 75.333 102 113 306 113c115.333 0 190.333 -5.33301 225 -16c22 -6.66699 40.167 -19.334 54.5 -38.001
s21.5 -38.667 21.5 -60c0 -27.333 -8.33301 -48 -25 -62s-45.667 -24.667 -87 -32c-38 -7.33301 -71 -21.833 -99 -43.5s-79.333 -72.5 -154 -152.5c-90.667 -98 -147.167 -170.167 -169.5 -216.5s-33.5 -115.5 -33.5 -207.5c0 -77.333 3 -149 9 -215
c3.33301 -40.667 9.66602 -68.834 18.999 -84.501s28.666 -31.167 57.999 -46.5c48.667 -25.333 73 -57 73 -95c0 -90.667 -134 -136 -402 -136c-110 0 -214 10.667 -312 32c-82.667 18 -124 53.667 -124 107c0 41.333 25.333 71 76 89c38 13.333 61.667 30.333 71 51
c21.333 46 32 154.667 32 326c0 53.333 -5.33301 94.833 -16 124.5s-34 68.167 -70 115.5c-75.333 98 -153 186.333 -233 265c-34.667 34 -68 57 -100 69c-45.333 16.667 -72.666 29 -81.999 37c-18.667 16 -28 37.333 -28 64c0 44.667 33.667 76.834 101 96.501
s180 29.5 338 29.5z" />
    <glyph glyph-name="Z" unicode="Z" horiz-adv-x="1405" 
d="M1255 1207l-442.003 -762.004c-50 -86.667 -75 -138.667 -75 -156c0 -30.667 45.333 -46 136 -46c35.333 0 71 3.83301 107 11.5s62.333 16.834 79 27.501c34 22.667 67.667 70.667 101 144c13.333 28.667 26.333 48.334 39 59.001s29.667 16 51 16
c46.667 0 81.667 -13.167 105 -39.5s35 -65.5 35 -117.5c0 -106.667 -28 -199.667 -84 -279c-39.333 -55.333 -76.666 -83 -111.999 -83c-10 0 -23.333 1.33301 -40 4c-48.667 9.33301 -94.667 14 -138 14h-869c-39.333 0 -62.833 0.666992 -70.5 2s-15.5 6 -23.5 14
c-13.333 14 -20 32.667 -20 56c0 21.333 9.33301 48 28 80l515 873c15.333 26 23 44 23 54c0 38 -38 57 -114 57c-65.333 0 -112.5 -10.667 -141.5 -32s-61.833 -69.666 -98.5 -144.999c-28 -58 -60.333 -87 -97 -87c-35.333 0 -66.666 16.333 -93.999 49
s-41 70.334 -41 113.001c0 68 28.333 149.667 85 245c40 66.667 72.333 100 97 100c6 0 14.667 -2 26 -6c40 -14 128.333 -21 265 -21c61.333 0 201.666 6.66699 420.999 20c186.667 10.667 282.334 16 287.001 16c28.667 0 51.834 -8.33301 69.501 -25
s26.5 -38.667 26.5 -66c0 -18 -12 -48 -36 -90z" />
    <glyph glyph-name="bracketleft" unicode="[" horiz-adv-x="1021" 
d="M626 1050l0.000976562 -1123c0 -62 7.33301 -101.333 22 -118s49.667 -25 105 -25c15.333 0 40 1.66699 74 5c18.667 2 34.667 3 48 3c28 0 50.5 -6.33301 67.5 -19s25.5 -29.334 25.5 -50.001c0 -17.333 -5.83301 -34.166 -17.5 -50.499s-26.167 -27.833 -43.5 -34.5
c-45.333 -18 -149.333 -27 -312 -27c-151.333 0 -242 9.66699 -272 29c-47.333 30 -71 125.667 -71 287v1136c0 162.667 22 259.667 66 291c30 21.333 118.333 32 265 32c118 0 206.333 -4.33301 265 -13c77.333 -11.333 116 -43 116 -95c0 -48 -35 -72 -105 -72
c-8.66699 0 -30.334 1.33301 -65.001 4c-21.333 1.33301 -42.333 2 -63 2c-48 0 -77.5 -8.5 -88.5 -25.5s-16.5 -62.5 -16.5 -136.5z" />
    <glyph glyph-name="backslash" unicode="\" horiz-adv-x="966" 
d="M639 48l-361 819.999c-36.667 87.333 -94.334 206.333 -173.001 357c-16.667 31.333 -25 58.333 -25 81c0 52.667 55.333 79 166 79c30 0 52 -6.16699 66 -18.5s27.667 -36.833 41 -73.5c10 -29.333 25.333 -68.333 46 -117l93 -228l360 -823
c29.333 -67.333 60.333 -132.666 93 -195.999c52.667 -100.667 83.334 -160.667 92.001 -180s13 -37 13 -53c0 -28 -18.333 -49.333 -55 -64c-32.667 -14 -67 -21 -103 -21c-40 0 -71.333 18.333 -94 55c-9.33301 15.333 -29.666 64.333 -60.999 147
c-16.667 46 -49.334 124.333 -98.001 235z" />
    <glyph glyph-name="bracketright" unicode="]" horiz-adv-x="1021" 
d="M396 -54l-0.000976562 1123c0 62.667 -7.33301 102.334 -22 119.001s-49.667 25 -105 25c-16 0 -40.667 -2 -74 -6c-18.667 -2 -34.667 -3 -48 -3c-28 0 -50.5 6.33301 -67.5 19s-25.5 29.334 -25.5 50.001c0 18 5.83301 35.167 17.5 51.5s26.167 27.833 43.5 34.5
c45.333 18 149.333 27 312 27c151.333 0 242 -9.66699 272 -29c47.333 -30 71 -126 71 -288v-1135c0 -162.667 -22 -259.667 -66 -291c-30 -21.333 -118.333 -32 -265 -32c-117.333 0 -205.666 4.33301 -264.999 13c-77.333 11.333 -116 43 -116 95c0 48 35 72 105 72
c10 0 31.667 -1.33301 65 -4c22.667 -1.33301 43.667 -2 63 -2c48 0 77.5 8.5 88.5 25.5s16.5 62.167 16.5 135.5z" />
    <glyph glyph-name="asciicircum" unicode="^" horiz-adv-x="1024" 
d="M387 671h-388l266 706h494l266 -706h-387l-125 405z" />
    <glyph glyph-name="underscore" unicode="_" horiz-adv-x="1024" 
d="M0 -109h1024v-257h-1024v257z" />
    <glyph glyph-name="grave" unicode="`" horiz-adv-x="1024" 
d="M395 1430c47.333 0 86.167 -5.49902 116.5 -16.499s45.5 -25.167 45.5 -42.5c0 -5.33301 -3.33301 -14.333 -10 -27c-3.33301 -6 -5 -12 -5 -18c0 -9.33301 3.33301 -17.5 10 -24.5s25 -21.5 55 -43.5c33.333 -25.333 53.5 -42.5 60.5 -51.5s10.5 -22.5 10.5 -40.5
c0 -49.333 -34.333 -74 -103 -74c-122 0 -233.333 39 -334 117c-56.667 43.333 -85 80.666 -85 111.999s22.667 57.333 68 78s102.333 31 171 31z" />
    <glyph glyph-name="a" unicode="a" horiz-adv-x="1161" 
d="M609 997c116 0 214.336 -29.334 295.003 -88.001c42.667 -31.333 72.5 -67.166 89.5 -107.499s25.5 -95.833 25.5 -166.5l-2 -149c0 -103.333 7.33301 -170.333 22 -201c7.33301 -14.667 14.333 -24 21 -28s20.667 -7.66699 42 -11s32 -17.333 32 -42
c0 -32 -12.833 -65.333 -38.5 -100s-58.834 -63.667 -99.501 -87c-50 -29.333 -102.333 -44 -157 -44c-70 0 -125.333 24 -166 72c-14 17.333 -27 26 -39 26c-13.333 0 -31 -8.33301 -53 -25c-66.667 -48.667 -142.334 -73 -227.001 -73c-87.333 0 -158 18.667 -212 56
c-35.333 24.667 -63.333 56.834 -84 96.501s-31 81.167 -31 124.5c0 69.333 28 130.666 84 183.999c87.333 84 218 126.333 392 127c38.667 0 63 3.83301 73 11.5s15 25.5 15 53.5c0 70.667 -7.33301 121.834 -22 153.501s-38.667 47.5 -72 47.5c-20 0 -37.833 -6 -53.5 -18
s-35.167 -34 -58.5 -66c-59.333 -84.667 -121.333 -127 -186 -127c-32.667 0 -59.334 9.66699 -80.001 29s-31 44.666 -31 75.999c0 32 12.833 64 38.5 96s60.5 60 104.5 84c120.667 64 246.667 96 378 96zM542.003 417.999c-29.333 0 -54.832 -12.002 -76.499 -36.002
s-32.5 -52.667 -32.5 -86c0 -32 7.66699 -57.833 23 -77.5s35.666 -29.5 60.999 -29.5c53.333 0 80 45 80 135c0 36.667 -3.83301 61.334 -11.5 74.001s-22.167 19.334 -43.5 20.001z" />
    <glyph glyph-name="b" unicode="b" horiz-adv-x="1295" 
d="M582 1305l-12.999 -390.002v-22c0 -13.333 4.33301 -20 13 -20c4.66699 0 18 9 40 27c78 64 164 96 258 96c93.333 0 175.666 -33.667 246.999 -101c89.333 -84.667 134 -195 134 -331c0 -194 -72.333 -349 -217 -465c-104 -84 -226 -126 -366 -126
c-69.333 0 -131.833 8.83301 -187.5 26.5s-116.5 47.834 -182.5 90.501c-10 6 -18 9 -24 9c-7.33301 0 -28 -6.33301 -62 -19c-17.333 -6.66699 -37.666 -10 -60.999 -10c-41.333 0 -62 13.333 -62 40c0 8.66699 1.66699 18.667 5 30c13.333 43.333 22.333 97 27 161
s7 165.333 7 304v276c0 68.667 -2.66699 111.667 -8 129s-20.333 31 -45 41c-34.667 14.667 -58.667 29.167 -72 43.5s-20 32.5 -20 54.5c0 44.667 47.667 88.334 143 131.001c52 22.667 116.833 42.5 194.5 59.5s144.167 25.5 199.5 25.5c35.333 0 52.666 -20 51.999 -60z
M668.001 694.998c-36 0 -61.998 -12.332 -77.998 -36.999c-12.667 -18.667 -19 -56.667 -19 -114c0 -156.667 5.33301 -262.334 16 -317.001c9.33301 -50.667 37.666 -76 84.999 -76c48.667 0 85.667 20.667 111 62s38 101.333 38 180c0 116 -21.333 200.667 -64 254
c-24.667 30.667 -54.334 46.667 -89.001 48z" />
    <glyph glyph-name="c" unicode="c" horiz-adv-x="1078" 
d="M608 996c118.667 0 223.333 -29.668 314 -89.001c86 -56.667 129 -127 129 -211c0 -58 -20 -105 -60 -141c-37.333 -34 -82.333 -51 -135 -51c-55.333 0 -97 20 -125 60c-8.66699 12.667 -21.334 45 -38.001 97c-18 56 -52.333 84 -103 84c-36.667 0 -67.5 -16 -92.5 -48
s-37.5 -71.333 -37.5 -118c0 -80 28.667 -151 86 -213c46.667 -50 105.334 -75 176.001 -75c33.333 0 61.333 2.83301 84 8.5s52.334 17.167 89.001 34.5c9.33301 4.66699 19.666 7 30.999 7c22.667 0 42.667 -10.667 60 -32s26 -46.333 26 -75
c0 -30 -12.333 -61.5 -37 -94.5s-57 -61.833 -97 -86.5c-86.667 -53.333 -189 -80 -307 -80c-137.333 0 -254.333 40 -351 120c-124 101.333 -186 230.333 -186 387c0 150.667 57.667 275.334 173 374.001c110 94.667 243.667 142 401 142z" />
    <glyph glyph-name="d" unicode="d" horiz-adv-x="1332" 
d="M1207 1285l0.00195312 -912.998c0 -52 2.16699 -85.333 6.5 -100s16.5 -29 36.5 -43c24 -16.667 40.167 -31.334 48.5 -44.001s12.5 -28 12.5 -46c0 -53.333 -53.667 -94 -161 -122c-96.667 -24.667 -193.334 -37 -290.001 -37c-21.333 0 -35.166 3.16699 -41.499 9.5
s-10.5 21.5 -12.5 45.5c-3.33301 34 -15.333 51 -36 51c-11.333 0 -29 -10 -53 -30c-68 -55.333 -143.667 -83 -227 -83c-103.333 0 -196.333 38.333 -279 115c-48.667 46 -88 99 -118 159c-40 78 -60 157 -60 237c0 94 26 184.667 78 272
c48 80.667 113.333 142.667 196 186c69.333 36 137.666 54 204.999 54c77.333 0 146.666 -17.333 207.999 -52c10 -5.33301 18 -8 24 -8c21.333 0 32 28.667 32 86c0 24.667 -5.83301 43.5 -17.5 56.5s-32.5 24.167 -62.5 33.5c-42 13.333 -63 36.666 -63 69.999
c0 48.667 48.333 86.667 145 114c170.667 47.333 285 71 343 71c57.333 0 86 -27.333 86 -82zM664.002 782.002c-43.333 0 -77.667 -23 -103 -69c-34 -61.333 -51 -142 -51 -242c0 -90.667 16.333 -159 49 -205c23.333 -33.333 55 -50 95 -50
c43.333 0 74.833 25.167 94.5 75.5s29.5 131.5 29.5 243.5c0 102.667 -11.667 171 -35 205c-18 26.667 -44.333 40.667 -79 42z" />
    <glyph glyph-name="e" unicode="e" horiz-adv-x="1086" 
d="M962 448h-470.002c-20.667 0 -31 -9 -31 -27c0 -43.333 23.5 -84.166 70.5 -122.499s97.5 -57.5 151.5 -57.5c32 0 67.5 6.16699 106.5 18.5s71.167 27.5 96.5 45.5c22.667 16 40.667 24 54 24c17.333 0 34.333 -10.667 51 -32s25 -43.333 25 -66
c0 -48 -30 -94.333 -90 -139c-106 -79.333 -228.333 -119 -367 -119c-140 0 -257.333 40.667 -352 122c-46 40 -84 88.333 -114 145c-39.333 75.333 -59 154.666 -59 237.999c0 112 34 212.667 102 302c58.667 77.333 133.334 135 224.001 173c68 28.667 141.667 43 221 43
c126.667 0 234.334 -36 323.001 -108c44.667 -36 80.667 -78.667 108 -128c31.333 -56 47 -110.667 47 -164c0 -43.333 -9 -78.833 -27 -106.5s-41.333 -41.5 -70 -41.5zM517.998 635h100.999c42.667 0 64 19.667 64 59c0 36 -10.333 65.333 -31 88s-47.667 34 -81 34
c-37.333 0 -66.666 -14.667 -87.999 -44c-20 -27.333 -30 -55 -30 -83c0 -20 4.83301 -34 14.5 -42s26.5 -12 50.5 -12z" />
    <glyph glyph-name="f" unicode="f" horiz-adv-x="869" 
d="M627 810l124.002 0.000976562c20.667 0 35.5 -3.16699 44.5 -9.5s12.833 -16.833 11.5 -31.5l-8 -119c-1.33301 -24 -5 -39.167 -11 -45.5s-19.333 -9.5 -40 -9.5c-4.66699 0 -15.667 0.666992 -33 2c-12 0.666992 -22 1 -30 1c-28 0 -47 -9.16699 -57 -27.5
s-15 -53.166 -15 -104.499c0 -70 7.66699 -129 23 -177c6 -20.667 14.667 -35.834 26 -45.501s30 -18.167 56 -25.5c58.667 -17.333 88 -49.666 88 -96.999c0 -50 -34.167 -86 -102.5 -108s-180.5 -33 -336.5 -33c-231.333 0 -347 46 -347 138
c0 22.667 4.83301 39.334 14.5 50.001s30.834 23 63.501 37c35.333 16 56.666 45.667 63.999 89c11.333 65.333 17 135.333 17 210c0 33.333 -5.83301 56.5 -17.5 69.5s-32.834 19.167 -63.501 18.5c-36 0 -59 1.83301 -69 5.5s-14.667 12.5 -14 26.5l8 126
c1.33301 20.667 4.83301 33.5 10.5 38.5s21.5 8.16699 47.5 9.5c24.667 1.33301 37 13.333 37 36c0 9.33301 -9 30.666 -27 63.999c-30.667 55.333 -46 110.666 -46 165.999c0 81.333 28 147.666 84 198.999c82 75.333 199.667 113 353 113c126 0 226.667 -29.667 302 -89
c58 -46 87 -99 87 -159c0 -43.333 -14.333 -79.833 -43 -109.5s-64.334 -44.5 -107.001 -44.5c-48 0 -94 16.667 -138 50c-10.667 8.66699 -36 35 -76 79c-28.667 30.667 -57.334 46 -86.001 46c-18.667 0 -34.667 -6.66699 -48 -20s-20 -29.666 -20 -48.999
c0 -52.667 50 -109 150 -169c30.667 -18.667 51.5 -33.334 62.5 -44.001s20.833 -25.667 29.5 -45c4.66699 -8 15.334 -12 32.001 -12z" />
    <glyph glyph-name="g" unicode="g" horiz-adv-x="1184" 
d="M1101 1050c16.667 0 31.332 -9.50195 43.999 -28.502s19 -41.167 19 -66.5c0 -27.333 -8.5 -58.333 -25.5 -93s-37.5 -62.334 -61.5 -83.001c-15.333 -13.333 -23 -24 -23 -32c0 -2 0.666992 -10 2 -24c2 -14 3 -26.667 3 -38c0 -79.333 -26.667 -146 -80 -200
c-48 -48 -109.833 -85.333 -185.5 -112s-158.834 -40 -249.501 -40c-22 0 -43.667 1.33301 -65 4c-17.333 2 -30.666 3 -39.999 3c-35.333 0 -53 -17.667 -53 -53c0 -22.667 11.5 -40.5 34.5 -53.5s54.167 -19.5 93.5 -19.5c26.667 0 66 3.66699 118 11
c109.333 15.333 190 23 242 23c78.667 0 139.667 -13 183 -39c34.667 -20 62.167 -48 82.5 -84s30.5 -74.667 30.5 -116c0 -67.333 -24.667 -132.666 -74 -195.999c-58.667 -74.667 -145 -130 -259 -166c-89.333 -28 -192.666 -42 -309.999 -42c-148 0 -268 22.667 -360 68
c-42.667 21.333 -76.667 49.333 -102 84s-38 70.667 -38 108c0 26 7.16699 50 21.5 72s32.5 37.667 54.5 47c20 8 30 16.667 30 26c0 7.33301 -8.33301 18 -25 32c-53.333 44.667 -80 91 -80 139c0 32 12.833 65 38.5 99s57.5 60.333 95.5 79c16 8 24 16 24 24
c0 9.33301 -10 23.333 -30 42c-68.667 63.333 -103 137.333 -103 222c0 44.667 12.167 87.334 36.5 128.001s58.166 75.334 101.499 104.001c107.333 70 226.333 105 357 105c52 0 110 -6.66699 174 -20c60.667 -12 102.334 -18 125.001 -18c72.667 0 145 28.667 217 86
c16 12 28.333 18 37 18zM557.998 842.998c-33.333 0 -60.167 -12.667 -80.5 -38s-30.5 -59 -30.5 -101c0 -72 11 -129.667 33 -173s51 -65 87 -65c35.333 0 63.333 13.5 84 40.5s31 63.167 31 108.5c0 71.333 -10.833 126.833 -32.5 166.5s-52.167 60.167 -91.5 61.5z
M339.997 -67.002c-16.667 0 -25 -9.66797 -25 -29.001c0 -39.333 21.333 -71.166 64 -95.499s98 -36.5 166 -36.5c65.333 0 116.5 8.66699 153.5 26s55.5 41.666 55.5 72.999c0 16.667 -7 30.834 -21 42.501s-31.333 17.5 -52 17.5c-10.667 0 -26 -1.33301 -46 -4
c-37.333 -6 -79 -9 -125 -9c-34 0 -66.667 1.66699 -98 5c-23.333 2 -42.333 4.66699 -57 8c-6.66699 1.33301 -11.667 2 -15 2z" />
    <glyph glyph-name="h" unicode="h" horiz-adv-x="1390" 
d="M594 1316l-13.001 -419.005c-1.33301 -50 14 -75 46 -75c16 0 31.667 11 47 33c64.667 94 151 141 259 141c106 0 190.333 -32.333 253 -97c28 -28.667 47.833 -62.667 59.5 -102s18.167 -95.666 19.5 -168.999l9 -361c0.666992 -31.333 4.83398 -54.333 12.501 -69
s25.5 -33 53.5 -55c19.333 -15.333 29 -33.666 29 -54.999c0 -72 -108.667 -108 -326 -108c-193.333 0 -290 33.667 -290 101c0 11.333 1.66699 20 5 26s15 22 35 48c28 36.667 42 128.334 42 275.001c0 88.667 -8.33301 153.334 -25 194.001c-22 55.333 -61.333 83 -118 83
c-40.667 0 -70.667 -14.667 -90 -44c-14 -21.333 -21 -61.333 -21 -120v-193c4.66699 -85.333 8.66699 -133.666 12 -144.999s18.666 -32.333 45.999 -63c12.667 -14 19 -30.333 19 -49c0 -75.333 -98 -113 -294 -113c-229.333 0 -344 39 -344 117
c0 18 3.66699 31.833 11 41.5s25.333 24.5 54 44.5c25.333 18 42.833 66.5 52.5 145.5s14.5 209.833 14.5 392.5c0 143.333 -4 242.666 -12 297.999c-2.66699 20.667 -7.5 35.834 -14.5 45.501s-20.167 19.5 -39.5 29.5c-41.333 21.333 -62 46 -62 74
c0 33.333 15.667 60.333 47 81s91.333 43 180 67c120 33.333 215.667 50 287 50c38.667 0 57.334 -16.667 56.001 -50z" />
    <glyph glyph-name="i" unicode="i" horiz-adv-x="730" 
d="M594 927l-0.000976562 -581.002c0 -46 4.16699 -79.667 12.5 -101s25.166 -41 50.499 -59c20.667 -14.667 34.5 -27.167 41.5 -37.5s10.5 -23.5 10.5 -39.5c0 -86 -109 -129 -327 -129c-117.333 0 -210.333 9.33301 -279 28
c-23.333 6.66699 -42.166 18.334 -56.499 35.001s-21.5 35.667 -21.5 57c0 18 3.66699 32 11 42s26 26 56 48c20.667 15.333 35.334 40.333 44.001 75s13 86.334 13 155.001c0 22 -1.5 63.167 -4.5 123.5s-5.16699 95.5 -6.5 105.5c-4 27.333 -22.667 48.333 -56 63
c-41.333 18 -62 44.667 -62 80c0 42 27 73.333 81 94c74.667 28.667 154.667 53 240 73s151.333 30 198 30c36.667 0 55 -20.667 55 -62zM395.999 1365c58 0 104 -10.832 138 -32.499s51 -50.834 51 -87.501c0 -51.333 -25.667 -92 -77 -122
c-81.333 -47.333 -179.666 -71 -294.999 -71c-48.667 0 -87.334 9.33301 -116.001 28c-38.667 24 -58 57.333 -58 100c0 57.333 41 102.333 123 135c83.333 33.333 161.333 50 234 50z" />
    <glyph glyph-name="j" unicode="j" horiz-adv-x="756" 
d="M620 910l0.00292969 -885.997c0 -90 -7 -159.333 -21 -208s-38 -87.334 -72 -116.001c-34.667 -28.667 -79.834 -51.834 -135.501 -69.501s-112.167 -26.5 -169.5 -26.5c-65.333 0 -119.833 13 -163.5 39s-65.5 58.333 -65.5 97c0 17.333 6.16699 32.333 18.5 45
s27.166 19 44.499 19c8 0 18.667 -1 32 -3s21.666 -3 24.999 -3c12 0 22.833 5.66699 32.5 17s14.5 24 14.5 38c0 6.66699 -1 16 -3 28c-4.66699 24.667 -7 47.667 -7 69v635c0 30 -5.16699 53.333 -15.5 70s-28.166 30 -53.499 40c-38 15.333 -57 38.333 -57 69
c0 35.333 15.333 65.833 46 91.5s80.667 49.5 150 71.5c49.333 15.333 109.333 29.666 180 42.999s123 20 157 20c23.333 0 39.666 -6 48.999 -18s14 -32.667 14 -62zM408.003 1365c58 0 103.999 -10.832 137.999 -32.499s51 -50.834 51 -87.501
c0 -51.333 -25.667 -92 -77 -122c-81.333 -47.333 -179.666 -71 -294.999 -71c-48 0 -86.667 9.33301 -116 28c-38.667 24.667 -58 58 -58 100c0 57.333 41 102.333 123 135c83.333 33.333 161.333 50 234 50z" />
    <glyph glyph-name="k" unicode="k" horiz-adv-x="1503" 
d="M617 1316l-8.99805 -313.001c-0.666992 -31.333 -1 -77.333 -1 -138c0 -67.333 1 -107 3 -119c4.66699 -27.333 18.667 -41 42 -41c20 0 50.667 12.833 92 38.5s62 44.834 62 57.501c0 7.33301 -7.33301 20.666 -22 39.999c-10.667 14 -16 27.333 -16 40
c0 72 88.667 108 266 108c92 0 164.667 -9.33301 218 -28c21.333 -7.33301 39 -20 53 -38s21 -37.333 21 -58c0 -30 -14.333 -51 -43 -63c-6 -2.66699 -25.333 -7 -58 -13c-29.333 -5.33301 -67.333 -23.5 -114 -54.5s-70 -53.5 -70 -67.5
c0 -9.33301 28.167 -53.166 84.5 -131.499s108.833 -146.5 157.5 -204.5c31.333 -38 55.833 -64.667 73.5 -80s42.167 -31.666 73.5 -48.999c48 -26 72 -55.667 72 -89c0 -35.333 -15.167 -63 -45.5 -83s-71.833 -30 -124.5 -30h-324
c-40.667 0.666992 -72.334 15.667 -95.001 45l-166 213c-44 56 -70.833 89.333 -80.5 100s-17.834 16 -24.501 16c-8 0 -13.333 -6 -16 -18s-4 -34.667 -4 -68c0 -30 3.33301 -51.833 10 -65.5s22 -30.167 46 -49.5c17.333 -14 26 -34.667 26 -62
c0 -46.667 -24.667 -80.334 -74 -101.001s-130.666 -31 -243.999 -31c-133.333 0 -220 5.66699 -260 17c-22.667 6.66699 -42 20.167 -58 40.5s-24 41.833 -24 64.5c0 25.333 14 47.333 42 66c24 15.333 39.333 27 46 35s12 20.667 16 38
c15.333 93.333 22.666 237.333 21.999 432v219c0 74.667 -3.83301 122.334 -11.5 143.001s-26.5 33 -56.5 37c-54.667 7.33301 -82 30 -82 68c0 25.333 12 48.166 36 68.499s63.333 40.5 118 60.5c174.667 64.667 304 97 388 97c38 0 56.333 -16.333 55 -49z" />
    <glyph glyph-name="l" unicode="l" horiz-adv-x="748" 
d="M609 793v-321.004c0 -142 2.16699 -224.667 6.5 -248s20.833 -41.333 49.5 -54c24.667 -10.667 41.167 -20.667 49.5 -30s12.5 -22.666 12.5 -39.999c0 -22 -7.83301 -42 -23.5 -60s-36.5 -30.667 -62.5 -38c-48 -14.667 -129 -22 -243 -22
c-128.667 0 -219 9.66699 -271 29c-24 8.66699 -43.667 22.167 -59 40.5s-23 37.5 -23 57.5c0 16 4.16699 28.333 12.5 37s26.5 19 54.5 31c26 11.333 42 42.333 48 93c10.667 86.667 16 210 16 370c0 162.667 -4.66699 267.334 -14 314.001s-32.666 81.334 -69.999 104.001
c-28 16 -47.167 31.167 -57.5 45.5s-15.5 31.833 -15.5 52.5c0 32.667 15.667 61.167 47 85.5s81.333 46.833 150 67.5c46 14 105.667 27.333 179 40s126.666 19 159.999 19c52.667 0 79 -32.667 79 -98c0 -21.333 -3.33301 -70.333 -10 -147
c-8.66699 -119.333 -13.667 -228.666 -15 -327.999z" />
    <glyph glyph-name="m" unicode="m" horiz-adv-x="1975" 
d="M523 989c38 0 57.002 -26.999 57.002 -80.999v-17c-0.666992 -10.667 -1 -19.334 -1 -26.001c0 -36 10.667 -54 32 -54c11.333 0 29 14.333 53 43c36 41.333 81.333 74.166 136 98.499s110.667 36.5 168 36.5c111.333 0 188.666 -40.667 231.999 -122
c16.667 -30 30.334 -45 41.001 -45c7.33301 0 24.666 13.333 51.999 40c86.667 84.667 185 127 295 127c86 0 156.333 -23.667 211 -71c57.333 -49.333 86 -123.333 86 -222c0 -21.333 -0.666992 -57.333 -2 -108c-1.33301 -17.333 -2 -69.666 -2 -156.999
c0 -56 -0.333008 -95.333 -1 -118c-0.666992 -14 -1 -24 -1 -30c0 -42.667 13.333 -80 40 -112c16 -19.333 25.833 -32.166 29.5 -38.499s5.5 -14.833 5.5 -25.5c0 -85.333 -100.333 -128 -301 -128c-88.667 0 -160.167 10.667 -214.5 32s-81.5 49.333 -81.5 84
c0 13.333 1.83301 23.5 5.5 30.5s16.5 25.5 38.5 55.5c20.667 27.333 31 118.333 31 273c0 90 -6.33301 152.667 -19 188c-14.667 42 -44 63 -88 63c-22 0 -41.5 -6.83301 -58.5 -20.5s-28.167 -30.834 -33.5 -51.501c-6 -24 -9.33301 -88 -10 -192
c2 -112 5.5 -180 10.5 -204s21.833 -57.333 50.5 -100c6.66699 -10 10 -22.667 10 -38c0 -79.333 -103.667 -119 -311 -119c-124.667 0 -208.667 9.33301 -252 28c-34.667 14.667 -52 40.667 -52 78c0 16.667 2.16699 28.334 6.5 35.001s19.166 22 44.499 46
c14.667 14 24.167 27.167 28.5 39.5s7.5 34.833 9.5 67.5c4.66699 73.333 7 147.333 7 222c0 130.667 -33.333 196 -100 196c-50 0 -79.667 -28 -89 -84c-8 -52.667 -12 -128 -12 -226c0 -73.333 1.5 -121.333 4.5 -144s11.167 -46.334 24.5 -71.001
c16 -28.667 24 -52 24 -70c0 -43.333 -30.333 -73.333 -91 -90c-66 -18 -138.667 -27 -218 -27c-102.667 0 -178 8.16699 -226 24.5s-72 42.166 -72 77.499c0 13.333 3.16699 24.666 9.5 33.999s20.833 24 43.5 44c30 27.333 47.333 65 52 113
c7.33301 82.667 11 168.334 11 257.001c0 63.333 -3.16699 107.5 -9.5 132.5s-19.833 45.167 -40.5 60.5c-20 15.333 -32.833 27 -38.5 35s-8.5 19 -8.5 33c0 44.667 35 80 105 106c168.667 60.667 295 91.334 379 92.001z" />
    <glyph glyph-name="n" unicode="n" horiz-adv-x="1374" 
d="M1251 627l14.002 -351.999c1.33301 -26.667 5.5 -46.334 12.5 -59.001s27.5 -37 61.5 -73c10 -10.667 15 -25.667 15 -45c0 -44 -26.333 -74.667 -79 -92s-146.667 -26 -282 -26c-92 0 -157 8 -195 24c-39.333 16.667 -59 43.667 -59 81c0 13.333 2 23.166 6 29.499
s17.333 21.833 40 46.5c26.667 28 40 121.333 40 280c0 92 -10.667 160 -32 204c-17.333 35.333 -49.333 53 -96 53c-44.667 0 -75.334 -14.333 -92.001 -43s-25 -80.667 -25 -156v-198c0 -39.333 2.5 -66.333 7.5 -81s21.5 -43 49.5 -85c7.33301 -12 11 -25.667 11 -41
c0 -39.333 -27.333 -68.333 -82 -87s-140 -28 -256 -28c-185.333 0 -278 38.333 -278 115c0 16 2.83301 28.167 8.5 36.5s19.167 20.166 40.5 35.499c17.333 12.667 28.333 27.167 33 43.5s9 56.5 13 120.5c4.66699 76 7 155.667 7 239c0 46 -3.5 76.167 -10.5 90.5
s-27.167 31.833 -60.5 52.5c-28.667 18 -43 40 -43 66c0 26.667 11.667 48.5 35 65.5s71.333 38.5 144 64.5c64 22.667 125.667 41.834 185 57.501s100 23.5 122 23.5c20 0 36.833 -7.33301 50.5 -22s20.5 -32 20.5 -52c0 -2 -0.333008 -10.333 -1 -25
c-0.666992 -5.33301 -1 -10 -1 -14c0 -32 13.333 -48 40 -48c16 0 33 12.667 51 38c57.333 82.667 140.666 124 249.999 124c84 0 156 -22 216 -66c42 -31.333 71.333 -68.166 88 -110.499s27 -104.5 31 -186.5z" />
    <glyph glyph-name="o" unicode="o" horiz-adv-x="1233" 
d="M657 997c122 0 229 -31.667 321 -95c66 -45.333 119 -104.333 159 -177c41.333 -76 62 -155.333 62 -238c0 -144.667 -66.333 -267.667 -199 -369c-126.667 -96.667 -271.667 -145 -435 -145c-159.333 0 -288.333 45.333 -387 136c-96 88 -144 202.667 -144 344
c0 157.333 58.667 286 176 386c122.667 105.333 271.667 158 447 158zM577 766c-29.333 0 -52.834 -10.832 -70.501 -32.499s-26.5 -50.5 -26.5 -86.5c0 -40 7.5 -94.5 22.5 -163.5s32.833 -130.167 53.5 -183.5c20.667 -54.667 54.334 -82 101.001 -82
c59.333 0 89 37.667 89 113c0 56 -7.5 119.667 -22.5 191s-33.167 129.333 -54.5 174c-22 45.333 -52.667 68.666 -92 69.999z" />
    <glyph glyph-name="p" unicode="p" horiz-adv-x="1363" 
d="M528 991c40.667 0 65.9971 -3.49707 75.9971 -10.4971s15 -24.5 15 -52.5c0 -24.667 8 -37 24 -37c6.66699 0 29 12.667 67 38c28.667 19.333 65.167 35.5 109.5 48.5s84.5 19.5 120.5 19.5c84.667 0 160.334 -29.333 227.001 -88c50.667 -44.667 90 -101 118 -169
c29.333 -71.333 44 -146.333 44 -225c0 -168 -56.667 -306.333 -170 -415c-87.333 -84.667 -186.666 -127 -297.999 -127c-56.667 0 -115 13.333 -175 40c-12 5.33301 -21.667 8 -29 8c-20 0 -30 -20 -30 -60c0 -52.667 17.667 -90.667 53 -114
c32.667 -22 52.167 -36.833 58.5 -44.5s9.5 -20.5 9.5 -38.5c0 -40 -22.333 -70.833 -67 -92.5s-107.667 -32.5 -189 -32.5c-144.667 0 -271.334 29 -380.001 87c-55.333 29.333 -83 65.666 -83 108.999c0 20 4.16699 35.167 12.5 45.5s24.5 21.166 48.5 32.499
c34.667 16 55.834 45 63.501 87s13.5 162.667 17.5 362c-4.66699 164 -10.667 256 -18 276c-2.66699 6.66699 -6.5 11 -11.5 13s-21.5 5.66699 -49.5 11c-21.333 4 -38.666 13.833 -51.999 29.5s-20 34.5 -20 56.5c0 26.667 9.33301 50.167 28 70.5s49 40.166 91 59.499
c163.333 74 293 111.667 389 113zM626.997 613.003l-15 -274.999c-0.666992 -11.333 -1 -22.333 -1 -33c0 -20.667 9 -37.334 27 -50.001s42 -19 72 -19c92 0 138 75.667 138 227c0 98 -19.333 167 -58 207c-24 24.667 -52.667 37 -86 37c-47.333 0 -73 -31.333 -77 -94z
" />
    <glyph glyph-name="q" unicode="q" horiz-adv-x="1327" 
d="M619 996c44 0 79.5 -1.99805 106.5 -5.99805s79.833 -15.333 158.5 -34c21.333 -4.66699 42 -7 62 -7c24 0 59.333 8.33301 106 25c40.667 14.667 74 22 100 22c58.667 0 88 -23.667 88 -71c0 -24.667 -2.33301 -54.334 -7 -89.001
c-8.66699 -62 -16.334 -158 -23.001 -288s-10 -248.333 -10 -355c0 -132 3.66699 -225.333 11 -280c4 -24.667 8.83301 -42 14.5 -52s18.834 -22.667 39.501 -38c28 -21.333 42 -47.666 42 -78.999c0 -85.333 -88 -128 -264 -128c-133.333 0 -244.333 18.667 -333 56
c-30.667 12.667 -55.5 29.667 -74.5 51s-28.5 43 -28.5 65c0 19.333 4.5 33.666 13.5 42.999s30.833 22.333 65.5 39c39.333 19.333 59 58.666 59 117.999c0 34 -9 51 -27 51c-9.33301 0 -36.666 -11.333 -81.999 -34c-43.333 -21.333 -97.333 -32 -162 -32
c-130.667 0 -235.334 47 -314.001 141c-84 101.333 -126 227 -126 377c0 152.667 54 275 162 367c107.333 91.333 248.333 137.333 423 138zM649 777.002c-28.667 0 -55.333 -15.666 -80 -46.999c-32 -41.333 -48 -104.333 -48 -189c0 -102.667 17.667 -183.667 53 -243
c28.667 -48.667 62.667 -73 102 -73c33.333 0 56 16.667 68 50c12 32.667 18 98.334 18 197.001c0 91.333 -3.33301 156.166 -10 194.499s-19 66.166 -37 83.499c-19.333 17.333 -41.333 26.333 -66 27z" />
    <glyph glyph-name="r" unicode="r" horiz-adv-x="1095" 
d="M505 990c35.333 0 56.835 -5.00195 64.502 -15.002s14.5 -42 20.5 -96c3.33301 -29.333 13.666 -44 30.999 -44c13.333 0 26 9.66699 38 29c53.333 83.333 123 125 209 125c60.667 0 110.334 -19.667 149.001 -59c18.667 -19.333 34 -44.166 46 -74.499
s18 -59.5 18 -87.5c0 -31.333 -7.33301 -63.5 -22 -96.5s-33.667 -60.167 -57 -81.5c-42.667 -40.667 -95 -61 -157 -61c-34 0 -62.5 6 -85.5 18s-53.167 36.333 -90.5 73c-14 14 -27 21 -39 21c-18.667 0 -30.834 -10.5 -36.501 -31.5s-8.5 -65.167 -8.5 -132.5
c0 -100.667 3.66699 -169.334 11 -206.001c4.66699 -20 11.167 -33.833 19.5 -41.5s26.166 -15.5 53.499 -23.5c60 -18 90 -49.333 90 -94c0 -27.333 -9.66699 -51.166 -29 -71.499s-45 -33.833 -77 -40.5c-64 -13.333 -158 -20 -282 -20c-118 0 -207.667 10.333 -269 31
c-54.667 18.667 -82 51 -82 97c0 34.667 20 65.667 60 93c19.333 12.667 32.666 24.167 39.999 34.5s12.333 24.5 15 42.5c10.667 60.667 16 173 16 337c0 30 -3.33301 51.5 -10 64.5s-20 23.5 -40 31.5c-47.333 18.667 -71 45.667 -71 81c0 32 16.333 59.5 49 82.5
s87.334 45.833 164.001 68.5c102.667 30.667 190 46.334 262 47.001z" />
    <glyph glyph-name="s" unicode="s" horiz-adv-x="976" 
d="M438 996c33.333 0 87.665 -7.33203 162.998 -21.999c15.333 -2.66699 28 -4 38 -4c11.333 0 33.333 6 66 18c15.333 6 28.333 9 39 9c30.667 0 61.667 -19.667 93 -59c25.333 -31.333 46 -65.666 62 -102.999s24 -69.666 24 -96.999
c0 -26.667 -9.33301 -48.834 -28 -66.501s-42 -26.5 -70 -26.5c-23.333 0 -44.166 5.66699 -62.499 17s-47.833 36.333 -88.5 75c-42.667 41.333 -78 62 -106 62c-18.667 0 -34.834 -6.83301 -48.501 -20.5s-20.5 -29.834 -20.5 -48.501
c0 -32.667 31.333 -63.334 94 -92.001c112.667 -50.667 199 -106 259 -166c50.667 -50.667 76 -112.667 76 -186c0 -92.667 -40.667 -170 -122 -232c-70 -54 -155.667 -81 -257 -81c-26 0 -73.333 4.33301 -142 13c-64.667 7.33301 -101 11 -109 11
c-8.66699 0 -18.667 -1 -30 -3c-19.333 -2.66699 -33.333 -4 -42 -4c-31.333 0 -56 8 -74 24c-27.333 24.667 -52.666 63.5 -75.999 116.5s-35 98.5 -35 136.5c0 61.333 24 92 72 92c18.667 0 35.834 -6.16699 51.501 -18.5s48.5 -45.166 98.5 -98.499
c27.333 -29.333 50 -49.5 68 -60.5s37.333 -16.5 58 -16.5c22 0 39.667 5.83301 53 17.5s20 27.167 20 46.5c0 30 -25.667 57.333 -77 82c-107.333 52.667 -184.833 107 -232.5 163s-71.5 120.667 -71.5 194c0 79.333 24.333 147.666 73 204.999c69.333 82 164 123 284 123z
" />
    <glyph glyph-name="t" unicode="t" horiz-adv-x="948" 
d="M632 734l-0.000976562 -337.997c0 -40 9.83301 -72.667 29.5 -98s44.834 -38 75.501 -38c26 0 60.333 12 103 36c10 6 20 9 30 9c16 0 30.667 -9.66699 44 -29s20 -40.333 20 -63c0 -41.333 -22.667 -81 -68 -119c-94.667 -80.667 -209.334 -121 -344.001 -121
c-106.667 0 -192.334 30.167 -257.001 90.5s-97 139.833 -97 238.5v462c0 15.333 -1.83301 24.833 -5.5 28.5s-13.167 5.5 -28.5 5.5h-103c-19.333 0 -31.666 3.16699 -36.999 9.5s-8 21.166 -8 44.499v44c0.666992 20 8.33398 34.667 23.001 44l458 288
c11.333 6 25.333 9 42 9h81c16.667 0 27.834 -3.83301 33.501 -11.5s8.5 -22.834 8.5 -45.501v-135c0 -20 3.16699 -33 9.5 -39s19.833 -9 40.5 -9h185c24.667 0 40.667 -4.5 48 -13.5s11 -28.167 11 -57.5v-59c0 -32 -4.66699 -54.167 -14 -66.5s-26.333 -18.5 -51 -18.5
h-181c-18.667 0 -31.334 -3.33301 -38.001 -10s-10 -19.334 -10 -38.001z" />
    <glyph glyph-name="u" unicode="u" horiz-adv-x="1388" 
d="M586 939l-0.000976562 -542.001c0 -116 38.333 -174 115 -174c19.333 0 38.333 5.5 57 16.5s31.667 24.5 39 40.5c14.667 32 22 103.333 22 214c0 109.333 -3.66699 184 -11 224c-2.66699 16.667 -7.33398 28.834 -14.001 36.501s-19.334 16.5 -38.001 26.5
c-38 20 -57 45.333 -57 76c0 41.333 32.667 70 98 86c124 30.667 246.333 46 367 46c67.333 0 101 -35.667 101 -107c0 -7.33301 -0.333008 -22.333 -1 -45c-1.33301 -32 -2.33301 -71 -3 -117v-441c0 -22.667 19.333 -43.334 58 -62.001c32.667 -16 49 -39.333 49 -70
c0 -60 -71 -106.333 -213 -139c-83.333 -19.333 -164 -29 -242 -29c-32 0 -53.833 3.66699 -65.5 11s-18.5 21.666 -20.5 42.999c-3.33301 41.333 -16 62 -38 62c-8 0 -15.333 -1.83301 -22 -5.5s-27 -17.167 -61 -40.5c-67.333 -46 -139.666 -69 -216.999 -69
c-128 0 -218.333 37 -271 111c-44.667 62 -67 166.333 -67 313c0 54.667 0.333008 101.334 1 140.001v46c0 57.333 -5.16699 99.5 -15.5 126.5s-29.166 48.167 -56.499 63.5c-26 13.333 -42.5 24 -49.5 32s-10.5 19 -10.5 33c0 50.667 38.333 84.334 115 101.001
c130.667 28.667 261.334 43 392.001 43c39.333 0 59 -16.667 59 -50z" />
    <glyph glyph-name="v" unicode="v" horiz-adv-x="1285" 
d="M1084 683l-259.001 -504.001c-40 -78 -74 -132.167 -102 -162.5s-58 -45.5 -90 -45.5c-31.333 0 -56.666 11.333 -75.999 34c-40.667 45.333 -76.334 96.666 -107.001 153.999l-284 539c-15.333 29.333 -30.166 50.5 -44.499 63.5s-34.166 22.833 -59.499 29.5
c-50.667 14.667 -76 42 -76 82c0 40.667 31.333 70.334 94 89.001s161.667 28 297 28c113.333 0 196.833 -8.16699 250.5 -24.5s80.5 -41.5 80.5 -75.5c0 -24 -12.667 -47 -38 -69c-16 -14.667 -26.333 -25.667 -31 -33s-7 -16.666 -7 -27.999
c0 -22.667 14.667 -60.334 44 -113.001c29.333 -51.333 56.666 -77 81.999 -77c16.667 0 30.334 6.33301 41.001 19s30 45.334 58 98.001c20.667 38.667 31 68 31 88c0 16 -10.667 35 -32 57c-22.667 24 -34 46.333 -34 67c0 32 21.167 55 63.5 69s111.833 21 208.5 21
c136 0 204 -29.333 204 -88c0 -34 -24.333 -58.667 -73 -74c-38 -12 -63.833 -25 -77.5 -39s-34.834 -49 -63.501 -105z" />
    <glyph glyph-name="w" unicode="w" horiz-adv-x="2025" 
d="M1188 173l-103.003 164.992c-24 37.333 -39.5 59.666 -46.5 66.999s-16.167 11 -27.5 11c-24 0 -48.667 -22 -74 -66l-167 -288c-32 -55.333 -68 -83 -108 -83c-24.667 0 -47.334 8.5 -68.001 25.5s-43 45.833 -67 86.5l-300 499c-50 80.667 -89 133.334 -117 158.001
c-13.333 10.667 -37.666 21 -72.999 31c-14.667 4.66699 -26.834 13.834 -36.501 27.501s-14.5 28.834 -14.5 45.501c0 51.333 39.667 87.333 119 108c80 20 167.333 30 262 30c212.667 0 319 -39.667 319 -119c0 -14.667 -10.333 -37 -31 -67c-4 -6 -6 -12.333 -6 -19
c0 -14.667 15.667 -51 47 -109c34.667 -66 64.667 -99 90 -99c14.667 0 33.334 16.667 56.001 50s34 60.333 34 81s-5 37.167 -15 49.5s-33.667 31.833 -71 58.5c-22.667 16 -34 35 -34 57c0 52 53.333 86 160 102c64.667 10 140.667 15 228 15
c100.667 0 173.334 -8.5 218.001 -25.5s67 -44.5 67 -82.5c0 -15.333 -2.66699 -27.666 -8 -36.999s-19.666 -26 -42.999 -50c-7.33301 -8 -11 -18.333 -11 -31c0 -18 15.333 -56 46 -114c26.667 -50.667 51 -76 73 -76c24 0 54.333 32.333 91 97c26.667 48.667 40 81 40 97
c0 12.667 -10.667 32.334 -32 59.001c-15.333 18.667 -23 39 -23 61c0 34.667 15.667 58.667 47 72c44 19.333 108 29 192 29c56.667 0 107 -4.33301 151 -13c25.333 -5.33301 46 -16.166 62 -32.499s24 -35.166 24 -56.499s-9.33301 -39.333 -28 -54
c-3.33301 -3.33301 -26.666 -12.666 -69.999 -27.999c-24.667 -9.33301 -45 -22.666 -61 -39.999s-35.333 -48.333 -58 -93l-250 -484c-73.333 -141.333 -138 -212 -194 -212c-24 0 -50.5 15.167 -79.5 45.5s-65.5 80.833 -109.5 151.5z" />
    <glyph glyph-name="x" unicode="x" horiz-adv-x="1232" 
d="M351 560l-84.9971 105.995c-36.667 46 -65.334 77 -86.001 93s-46.667 27.333 -78 34c-52.667 11.333 -79 36.666 -79 75.999c0 40.667 33.833 70.834 101.5 90.501s172.167 29.5 313.5 29.5c102.667 0 179 -5.66699 229 -17c55.333 -13.333 83 -40 83 -80
c0 -15.333 -11 -40.333 -33 -75c-4 -6.66699 -6 -13.667 -6 -21c0 -14 10.5 -34.333 31.5 -61s36.833 -40 47.5 -40c12 0 29.667 14.833 53 44.5s35 51.834 35 66.501c0 10.667 -7.33301 26.667 -22 48c-12.667 18.667 -19 33.334 -19 44.001c0 14.667 5.5 29 16.5 43
s24.833 24.333 41.5 31c30 12 80.667 18 152 18c62 0 105 -6 129 -18c33.333 -17.333 50 -42 50 -74c0 -17.333 -4.66699 -30.333 -14 -39s-33 -22 -71 -40c-20.667 -10 -36.334 -21.167 -47.001 -33.5s-47.667 -61.166 -111 -146.499l-69 -104c-8 -11.333 -12 -19 -12 -23
c0 -2.66699 3.66699 -10 11 -22l60 -91c64 -96.667 111.333 -159.667 142 -189c14.667 -14 38.334 -28.333 71.001 -43c30.667 -13.333 46 -36 46 -68c0 -45.333 -28 -76.5 -84 -93.5s-158.333 -25.5 -307 -25.5c-114 0 -193.667 5.33301 -239 16
c-60 14.667 -90 45.667 -90 93c0 28 17.333 50 52 66c19.333 8.66699 29 23.334 29 44.001c0 22 -13.667 52.167 -41 90.5s-48.666 57.166 -63.999 56.499c-16 -0.666992 -39.667 -24.667 -71 -72s-47 -83 -47 -107c0 -11.333 8 -26.666 24 -45.999c14 -16 21 -34 21 -54
c0 -58 -68.333 -87 -205 -87c-74.667 0 -128.334 7.33301 -161.001 22s-49 38.667 -49 72c0 21.333 5.16699 36.833 15.5 46.5s29.5 17.167 57.5 22.5c29.333 5.33301 51.666 17.333 66.999 36s62.666 90.667 141.999 216l72 119c6.66699 10.667 10 18.334 10 23.001
c0 4 -4.33301 11.667 -13 23z" />
    <glyph glyph-name="y" unicode="y" horiz-adv-x="1268" 
d="M991 504l-132.001 -362.996c-32.667 -90 -65.5 -163.5 -98.5 -220.5s-70.5 -105.5 -112.5 -145.5c-86.667 -82.667 -191 -124 -313 -124c-98.667 0 -178.667 26 -240 78c-47.333 40 -71 91 -71 153c0 51.333 16.5 94.5 49.5 129.5s73.5 52.5 121.5 52.5
s86.667 -16 116 -48c14 -14.667 23.333 -27.667 28 -39s11.667 -36.333 21 -75c7.33301 -29.333 24 -44 50 -44c20.667 0 38 9 52 27s21 40.333 21 67c0 31.333 -17.333 83.666 -52 156.999l-241 513c-25.333 53.333 -44.333 86.666 -57 99.999s-40.667 29.666 -84 48.999
c-13.333 5.33301 -24.833 15.833 -34.5 31.5s-14.5 30.834 -14.5 45.501c0 59.333 59 99.666 177 120.999c78.667 14 168.334 21 269.001 21c70.667 0 126.334 -7.33301 167.001 -22c54.667 -19.333 82 -52.333 82 -99c0 -16.667 -7.66699 -36.334 -23 -59.001
c-14.667 -21.333 -22 -40.333 -22 -57c0 -16 3.5 -32.667 10.5 -50s21.833 -46.666 44.5 -87.999c25.333 -46.667 47.666 -70 66.999 -70c20.667 0 42 20.5 64 61.5s33 80.5 33 118.5c0 30.667 -8.33301 55.667 -25 75c-25.333 30 -38 55.667 -38 77
c0 34 22.667 61.167 68 81.5s106 30.5 182 30.5c141.333 0 212 -34 212 -102c0 -24.667 -7.16699 -44.5 -21.5 -59.5s-40.5 -29.167 -78.5 -42.5c-32 -12 -57.333 -32 -76 -60c-29.333 -44.667 -63 -118.334 -101 -221.001z" />
    <glyph glyph-name="z" unicode="z" horiz-adv-x="1053" 
d="M549 971h265c61.333 0 100.5 -1.16699 117.5 -3.5s29.833 -8.16602 38.5 -17.499c11.333 -11.333 17 -26.333 17 -45c0 -24.667 -11 -56.334 -33 -95.001l-265 -471c-22 -39.333 -33 -67 -33 -83c0 -31.333 23.667 -47 71 -47c34 0 61.167 6.83301 81.5 20.5
s39.5 37.5 57.5 71.5c15.333 30.667 28 51.167 38 61.5s22 15.5 36 15.5c29.333 0 53.333 -11.667 72 -35s28 -53.333 28 -90c0 -41.333 -11.333 -85.5 -34 -132.5s-51.334 -86.167 -86.001 -117.5c-26 -23.333 -50.667 -35 -74 -35c-10 0 -23 3.33301 -39 10
c-32.667 14 -71.334 21.333 -116.001 22h-524c-88.667 0 -133 25.667 -133 77c0 11.333 3.33301 23.333 10 36s30 52.334 70 119.001l229 368c42.667 68 64 111 64 129c0 26.667 -28 40 -84 40c-28.667 0 -51.5 -5.5 -68.5 -16.5s-35.167 -31.5 -54.5 -61.5
c-22 -36 -38.833 -59.167 -50.5 -69.5s-27.167 -15.5 -46.5 -15.5c-26 0 -47.333 10.167 -64 30.5s-25 46.166 -25 77.499c0 60 20.333 124.667 61 194c38.667 66 75.667 99 111 99c8 0 18.667 -2.33301 32 -7c36.667 -12.667 65.834 -20 87.501 -22
s102.834 -4.33301 243.501 -7z" />
    <glyph glyph-name="braceleft" unicode="{" horiz-adv-x="1003" 
d="M699 454v-410c0 -66.667 28.667 -100 86 -100s86 -24.667 86 -74c0 -52 -28.333 -78 -85 -78h-189c-194 0 -291 96.667 -291 290v471c0 66 -30 99 -90 99c-54.667 0 -82 25.667 -82 77c0 52 27.333 78 82 78c60 0 90 34.333 90 103v445c0 191.333 97 287 291 287h189
c56.667 0 85 -24.667 85 -74c0 -50.667 -28.667 -76 -86 -76s-86 -33 -86 -99v-389c0 -82 -12 -143 -36 -183c-30.667 -48.667 -84 -77.667 -160 -87v-9c76 -10 129.333 -39.333 160 -88c24 -40 36 -101 36 -183z" />
    <glyph glyph-name="bar" unicode="|" horiz-adv-x="1003" 
d="M387 102l-3.00098 1258c0 44.667 8.83301 73.5 26.5 86.5s49.834 19.5 96.501 19.5c48 0 80.5 -6.83301 97.5 -20.5s25.5 -42.167 25.5 -85.5v-1287c0 -44 -9.16699 -72.5 -27.5 -85.5s-50.166 -19.5 -95.499 -19.5c-46.667 0 -77.334 5.66699 -92.001 17
c-20.667 14.667 -31 43 -31 85z" />
    <glyph glyph-name="braceright" unicode="}" horiz-adv-x="1003" 
d="M376 44l-0.000976562 410c0 84 11.667 145 35 183c28 48.667 80.667 78 158 88v9c-77.333 9.33301 -130 38.333 -158 87c-23.333 38.667 -35 99.667 -35 183v389c0 35.333 -6.16699 60.666 -18.5 75.999s-36.166 23 -71.499 23c-54.667 0 -82 25.333 -82 76
c0 49.333 27.333 74 82 74h193c193.333 0 290 -95.667 290 -287v-445c0 -68.667 28.667 -103 86 -103s86 -26 86 -78c0 -51.333 -28.333 -77 -85 -77c-34 0 -57 -7.66699 -69 -23s-18 -40.666 -18 -75.999v-471c0 -193.333 -96.667 -290 -290 -290h-193
c-54.667 0 -82 26 -82 78c0 49.333 27.333 74 82 74c60 0 90 33.333 90 100z" />
    <glyph glyph-name="asciitilde" unicode="~" horiz-adv-x="1276" 
d="M961 717c120.667 0 181.001 -45 181.001 -135c0 -66 -22.833 -122.833 -68.5 -170.5s-100.834 -71.5 -165.501 -71.5c-58 0 -142.167 22.333 -252.5 67s-176.5 67 -198.5 67c-16.667 0 -25 -10.667 -25 -32c0 -68 -34.333 -102 -103 -102c-58 0 -100 6.66699 -126 20
c-35.333 19.333 -53 56.333 -53 111c0 66 22.167 123.5 66.5 172.5s98.5 73.5 162.5 73.5c58 0 142.167 -23.333 252.5 -70s177.833 -70 202.5 -70c16 0 24 12.333 24 37c0 68.667 34.333 103 103 103z" />
    <glyph glyph-name="dieresis" unicode="&#xa8;" horiz-adv-x="1024" 
 />
    <glyph glyph-name="copyright" unicode="&#xa9;" 
d="M809 1392c134 0 260.664 -35.002 379.997 -105.002s211 -164 275 -282c54.667 -102 82 -209.667 82 -323c0 -133.333 -36.667 -256.666 -110 -369.999s-172 -200.333 -296 -261c-107.333 -52 -221 -78 -341 -78c-139.333 0 -268.666 34.333 -387.999 103
c-121.333 68.667 -214.666 162.667 -279.999 282c-55.333 102 -83 210 -83 324c0 134.667 37 259.334 111 374.001c72.667 112 173.334 198.667 302.001 260c106 50.667 222 76 348 76zM806.997 1257c-170 0 -313.666 -55.334 -430.999 -166.001
c-57.333 -54 -101.333 -116.667 -132 -188c-30.667 -70.667 -46 -144.334 -46 -221.001c0 -108 30 -208.333 90 -301c59.333 -92 139.666 -162.333 240.999 -211c85.333 -41.333 175.333 -62 270 -62c164.667 0 305.667 56 423 168c116.667 112 175 247.333 175 406
c0 108.667 -29.667 209.334 -89 302.001c-57.333 90.667 -136.333 161 -237 211c-79.333 38.667 -167.333 59.334 -264 62.001zM805.998 1073c56 0 109.666 -11.6631 160.999 -34.9961c22.667 -10 38.334 -15 47.001 -15c5.33301 0 15.666 1.66699 30.999 5
c5.33301 1.33301 11 2 17 2c29.333 0 55.333 -18.667 78 -56s34 -80.333 34 -129c0 -34.667 -10 -62.834 -30 -84.501s-46.667 -32.5 -80 -32.5c-36 0 -65 19 -87 57c-26 44.667 -50.667 75 -74 91c-34.667 23.333 -71 35 -109 35c-36.667 0 -65.667 -12.5 -87 -37.5
s-32 -58.833 -32 -101.5c0 -41.333 8.33301 -81.5 25 -120.5s39.334 -70.5 68.001 -94.5c36 -31.333 82 -47 138 -47c65.333 0 116.666 16.667 153.999 50c16 14 29.333 21 40 21c14.667 0 27.334 -6.5 38.001 -19.5s16 -28.167 16 -45.5c0 -22 -6.83301 -46.333 -20.5 -73
s-29.834 -47.334 -48.501 -62.001c-8.66699 -6.66699 -26 -12.334 -52 -17.001c-13.333 -2.66699 -31.666 -9.33398 -54.999 -20.001c-56.667 -25.333 -115.334 -38 -176.001 -38c-99.333 0 -187.666 27.667 -264.999 83c-48 34 -86.333 77.667 -115 131
c-30 55.333 -45 111.333 -45 168c0 55.333 13.333 108.5 40 159.5s63.667 94.5 111 130.5c83.333 63.333 176 95 278 95z" />
    <glyph glyph-name="registered" unicode="&#xae;" 
d="M809 1392c134 0 260.664 -35.002 379.997 -105.002s211 -164 275 -282c54.667 -102 82 -209.667 82 -323c0 -133.333 -36.667 -256.666 -110 -369.999s-172 -200.333 -296 -261c-107.333 -52 -221 -78 -341 -78c-139.333 0 -268.666 34.333 -387.999 103
c-121.333 68.667 -214.666 162.667 -279.999 282c-55.333 102 -83 210 -83 324c0 134.667 37 259.334 111 374.001c72.667 112 173.334 198.667 302.001 260c106 50.667 222 76 348 76zM806.997 1257c-170 0 -313.666 -55.334 -430.999 -166.001
c-57.333 -54 -101.333 -116.667 -132 -188c-30.667 -70.667 -46 -144.334 -46 -221.001c0 -108 30 -208.333 90 -301c59.333 -92 139.666 -162.333 240.999 -211c85.333 -41.333 175.333 -62 270 -62c164.667 0 305.667 56 423 168c116.667 112 175 247.333 175 406
c0 108.667 -29.667 209.334 -89 302.001c-57.333 90.667 -136.333 161 -237 211c-79.333 38.667 -167.333 59.334 -264 62.001zM742.998 624.997c-12.667 0 -20.498 -3.66699 -23.498 -11s-4.5 -27.333 -4.5 -60c0 -39.333 3 -71 9 -95c2 -9.33301 10.667 -18 26 -26
c24.667 -13.333 37 -31 37 -53c0 -25.333 -16.167 -43.333 -48.5 -54s-86.5 -16 -162.5 -16c-143.333 0 -215 27 -215 81c0 16 12.667 32 38 48c22 13.333 35 36.666 39 69.999s6 135 6 305c0 46 -2.5 77.333 -7.5 94s-15.167 28.667 -30.5 36c-30 14 -45 31 -45 51
c0 45.333 44 68 132 68c11.333 0 42.666 -1.66699 93.999 -5c11.333 -0.666992 26 -1 44 -1c33.333 0 78 1.66699 134 5c36 2.66699 61 4 75 4c83.333 0 150 -18 200 -54s75 -84 75 -144c0 -34 -8.83301 -65.167 -26.5 -93.5s-40.834 -48.833 -69.501 -61.5
c-10 -4 -15 -8.66699 -15 -14c0 -6.66699 7.66699 -12.667 23 -18c41.333 -15.333 71.5 -37 90.5 -65s32.5 -70.333 40.5 -127c2.66699 -21.333 6.83398 -35.166 12.501 -41.499s19.5 -12.166 41.5 -17.499c20 -5.33301 30 -20 30 -44c0 -26 -16.5 -46.833 -49.5 -62.5
s-77.167 -23.5 -132.5 -23.5c-71.333 0 -122.333 15.5 -153 46.5s-58.334 94.5 -83.001 190.5c-12.667 55.333 -39.667 84.666 -81 87.999zM716 901.997l-6.99902 -124v-5c-0.666992 -16 6.66602 -24 21.999 -24c31.333 0 53.833 7.33301 67.5 22s20.5 38.667 20.5 72
c0 63.333 -23.333 95 -70 95c-12.667 0 -21.167 -2.5 -25.5 -7.5s-6.83301 -14.5 -7.5 -28.5z" />
    <glyph glyph-name="acute" unicode="&#xb4;" horiz-adv-x="1024" 
 />
    <glyph glyph-name="paragraph" unicode="&#xb6;" horiz-adv-x="1229" 
d="M996 1034l-0.000976562 -1105c0 -50.667 3 -105 9 -163c1.33301 -13.333 2 -24 2 -32c0 -28.667 -18.333 -52.334 -55 -71.001c-19.333 -10.667 -46 -22 -80 -34s-55.333 -18 -64 -18c-24.667 0 -37 15.667 -37 47c0 5.33301 0.333008 12.333 1 21
c3.33301 54 5 120.333 5 199v1220c0 24 -3.16699 39.167 -9.5 45.5s-21.5 9.5 -45.5 9.5h-32c-24.667 0 -40 -3 -46 -9s-9 -21.333 -9 -46v-1169c0 -50.667 3 -105 9 -163c1.33301 -13.333 2 -24 2 -32c0 -28.667 -18.333 -52.334 -55 -71.001
c-19.333 -10 -46 -21.167 -80 -33.5s-55.333 -18.5 -64 -18.5c-24.667 0 -37 15.667 -37 47c0 5.33301 0.333008 12.333 1 21c3.33301 54 5 105.333 5 154v669c0 26 -3.33301 42.167 -10 48.5s-25 10.5 -55 12.5c-36 2 -69.667 9.33301 -101 22
c-76 31.333 -134.333 87 -175 167c-32 63.333 -48 137.666 -48 222.999c0 157.333 52.667 273 158 347c60 42 128.333 63 205 63c26.667 0 92.334 -5.66699 197.001 -17c52 -6 128.333 -9 229 -9c48 0 109 1.33301 183 4c12 0.666992 25.667 1 41 1
c52 0 88.333 -10.333 109 -31c16.667 -16.667 25 -35 25 -55c0 -39.333 -29.667 -67 -89 -83c-40.667 -10.667 -65.667 -24.334 -75 -41.001s-14 -56.667 -14 -120z" />
    <glyph glyph-name="onequarter" unicode="&#xbc;" horiz-adv-x="1914" 
d="M124 675c5.33301 0 19.333 -1.33398 42 -4.00098c10.667 -1.33301 19 -2 25 -2c21.333 0 36.666 11.667 45.999 35c8.66699 20 13 117 13 291c0 19.333 -4.16699 32.5 -12.5 39.5s-23.5 10.5 -45.5 10.5c-5.33301 0 -13.666 -0.333008 -24.999 -1
c-10 -0.666992 -17.667 -1 -23 -1c-16 0 -29.167 4.33301 -39.5 13s-15.5 19.667 -15.5 33c0 22 17 42.667 51 62c40.667 22.667 102.5 42.5 185.5 59.5s161.5 25.5 235.5 25.5c73.333 0 110 -19.333 110 -58c0 -19.333 -15.333 -35.333 -46 -48
c-23.333 -10 -37.333 -24.167 -42 -42.5s-7 -69.5 -7 -153.5c0 -127.333 4.83301 -203 14.5 -227s40.5 -37.333 92.5 -40c44.667 -1.33301 67 -18.666 67 -51.999c0 -31.333 -25.667 -52.333 -77 -63c-71.333 -14.667 -157.333 -22 -258 -22c-86 0 -168 8 -246 24
c-71.333 14.667 -107 37.667 -107 69c0 14 5.83301 26 17.5 36s26.5 15.333 44.5 16zM747 367.999l304 513c80.667 141.333 134.667 240 162 296c16.667 34 32.834 56.833 48.501 68.5s38.167 17.5 67.5 17.5c63.333 0 95 -15.667 95 -47c0 -22 -26 -71.333 -78 -148
c-38 -55.333 -92.667 -143.333 -164 -264l-309 -523c-20 -33.333 -55.333 -96 -106 -188c-43.333 -79.333 -68 -125 -74 -137c-18 -38 -33.833 -63.333 -47.5 -76s-31.834 -19 -54.501 -19c-34 0 -61.833 5 -83.5 15s-32.5 22.667 -32.5 38c0 13.333 7 30 21 50
c18.667 27.333 73.667 114 165 260zM1615 -0.000976562l-436 -0.000976562c-42.667 0 -64 12.667 -64 38c0 10.667 4.5 21 13.5 31s35.5 34.333 79.5 73c65.333 56.667 117 109.667 155 159s57 88 57 116c0 38.667 -20.333 58 -61 58c-19.333 0 -33.666 -2.33301 -42.999 -7
s-31.333 -20.334 -66 -47.001c-10.667 -8 -24 -12 -40 -12c-22.667 0 -43.167 7.83301 -61.5 23.5s-27.5 32.834 -27.5 51.501c0 36.667 29 74.334 87 113.001c94 62 197.667 93 311 93c48 0 93.833 -5.66699 137.5 -17s77.167 -26.333 100.5 -45
c42.667 -34 64 -76.333 64 -127c0 -72 -52.667 -148.333 -158 -229c-35.333 -26.667 -53 -46 -53 -58c0 -8.66699 5 -16.334 15 -23.001s21.667 -10 35 -10c35.333 0 67.666 13 96.999 39c23.333 20 41 30 53 30c43.333 0 65 -31 65 -93
c0 -53.333 -15.333 -102.166 -46 -146.499s-64.667 -66.5 -102 -66.5c-20 0 -37.667 11 -53 33c-6.66699 10 -13.5 16.333 -20.5 19s-19.833 4 -38.5 4z" />
    <glyph glyph-name="onehalf" unicode="&#xbd;" horiz-adv-x="1914" 
d="M124 675c5.33301 0 19.333 -1.33398 42 -4.00098c10.667 -1.33301 19 -2 25 -2c21.333 0 36.666 11.667 45.999 35c8.66699 20 13 117 13 291c0 19.333 -4.16699 32.5 -12.5 39.5s-23.5 10.5 -45.5 10.5c-5.33301 0 -13.666 -0.333008 -24.999 -1
c-10 -0.666992 -17.667 -1 -23 -1c-16 0 -29.167 4.33301 -39.5 13s-15.5 19.667 -15.5 33c0 22 17 42.667 51 62c40.667 22.667 102.5 42.5 185.5 59.5s161.5 25.5 235.5 25.5c73.333 0 110 -19.333 110 -58c0 -19.333 -15.333 -35.333 -46 -48
c-23.333 -10 -37.333 -24.167 -42 -42.5s-7 -69.5 -7 -153.5c0 -127.333 4.83301 -203 14.5 -227s40.5 -37.333 92.5 -40c44.667 -1.33301 67 -18.666 67 -51.999c0 -31.333 -25.667 -52.333 -77 -63c-71.333 -14.667 -157.333 -22 -258 -22c-86 0 -168 8 -246 24
c-71.333 14.667 -107 37.667 -107 69c0 14 5.83301 26 17.5 36s26.5 15.333 44.5 16zM747 367.999l304 513c80.667 141.333 134.667 240 162 296c16.667 34 32.834 56.833 48.501 68.5s38.167 17.5 67.5 17.5c63.333 0 95 -15.667 95 -47c0 -22 -26 -71.333 -78 -148
c-38 -55.333 -92.667 -143.333 -164 -264l-309 -523c-20 -33.333 -55.333 -96 -106 -188c-43.333 -79.333 -68 -125 -74 -137c-18 -38 -33.833 -63.333 -47.5 -76s-31.834 -19 -54.501 -19c-34 0 -61.833 5 -83.5 15s-32.5 22.667 -32.5 38c0 13.333 7 30 21 50
c18.667 27.333 73.667 114 165 260zM1787 665.999v-407.999c0 -16.667 6 -25 18 -25h27c24 0.666992 36.667 -13 38 -41v-120c0 -24.667 -13.333 -38.667 -40 -42c-13.333 -1.33301 -21.333 -3.33301 -24 -6s-4 -9.33398 -4 -20.001v-70
c2 -29.333 -12.667 -44.666 -44 -45.999h-218c-32 1.33301 -47 16.666 -45 45.999v61c0 14.667 -2.66699 24.5 -8 29.5s-16 7.5 -32 7.5h-249c-32 0 -54.667 6.5 -68 19.5s-20 34.833 -20 65.5c0 40 7.33301 73.833 22 101.5s47 69.5 97 125.5l163 180
c76.667 84.667 136.5 141.167 179.5 169.5s89.833 42.5 140.5 42.5c44.667 0 67 -23.333 67 -70zM1505 360l-0.00195312 29.001c0 30.667 -9 46 -27 46c-13.333 0 -26.666 -7.33301 -39.999 -22l-98 -112c-27.333 -30.667 -41 -51 -41 -61s5 -16.167 15 -18.5
s38.333 -4.16602 85 -5.49902l43 -1c23.333 0 38.333 1.66699 45 5s11.334 10.666 14.001 21.999c2.66699 17.333 4 56.666 4 117.999z" />
    <glyph glyph-name="threequarters" unicode="&#xbe;" horiz-adv-x="1914" 
d="M355 1237c92 0 166.166 -14.833 222.499 -44.5s84.5 -68.5 84.5 -116.5c0 -48.667 -25 -89.667 -75 -123c-11.333 -7.33301 -17 -13.666 -17 -18.999c0 -8 10 -13.333 30 -16c56.667 -8 100.5 -28 131.5 -60s46.5 -73 46.5 -123c0 -64.667 -24 -123.334 -72 -176.001
c-39.333 -42.667 -94.5 -75.834 -165.5 -99.501s-151.167 -35.5 -240.5 -35.5c-88 0 -158.667 9.33301 -212 28s-80 43.334 -80 74.001c0 19.333 7.33301 35.5 22 48.5s32.667 19.5 54 19.5c11.333 0 40.333 -5.33301 87 -16c14.667 -3.33301 36.334 -5 65.001 -5
c63.333 0 110.333 17.333 141 52c14.667 17.333 22 34.666 22 51.999c0 27.333 -11.667 49.333 -35 66s-53.666 25 -90.999 25c-22 0 -43 -2.66699 -63 -8c-12.667 -3.33301 -21.667 -5 -27 -5c-12.667 0 -25.5 11 -38.5 33s-19.5 44 -19.5 66
c0 11.333 2.66699 18.833 8 22.5s24.666 10.834 57.999 21.501c28 9.33301 51.833 23.333 71.5 42s29.5 37 29.5 55c0 21.333 -8.83301 39.5 -26.5 54.5s-39.167 22.5 -64.5 22.5c-22 0 -55.667 -10.667 -101 -32c-10 -4.66699 -18.333 -7 -25 -7
c-12 0 -23.5 7.83301 -34.5 23.5s-16.5 31.834 -16.5 48.501c0 33.333 34.333 63.666 103 90.999s144.667 41 228 41zM746.999 368l304 513c80.667 139.333 135 238 163 296c16.667 34 32.834 56.833 48.501 68.5s38.167 17.5 67.5 17.5c63.333 0 95 -15.667 95 -47
c0 -22 -26 -71.333 -78 -148c-39.333 -57.333 -94.333 -145.333 -165 -264l-309 -523c-19.333 -32.667 -54.333 -95.334 -105 -188.001l-75 -137c-18 -38 -33.833 -63.333 -47.5 -76s-31.834 -19 -54.501 -19c-34 0 -61.833 5 -83.5 15s-32.5 22.667 -32.5 38
c0 13.333 7 30 21 50c19.333 28.667 74.333 115.334 165 260.001zM1787 666v-407.999c0 -16.667 6 -25 18 -25h27c25.333 0.666992 38.333 -13 39 -41v-120c0 -25.333 -13.667 -39.333 -41 -42c-13.333 -1.33301 -21.333 -3.33301 -24 -6s-4 -9.33398 -4 -20.001v-70
c2 -29.333 -12.667 -44.666 -44 -45.999h-218c-32 1.33301 -47 16.666 -45 45.999v61c0 14.667 -2.66699 24.5 -8 29.5s-16 7.5 -32 7.5h-249c-32 0 -54.667 6.5 -68 19.5s-20 34.833 -20 65.5c0 40 7.33301 74 22 102s47 69.667 97 125l163 180
c76.667 84 136.5 140.333 179.5 169s89.833 43 140.5 43c44.667 0 67 -23.333 67 -70zM1505 360.001l-0.000976562 29c0 30.667 -9 46 -27 46c-13.333 0 -26.666 -7.33301 -39.999 -22l-98 -112c-27.333 -30.667 -41 -51 -41 -61s5 -16.167 15 -18.5
s38.333 -4.16602 85 -5.49902l43 -1c23.333 0 38.333 1.66699 45 5s11 10.666 13 21.999c3.33301 16.667 5 56 5 118z" />
    <glyph glyph-name="Agrave" unicode="&#xc0;" horiz-adv-x="1693" 
d="M1332 691l189.003 -404.998c18 -37.333 33 -61.833 45 -73.5s30.333 -19.5 55 -23.5c48 -7.33301 72 -31.666 72 -72.999c0 -48.667 -29.333 -83.667 -88 -105s-154.667 -32 -288 -32c-150.667 0 -262.334 6.33301 -335.001 19c-33.333 6 -59.833 18.167 -79.5 36.5
s-29.5 40.5 -29.5 66.5c0 20 5.16699 35.5 15.5 46.5s29.5 21.167 57.5 30.5c31.333 10.667 47 28.667 47 54c0 44.667 -27 71 -81 79c-58 8 -139.667 12 -245 12c-88.667 0 -141.667 -5.33301 -159 -16c-10.667 -6.66699 -20 -18.667 -28 -36s-12 -34 -12 -50
c0 -14.667 2.83301 -24.167 8.5 -28.5s24.167 -11.5 55.5 -21.5c40.667 -12 61 -36 61 -72c0 -79.333 -95 -119 -285 -119c-108 0 -187.333 7.33301 -238 22c-46.667 14 -70 44.667 -70 92c0 20.667 5.16699 36.667 15.5 48s28.833 21.666 55.5 30.999
c43.333 15.333 76.166 36.833 98.499 64.5s54.166 86.834 95.499 177.501l141 309c52 113.333 86.833 198.166 104.5 254.499s26.834 111.5 27.501 165.5c0.666992 57.333 4.16699 97.166 10.5 119.499s20.5 44.166 42.5 65.499c46 46.667 104.667 70 176 70
c67.333 0 131.666 -26.333 192.999 -79c85.333 -72 209.333 -281.667 372 -629zM636.003 565.002l196.001 0.000976562c36 0 54 8 54 24c0 22 -25 76 -75 162c-22.667 39.333 -40 65.666 -52 78.999s-24.667 20 -38 20c-24 0 -44 -22.333 -60 -67
c-2.66699 -6 -12.334 -29.667 -29.001 -71c-28 -68 -42 -108.667 -42 -122c0 -16.667 15.333 -25 46 -25zM701.004 1812c47.333 0 86.166 -5.49902 116.499 -16.499s45.5 -25.167 45.5 -42.5c0 -5.33301 -3.33301 -14.333 -10 -27c-3.33301 -6 -5 -11.667 -5 -17
c0 -10 3.33301 -18.333 10 -25s25 -21 55 -43l20 -16c34 -26 51 -51.333 51 -76c0 -49.333 -34.333 -74 -103 -74c-121.333 0 -232.666 38.667 -333.999 116c-56.667 44 -85 81.333 -85 112c0 31.333 22.5 57.166 67.5 77.499s102.167 30.833 171.5 31.5z" />
    <glyph glyph-name="Aacute" unicode="&#xc1;" horiz-adv-x="1693" 
d="M1332 691l189.003 -404.998c18 -37.333 33 -61.833 45 -73.5s30.333 -19.5 55 -23.5c48 -7.33301 72 -31.666 72 -72.999c0 -48.667 -29.333 -83.667 -88 -105s-154.667 -32 -288 -32c-150.667 0 -262.334 6.33301 -335.001 19c-33.333 6 -59.833 18.167 -79.5 36.5
s-29.5 40.5 -29.5 66.5c0 20 5.16699 35.5 15.5 46.5s29.5 21.167 57.5 30.5c31.333 10.667 47 28.667 47 54c0 44.667 -27 71 -81 79c-58 8 -139.667 12 -245 12c-88.667 0 -141.667 -5.33301 -159 -16c-10.667 -6.66699 -20 -18.667 -28 -36s-12 -34 -12 -50
c0 -14.667 2.83301 -24.167 8.5 -28.5s24.167 -11.5 55.5 -21.5c40.667 -12 61 -36 61 -72c0 -79.333 -95 -119 -285 -119c-108 0 -187.333 7.33301 -238 22c-46.667 14 -70 44.667 -70 92c0 20.667 5.16699 36.667 15.5 48s28.833 21.666 55.5 30.999
c43.333 15.333 76.166 36.833 98.499 64.5s54.166 86.834 95.499 177.501l141 309c52 113.333 86.833 198.166 104.5 254.499s26.834 111.5 27.501 165.5c0.666992 57.333 4.16699 97.166 10.5 119.499s20.5 44.166 42.5 65.499c46 46.667 104.667 70 176 70
c67.333 0 131.666 -26.333 192.999 -79c85.333 -72 209.333 -281.667 372 -629zM636.003 565.002l196.001 0.000976562c36 0 54 8 54 24c0 22 -25 76 -75 162c-22.667 39.333 -40 65.666 -52 78.999s-24.667 20 -38 20c-24 0 -44 -22.333 -60 -67
c-2.66699 -6 -12.334 -29.667 -29.001 -71c-28 -68 -42 -108.667 -42 -122c0 -16.667 15.333 -25 46 -25zM895.004 1812c60.667 0 114.666 -9.00098 161.999 -27.001c23.333 -8.66699 42.333 -21 57 -37s21.667 -32 21 -48c-1.33301 -30 -29.666 -66.333 -84.999 -109
c-100.667 -77.333 -212 -116 -334 -116c-68.667 0 -103 24.667 -103 74c0 17.333 3.5 30.5 10.5 39.5s27.167 26.5 60.5 52.5c30 21.333 48.333 35.5 55 42.5s10 15.5 10 25.5c0 5.33301 -4 15 -12 29c-2.66699 4.66699 -4 9.66699 -4 15c0 17.333 15 31.333 45 42
s69 16.334 117 17.001z" />
    <glyph glyph-name="Acircumflex" unicode="&#xc2;" horiz-adv-x="1693" 
d="M1332 691l189.003 -404.998c18 -37.333 33 -61.833 45 -73.5s30.333 -19.5 55 -23.5c48 -7.33301 72 -31.666 72 -72.999c0 -48.667 -29.333 -83.667 -88 -105s-154.667 -32 -288 -32c-150.667 0 -262.334 6.33301 -335.001 19c-33.333 6 -59.833 18.167 -79.5 36.5
s-29.5 40.5 -29.5 66.5c0 20 5.16699 35.5 15.5 46.5s29.5 21.167 57.5 30.5c31.333 10.667 47 28.667 47 54c0 44.667 -27 71 -81 79c-58 8 -139.667 12 -245 12c-88.667 0 -141.667 -5.33301 -159 -16c-10.667 -6.66699 -20 -18.667 -28 -36s-12 -34 -12 -50
c0 -14.667 2.83301 -24.167 8.5 -28.5s24.167 -11.5 55.5 -21.5c40.667 -12 61 -36 61 -72c0 -79.333 -95 -119 -285 -119c-108 0 -187.333 7.33301 -238 22c-46.667 14 -70 44.667 -70 92c0 20.667 5.16699 36.667 15.5 48s28.833 21.666 55.5 30.999
c43.333 15.333 76.166 36.833 98.499 64.5s54.166 86.834 95.499 177.501l141 309c52 113.333 86.833 198.166 104.5 254.499s26.834 111.5 27.501 165.5c0.666992 57.333 4.16699 97.166 10.5 119.499s20.5 44.166 42.5 65.499c46 46.667 104.667 70 176 70
c67.333 0 131.666 -26.333 192.999 -79c85.333 -72 209.333 -281.667 372 -629zM636.003 565.002l196.001 0.000976562c36 0 54 8 54 24c0 22 -25 76 -75 162c-22.667 39.333 -40 65.666 -52 78.999s-24.667 20 -38 20c-24 0 -44 -22.333 -60 -67
c-2.66699 -6 -12.334 -29.667 -29.001 -71c-28 -68 -42 -108.667 -42 -122c0 -16.667 15.333 -25 46 -25zM793.004 1840c22 0 57.668 -13.833 107.001 -41.5s100 -61.834 152 -102.501c46.667 -36.667 78.834 -65.667 96.501 -87s26.5 -41.666 26.5 -60.999
c0 -20 -7.33301 -37.667 -22 -53s-31.667 -23 -51 -23c-26 0 -81 20 -165 60c-66 31.333 -114.667 47 -146 47c-18.667 0 -34.667 -2.5 -48 -7.5s-44 -20.167 -92 -45.5c-70.667 -37.333 -121.334 -56 -152.001 -56c-22.667 0 -41.167 7.5 -55.5 22.5s-21.5 34.5 -21.5 58.5
c0 22 11 45.833 33 71.5s60.333 59.167 115 100.5c103.333 78 177.666 117 222.999 117z" />
    <glyph glyph-name="Atilde" unicode="&#xc3;" horiz-adv-x="1693" 
d="M1332 691l189.003 -404.998c18 -37.333 33 -61.833 45 -73.5s30.333 -19.5 55 -23.5c48 -7.33301 72 -31.666 72 -72.999c0 -48.667 -29.333 -83.667 -88 -105s-154.667 -32 -288 -32c-150.667 0 -262.334 6.33301 -335.001 19c-33.333 6 -59.833 18.167 -79.5 36.5
s-29.5 40.5 -29.5 66.5c0 20 5.16699 35.5 15.5 46.5s29.5 21.167 57.5 30.5c31.333 10.667 47 28.667 47 54c0 44.667 -27 71 -81 79c-58 8 -139.667 12 -245 12c-88.667 0 -141.667 -5.33301 -159 -16c-10.667 -6.66699 -20 -18.667 -28 -36s-12 -34 -12 -50
c0 -14.667 2.83301 -24.167 8.5 -28.5s24.167 -11.5 55.5 -21.5c40.667 -12 61 -36 61 -72c0 -79.333 -95 -119 -285 -119c-108 0 -187.333 7.33301 -238 22c-46.667 14 -70 44.667 -70 92c0 20.667 5.16699 36.667 15.5 48s28.833 21.666 55.5 30.999
c43.333 15.333 76.166 36.833 98.499 64.5s54.166 86.834 95.499 177.501l141 309c52 113.333 86.833 198.166 104.5 254.499s26.834 111.5 27.501 165.5c0.666992 57.333 4.16699 97.166 10.5 119.499s20.5 44.166 42.5 65.499c46 46.667 104.667 70 176 70
c67.333 0 131.666 -26.333 192.999 -79c85.333 -72 209.333 -281.667 372 -629zM636.003 565.002l196.001 0.000976562c36 0 54 8 54 24c0 22 -25 76 -75 162c-22.667 39.333 -40 65.666 -52 78.999s-24.667 20 -38 20c-24 0 -44 -22.333 -60 -67
c-2.66699 -6 -12.334 -29.667 -29.001 -71c-28 -68 -42 -108.667 -42 -122c0 -16.667 15.333 -25 46 -25zM576.004 1822c24.667 1.33301 48.835 -1.33301 72.502 -8s63.167 -22 118.5 -46c56.667 -24.667 91 -39 103 -43c26 -9.33301 40 -14.333 42 -15
c13.333 -6 23.666 -9 30.999 -9c16.667 0 26 8.66699 28 26v33c0 17.333 9.5 32.5 28.5 45.5s41.5 19.5 67.5 19.5c40 0 71.667 -12.667 95 -38s35 -59.333 35 -102c0 -54 -18.167 -101.167 -54.5 -141.5s-78.833 -60.5 -127.5 -60.5c-28.667 0 -70 9 -124 27
s-105.333 40 -154 66c-44 23.333 -75.667 35 -95 35c-8.66699 0 -16.667 -2.16699 -24 -6.5s-11 -8.83301 -11 -13.5l2 -51c0 -12 -9.66699 -23.167 -29 -33.5s-40.666 -15.5 -63.999 -15.5c-24.667 0 -50.334 11.333 -77.001 34s-40 62.334 -40 119.001
c0 53.333 15.667 95.666 47 126.999s74.666 48.333 129.999 51z" />
    <glyph glyph-name="Egrave" unicode="&#xc8;" horiz-adv-x="1415" 
d="M247 1365l514.002 0.00195312c104 0 179.833 2.16699 227.5 6.5s94.167 13.166 139.5 26.499c14 4 25 6 33 6c34.667 0 65.334 -18.667 92.001 -56c44 -60.667 66 -134 66 -220c0 -43.333 -9.16699 -77.5 -27.5 -102.5s-43.5 -37.5 -75.5 -37.5
c-22 0 -39.167 4.5 -51.5 13.5s-28.833 29.167 -49.5 60.5c-29.333 44.667 -66.5 74.5 -111.5 89.5s-118.833 22.5 -221.5 22.5c-76.667 0 -123.334 -13.667 -140.001 -41c-8.66699 -14.667 -13.834 -34.334 -15.501 -59.001s-2.5 -87.667 -2.5 -189
c0 -40 6.66699 -64.833 20 -74.5s48.333 -14.5 105 -14.5c28 0 48.333 5.83301 61 17.5s20.667 32.5 24 62.5c4.66699 38.667 9.5 65.167 14.5 79.5s14.167 26.833 27.5 37.5c14 12 30.333 18 49 18c27.333 0 50.666 -13 69.999 -39c14 -19.333 25.833 -53.5 35.5 -102.5
s14.5 -100.167 14.5 -153.5c0 -105.333 -16.333 -191.666 -49 -258.999c-18 -36.667 -45.333 -55 -82 -55c-22.667 0 -38.334 5.83301 -47.001 17.5s-15.334 35.834 -20.001 72.501c-10 75.333 -54 113 -132 113c-30 0 -50.5 -9.5 -61.5 -28.5s-16.5 -54.167 -16.5 -105.5
c0 -31.333 2.16699 -71.833 6.5 -121.5s8.83301 -82.5 13.5 -98.5c5.33301 -20 21.833 -33.833 49.5 -41.5s73.834 -11.5 138.501 -11.5c100 0 175.333 12.833 226 38.5s92 72.167 124 139.5c18.667 38.667 35.5 64.667 50.5 78s34.5 20 58.5 20
c28 0 51.167 -12.167 69.5 -36.5s27.5 -54.833 27.5 -91.5c0 -40 -10.333 -90 -31 -150s-46 -113.333 -76 -160c-15.333 -22.667 -28 -37.834 -38 -45.501s-22.667 -11.5 -38 -11.5c-12.667 0 -31 2 -55 6c-42.667 8 -99.667 13 -171 15h-848c-34 0 -60.333 7.5 -79 22.5
s-28 36.167 -28 63.5c0 19.333 4 33.333 12 42s26.333 19.667 55 33c20 8.66699 34.833 19.334 44.5 32.001s17.167 31.334 22.5 56.001c22 100.667 33 236.334 33 407.001c0 257.333 -16 419.666 -48 486.999c-6.66699 13.333 -14 22.666 -22 27.999
s-24.667 11.666 -50 18.999c-38 11.333 -57 36.666 -57 75.999c0 21.333 6.33301 40.333 19 57s29.334 27.667 50.001 33c26 6 76.333 9 151 9zM603.002 1812c47.333 0 86.166 -5.49902 116.499 -16.499s45.5 -25.167 45.5 -42.5c0 -5.33301 -3.33301 -14.333 -10 -27
c-3.33301 -6 -5 -11.667 -5 -17c0 -10 3.33301 -18.333 10 -25s25 -21 55 -43l20 -16c34 -26 51 -51.333 51 -76c0 -49.333 -34.333 -74 -103 -74c-121.333 0 -232.666 38.667 -333.999 116c-56.667 44 -85 81.333 -85 112c0 31.333 22.5 57.166 67.5 77.499
s102.167 30.833 171.5 31.5z" />
    <glyph glyph-name="Eacute" unicode="&#xc9;" horiz-adv-x="1415" 
d="M247 1365l514.002 0.00195312c104 0 179.833 2.16699 227.5 6.5s94.167 13.166 139.5 26.499c14 4 25 6 33 6c34.667 0 65.334 -18.667 92.001 -56c44 -60.667 66 -134 66 -220c0 -43.333 -9.16699 -77.5 -27.5 -102.5s-43.5 -37.5 -75.5 -37.5
c-22 0 -39.167 4.5 -51.5 13.5s-28.833 29.167 -49.5 60.5c-29.333 44.667 -66.5 74.5 -111.5 89.5s-118.833 22.5 -221.5 22.5c-76.667 0 -123.334 -13.667 -140.001 -41c-8.66699 -14.667 -13.834 -34.334 -15.501 -59.001s-2.5 -87.667 -2.5 -189
c0 -40 6.66699 -64.833 20 -74.5s48.333 -14.5 105 -14.5c28 0 48.333 5.83301 61 17.5s20.667 32.5 24 62.5c4.66699 38.667 9.5 65.167 14.5 79.5s14.167 26.833 27.5 37.5c14 12 30.333 18 49 18c27.333 0 50.666 -13 69.999 -39c14 -19.333 25.833 -53.5 35.5 -102.5
s14.5 -100.167 14.5 -153.5c0 -105.333 -16.333 -191.666 -49 -258.999c-18 -36.667 -45.333 -55 -82 -55c-22.667 0 -38.334 5.83301 -47.001 17.5s-15.334 35.834 -20.001 72.501c-10 75.333 -54 113 -132 113c-30 0 -50.5 -9.5 -61.5 -28.5s-16.5 -54.167 -16.5 -105.5
c0 -31.333 2.16699 -71.833 6.5 -121.5s8.83301 -82.5 13.5 -98.5c5.33301 -20 21.833 -33.833 49.5 -41.5s73.834 -11.5 138.501 -11.5c100 0 175.333 12.833 226 38.5s92 72.167 124 139.5c18.667 38.667 35.5 64.667 50.5 78s34.5 20 58.5 20
c28 0 51.167 -12.167 69.5 -36.5s27.5 -54.833 27.5 -91.5c0 -40 -10.333 -90 -31 -150s-46 -113.333 -76 -160c-15.333 -22.667 -28 -37.834 -38 -45.501s-22.667 -11.5 -38 -11.5c-12.667 0 -31 2 -55 6c-42.667 8 -99.667 13 -171 15h-848c-34 0 -60.333 7.5 -79 22.5
s-28 36.167 -28 63.5c0 19.333 4 33.333 12 42s26.333 19.667 55 33c20 8.66699 34.833 19.334 44.5 32.001s17.167 31.334 22.5 56.001c22 100.667 33 236.334 33 407.001c0 257.333 -16 419.666 -48 486.999c-6.66699 13.333 -14 22.666 -22 27.999
s-24.667 11.666 -50 18.999c-38 11.333 -57 36.666 -57 75.999c0 21.333 6.33301 40.333 19 57s29.334 27.667 50.001 33c26 6 76.333 9 151 9zM776.002 1812c60.667 0 114.666 -9.00098 161.999 -27.001c23.333 -8.66699 42.333 -21 57 -37s21.667 -32 21 -48
c-1.33301 -30 -29.666 -66.333 -84.999 -109c-100.667 -77.333 -212 -116 -334 -116c-68.667 0 -103 24.667 -103 74c0 17.333 3.5 30.5 10.5 39.5s27.167 26.5 60.5 52.5c30 21.333 48.333 35.5 55 42.5s10 15.5 10 25.5c0 5.33301 -4 15 -12 29
c-2.66699 4.66699 -4 9.66699 -4 15c0 17.333 15 31.333 45 42s69 16.334 117 17.001z" />
    <glyph glyph-name="Ecircumflex" unicode="&#xca;" horiz-adv-x="1415" 
d="M247 1365l514.002 0.00195312c104 0 179.833 2.16699 227.5 6.5s94.167 13.166 139.5 26.499c14 4 25 6 33 6c34.667 0 65.334 -18.667 92.001 -56c44 -60.667 66 -134 66 -220c0 -43.333 -9.16699 -77.5 -27.5 -102.5s-43.5 -37.5 -75.5 -37.5
c-22 0 -39.167 4.5 -51.5 13.5s-28.833 29.167 -49.5 60.5c-29.333 44.667 -66.5 74.5 -111.5 89.5s-118.833 22.5 -221.5 22.5c-76.667 0 -123.334 -13.667 -140.001 -41c-8.66699 -14.667 -13.834 -34.334 -15.501 -59.001s-2.5 -87.667 -2.5 -189
c0 -40 6.66699 -64.833 20 -74.5s48.333 -14.5 105 -14.5c28 0 48.333 5.83301 61 17.5s20.667 32.5 24 62.5c4.66699 38.667 9.5 65.167 14.5 79.5s14.167 26.833 27.5 37.5c14 12 30.333 18 49 18c27.333 0 50.666 -13 69.999 -39c14 -19.333 25.833 -53.5 35.5 -102.5
s14.5 -100.167 14.5 -153.5c0 -105.333 -16.333 -191.666 -49 -258.999c-18 -36.667 -45.333 -55 -82 -55c-22.667 0 -38.334 5.83301 -47.001 17.5s-15.334 35.834 -20.001 72.501c-10 75.333 -54 113 -132 113c-30 0 -50.5 -9.5 -61.5 -28.5s-16.5 -54.167 -16.5 -105.5
c0 -31.333 2.16699 -71.833 6.5 -121.5s8.83301 -82.5 13.5 -98.5c5.33301 -20 21.833 -33.833 49.5 -41.5s73.834 -11.5 138.501 -11.5c100 0 175.333 12.833 226 38.5s92 72.167 124 139.5c18.667 38.667 35.5 64.667 50.5 78s34.5 20 58.5 20
c28 0 51.167 -12.167 69.5 -36.5s27.5 -54.833 27.5 -91.5c0 -40 -10.333 -90 -31 -150s-46 -113.333 -76 -160c-15.333 -22.667 -28 -37.834 -38 -45.501s-22.667 -11.5 -38 -11.5c-12.667 0 -31 2 -55 6c-42.667 8 -99.667 13 -171 15h-848c-34 0 -60.333 7.5 -79 22.5
s-28 36.167 -28 63.5c0 19.333 4 33.333 12 42s26.333 19.667 55 33c20 8.66699 34.833 19.334 44.5 32.001s17.167 31.334 22.5 56.001c22 100.667 33 236.334 33 407.001c0 257.333 -16 419.666 -48 486.999c-6.66699 13.333 -14 22.666 -22 27.999
s-24.667 11.666 -50 18.999c-38 11.333 -57 36.666 -57 75.999c0 21.333 6.33301 40.333 19 57s29.334 27.667 50.001 33c26 6 76.333 9 151 9zM702.002 1840c22 0 57.668 -13.833 107.001 -41.5s100 -61.834 152 -102.501c46.667 -36.667 78.834 -65.667 96.501 -87
s26.5 -41.666 26.5 -60.999c0 -20 -7.33301 -37.667 -22 -53s-31.667 -23 -51 -23c-26 0 -81 20 -165 60c-66 31.333 -114.667 47 -146 47c-18.667 0 -34.667 -2.5 -48 -7.5s-44 -20.167 -92 -45.5c-70.667 -37.333 -121.334 -56 -152.001 -56
c-22.667 0 -41.167 7.5 -55.5 22.5s-21.5 34.5 -21.5 58.5c0 22 11 45.833 33 71.5s60.333 59.167 115 100.5c103.333 78 177.666 117 222.999 117z" />
    <glyph glyph-name="Igrave" unicode="&#xcc;" horiz-adv-x="847" 
d="M468 1386c76 0 147.666 -6.66602 214.999 -19.999c90.667 -18 136 -56.333 136 -115c0 -19.333 -4.5 -33.833 -13.5 -43.5s-31.833 -23.834 -68.5 -42.501c-30.667 -15.333 -50.834 -49 -60.501 -101s-14.5 -153.333 -14.5 -304c0 -254.667 6.33301 -412.334 19 -473.001
c4.66699 -19.333 11.834 -34.166 21.501 -44.499s26.5 -21.5 50.5 -33.5c44 -20 66 -49 66 -87c0 -53.333 -40.667 -90 -122 -110c-88 -21.333 -195.667 -32 -323 -32c-217.333 0 -326 41.333 -326 124c0 30 21.333 58 64 84c32.667 20 52 47.333 58 82
c12.667 76 19 237.333 19 484c0 170.667 -8.66699 280 -26 328c-9.33301 27.333 -31.666 52 -66.999 74c-27.333 18 -45.666 33 -54.999 45s-14 27.333 -14 46c0 28.667 13.833 51.5 41.5 68.5s76.5 32.167 146.5 45.5c83.333 16.667 167.666 25 252.999 25zM332.999 1812
c47.333 0 86.166 -5.49902 116.499 -16.499s45.5 -25.167 45.5 -42.5c0 -5.33301 -3.33301 -14.333 -10 -27c-3.33301 -6 -5 -11.667 -5 -17c0 -10 3.33301 -18.333 10 -25s25 -21 55 -43l20 -16c34 -26 51 -51.333 51 -76c0 -49.333 -34.333 -74 -103 -74
c-121.333 0 -232.666 38.667 -333.999 116c-56.667 44 -85 81.333 -85 112c0 31.333 22.5 57.166 67.5 77.499s102.167 30.833 171.5 31.5z" />
    <glyph glyph-name="Iacute" unicode="&#xcd;" horiz-adv-x="847" 
d="M468 1386c76 0 147.666 -6.66602 214.999 -19.999c90.667 -18 136 -56.333 136 -115c0 -19.333 -4.5 -33.833 -13.5 -43.5s-31.833 -23.834 -68.5 -42.501c-30.667 -15.333 -50.834 -49 -60.501 -101s-14.5 -153.333 -14.5 -304c0 -254.667 6.33301 -412.334 19 -473.001
c4.66699 -19.333 11.834 -34.166 21.501 -44.499s26.5 -21.5 50.5 -33.5c44 -20 66 -49 66 -87c0 -53.333 -40.667 -90 -122 -110c-88 -21.333 -195.667 -32 -323 -32c-217.333 0 -326 41.333 -326 124c0 30 21.333 58 64 84c32.667 20 52 47.333 58 82
c12.667 76 19 237.333 19 484c0 170.667 -8.66699 280 -26 328c-9.33301 27.333 -31.666 52 -66.999 74c-27.333 18 -45.666 33 -54.999 45s-14 27.333 -14 46c0 28.667 13.833 51.5 41.5 68.5s76.5 32.167 146.5 45.5c83.333 16.667 167.666 25 252.999 25zM532.999 1812
c60.667 0 114.666 -9.00098 161.999 -27.001c23.333 -8.66699 42.333 -21 57 -37s21.667 -32 21 -48c-1.33301 -30 -29.666 -66.333 -84.999 -109c-100.667 -77.333 -212 -116 -334 -116c-68.667 0 -103 24.667 -103 74c0 17.333 3.5 30.5 10.5 39.5s27.167 26.5 60.5 52.5
c30 21.333 48.333 35.5 55 42.5s10 15.5 10 25.5c0 5.33301 -4 15 -12 29c-2.66699 4.66699 -4 9.66699 -4 15c0 17.333 15 31.333 45 42s69 16.334 117 17.001z" />
    <glyph glyph-name="Ograve" unicode="&#xd2;" 
d="M808 1393c171.333 0 320.998 -49 448.998 -147c86.667 -67.333 157 -154.666 211 -261.999c52.667 -106.667 79 -213.334 79 -320.001c0 -157.333 -52 -298 -156 -422c-88 -105.333 -203 -181 -345 -227c-87.333 -28 -175 -42 -263 -42
c-115.333 0 -225.666 24 -330.999 72c-127.333 58 -227 145.667 -299 263c-70 113.333 -105 238.333 -105 375c0 158.667 45 298.667 135 420c80 108 187.667 187.333 323 238c90.667 34.667 191.334 52 302.001 52zM712.998 1106c-56 0 -100.334 -25 -133.001 -75
c-25.333 -37.333 -38 -81.666 -38 -132.999c0 -75.333 15.333 -162.5 46 -261.5s69.334 -186.833 116.001 -263.5c20.667 -32.667 46.167 -58.667 76.5 -78s61.166 -29 92.499 -29c50.667 0 91.5 19 122.5 57s46.5 88 46.5 150c0 80.667 -13 167.667 -39 261
s-59.667 173 -101 239c-25.333 40.667 -54.666 72.667 -87.999 96s-67 35.666 -101 36.999zM672.997 1812c47.333 0 86.166 -5.49902 116.499 -16.499s45.5 -25.167 45.5 -42.5c0 -5.33301 -3.33301 -14.333 -10 -27c-3.33301 -6 -5 -11.667 -5 -17
c0 -10 3.33301 -18.333 10 -25s25 -21 55 -43l20 -16c34 -26 51 -51.333 51 -76c0 -49.333 -34.333 -74 -103 -74c-121.333 0 -232.666 38.667 -333.999 116c-56.667 44 -85 81.333 -85 112c0 31.333 22.5 57.166 67.5 77.499s102.167 30.833 171.5 31.5z" />
    <glyph glyph-name="Oacute" unicode="&#xd3;" 
d="M808 1393c171.333 0 320.998 -49 448.998 -147c86.667 -67.333 157 -154.666 211 -261.999c52.667 -106.667 79 -213.334 79 -320.001c0 -157.333 -52 -298 -156 -422c-88 -105.333 -203 -181 -345 -227c-87.333 -28 -175 -42 -263 -42
c-115.333 0 -225.666 24 -330.999 72c-127.333 58 -227 145.667 -299 263c-70 113.333 -105 238.333 -105 375c0 158.667 45 298.667 135 420c80 108 187.667 187.333 323 238c90.667 34.667 191.334 52 302.001 52zM712.998 1106c-56 0 -100.334 -25 -133.001 -75
c-25.333 -37.333 -38 -81.666 -38 -132.999c0 -75.333 15.333 -162.5 46 -261.5s69.334 -186.833 116.001 -263.5c20.667 -32.667 46.167 -58.667 76.5 -78s61.166 -29 92.499 -29c50.667 0 91.5 19 122.5 57s46.5 88 46.5 150c0 80.667 -13 167.667 -39 261
s-59.667 173 -101 239c-25.333 40.667 -54.666 72.667 -87.999 96s-67 35.666 -101 36.999zM886.997 1812c60.667 0 114.666 -9.00098 161.999 -27.001c23.333 -8.66699 42.333 -21 57 -37s21.667 -32 21 -48c-1.33301 -30 -29.666 -66.333 -84.999 -109
c-100.667 -77.333 -212 -116 -334 -116c-68.667 0 -103 24.667 -103 74c0 17.333 3.5 30.5 10.5 39.5s27.167 26.5 60.5 52.5c30 21.333 48.333 35.5 55 42.5s10 15.5 10 25.5c0 5.33301 -4 15 -12 29c-2.66699 4.66699 -4 9.66699 -4 15c0 17.333 15 31.333 45 42
s69 16.334 117 17.001z" />
    <glyph glyph-name="Ocircumflex" unicode="&#xd4;" 
d="M808 1393c171.333 0 320.998 -49 448.998 -147c86.667 -67.333 157 -154.666 211 -261.999c52.667 -106.667 79 -213.334 79 -320.001c0 -157.333 -52 -298 -156 -422c-88 -105.333 -203 -181 -345 -227c-87.333 -28 -175 -42 -263 -42
c-115.333 0 -225.666 24 -330.999 72c-127.333 58 -227 145.667 -299 263c-70 113.333 -105 238.333 -105 375c0 158.667 45 298.667 135 420c80 108 187.667 187.333 323 238c90.667 34.667 191.334 52 302.001 52zM712.998 1106c-56 0 -100.334 -25 -133.001 -75
c-25.333 -37.333 -38 -81.666 -38 -132.999c0 -75.333 15.333 -162.5 46 -261.5s69.334 -186.833 116.001 -263.5c20.667 -32.667 46.167 -58.667 76.5 -78s61.166 -29 92.499 -29c50.667 0 91.5 19 122.5 57s46.5 88 46.5 150c0 80.667 -13 167.667 -39 261
s-59.667 173 -101 239c-25.333 40.667 -54.666 72.667 -87.999 96s-67 35.666 -101 36.999zM791.997 1840c22 0 57.668 -13.833 107.001 -41.5s100 -61.834 152 -102.501c46.667 -36.667 78.834 -65.667 96.501 -87s26.5 -41.666 26.5 -60.999
c0 -20 -7.33301 -37.667 -22 -53s-31.667 -23 -51 -23c-26 0 -81 20 -165 60c-66 31.333 -114.667 47 -146 47c-18.667 0 -34.667 -2.5 -48 -7.5s-44 -20.167 -92 -45.5c-70.667 -37.333 -121.334 -56 -152.001 -56c-22.667 0 -41.167 7.5 -55.5 22.5s-21.5 34.5 -21.5 58.5
c0 22 11 45.833 33 71.5s60.333 59.167 115 100.5c103.333 78 177.666 117 222.999 117z" />
    <glyph glyph-name="Otilde" unicode="&#xd5;" 
d="M808 1393c171.333 0 320.998 -49 448.998 -147c86.667 -67.333 157 -154.666 211 -261.999c52.667 -106.667 79 -213.334 79 -320.001c0 -157.333 -52 -298 -156 -422c-88 -105.333 -203 -181 -345 -227c-87.333 -28 -175 -42 -263 -42
c-115.333 0 -225.666 24 -330.999 72c-127.333 58 -227 145.667 -299 263c-70 113.333 -105 238.333 -105 375c0 158.667 45 298.667 135 420c80 108 187.667 187.333 323 238c90.667 34.667 191.334 52 302.001 52zM712.998 1106c-56 0 -100.334 -25 -133.001 -75
c-25.333 -37.333 -38 -81.666 -38 -132.999c0 -75.333 15.333 -162.5 46 -261.5s69.334 -186.833 116.001 -263.5c20.667 -32.667 46.167 -58.667 76.5 -78s61.166 -29 92.499 -29c50.667 0 91.5 19 122.5 57s46.5 88 46.5 150c0 80.667 -13 167.667 -39 261
s-59.667 173 -101 239c-25.333 40.667 -54.666 72.667 -87.999 96s-67 35.666 -101 36.999zM587.997 1822c24.667 1.33301 48.835 -1.33301 72.502 -8s63.167 -22 118.5 -46c56.667 -24.667 91 -39 103 -43c26 -9.33301 40 -14.333 42 -15c13.333 -6 23.666 -9 30.999 -9
c16.667 0 26 8.66699 28 26v33c0 17.333 9.5 32.5 28.5 45.5s41.5 19.5 67.5 19.5c40 0 71.667 -12.667 95 -38s35 -59.333 35 -102c0 -54 -18.167 -101.167 -54.5 -141.5s-78.833 -60.5 -127.5 -60.5c-28.667 0 -70 9 -124 27s-105.333 40 -154 66
c-44 23.333 -75.667 35 -95 35c-8.66699 0 -16.667 -2.16699 -24 -6.5s-11 -8.83301 -11 -13.5l2 -51c0 -12 -9.66699 -23.167 -29 -33.5s-40.666 -15.5 -63.999 -15.5c-24.667 0 -50.334 11.333 -77.001 34s-40 62.334 -40 119.001c0 53.333 15.667 95.666 47 126.999
s74.666 48.333 129.999 51z" />
    <glyph glyph-name="Ugrave" unicode="&#xd9;" horiz-adv-x="1679" 
d="M1506 865l0.00195312 -244.002c0 -147.333 -11 -251.666 -33 -312.999c-47.333 -129.333 -151.333 -223 -312 -281c-97.333 -36 -207.333 -54 -330 -54c-214 0 -385.333 51 -514 153c-62.667 50 -106 108 -130 174s-36 161.333 -36 286c0 48.667 1.66699 128.667 5 240
c2 78.667 3 130.667 3 156c0 55.333 -4.16699 93.666 -12.5 114.999s-26.5 41.333 -54.5 60c-44 28.667 -66 60.667 -66 96c0 26 11.167 49 33.5 69s51.833 33.667 88.5 41c73.333 14.667 160 22 260 22c110 0 201.333 -8.33301 274 -25c71.333 -16 107 -52.333 107 -109
c0 -28 -10.333 -50.333 -31 -67c-4.66699 -4 -24.667 -14.333 -60 -31c-21.333 -9.33301 -35.833 -26.333 -43.5 -51s-11.5 -65.334 -11.5 -122.001c0 -58 -2.66699 -183.333 -8 -376c-3.33301 -114.667 27.667 -202 93 -262c53.333 -49.333 122 -74 206 -74
c53.333 0 101.666 9.83301 144.999 29.5s76.333 46.5 99 80.5c18 26 30.333 55 37 87s10 75.667 10 131v220c-3.33301 168.667 -8.16602 267.5 -14.499 296.5s-27.833 51.833 -64.5 68.5c-34.667 15.333 -58.334 29.333 -71.001 42s-19 28.334 -19 47.001
c0 40 23.833 69.167 71.5 87.5s124.167 27.5 229.5 27.5c103.333 0 178.166 -9 224.499 -27s69.5 -46.667 69.5 -86c0 -19.333 -4 -33.666 -12 -42.999s-29 -23.666 -63 -42.999c-35.333 -20 -55.5 -41.5 -60.5 -64.5s-8.16699 -108.5 -9.5 -256.5zM762.002 1812
c47.333 0 86.166 -5.49902 116.499 -16.499s45.5 -25.167 45.5 -42.5c0 -5.33301 -3.33301 -14.333 -10 -27c-3.33301 -6 -5 -11.667 -5 -17c0 -10 3.33301 -18.333 10 -25s25 -21 55 -43l20 -16c34 -26 51 -51.333 51 -76c0 -49.333 -34.333 -74 -103 -74
c-121.333 0 -232.666 38.667 -333.999 116c-56.667 44 -85 81.333 -85 112c0 31.333 22.5 57.166 67.5 77.499s102.167 30.833 171.5 31.5z" />
    <glyph glyph-name="Uacute" unicode="&#xda;" horiz-adv-x="1679" 
d="M1506 865l0.00195312 -244.002c0 -147.333 -11 -251.666 -33 -312.999c-47.333 -129.333 -151.333 -223 -312 -281c-97.333 -36 -207.333 -54 -330 -54c-214 0 -385.333 51 -514 153c-62.667 50 -106 108 -130 174s-36 161.333 -36 286c0 48.667 1.66699 128.667 5 240
c2 78.667 3 130.667 3 156c0 55.333 -4.16699 93.666 -12.5 114.999s-26.5 41.333 -54.5 60c-44 28.667 -66 60.667 -66 96c0 26 11.167 49 33.5 69s51.833 33.667 88.5 41c73.333 14.667 160 22 260 22c110 0 201.333 -8.33301 274 -25c71.333 -16 107 -52.333 107 -109
c0 -28 -10.333 -50.333 -31 -67c-4.66699 -4 -24.667 -14.333 -60 -31c-21.333 -9.33301 -35.833 -26.333 -43.5 -51s-11.5 -65.334 -11.5 -122.001c0 -58 -2.66699 -183.333 -8 -376c-3.33301 -114.667 27.667 -202 93 -262c53.333 -49.333 122 -74 206 -74
c53.333 0 101.666 9.83301 144.999 29.5s76.333 46.5 99 80.5c18 26 30.333 55 37 87s10 75.667 10 131v220c-3.33301 168.667 -8.16602 267.5 -14.499 296.5s-27.833 51.833 -64.5 68.5c-34.667 15.333 -58.334 29.333 -71.001 42s-19 28.334 -19 47.001
c0 40 23.833 69.167 71.5 87.5s124.167 27.5 229.5 27.5c103.333 0 178.166 -9 224.499 -27s69.5 -46.667 69.5 -86c0 -19.333 -4 -33.666 -12 -42.999s-29 -23.666 -63 -42.999c-35.333 -20 -55.5 -41.5 -60.5 -64.5s-8.16699 -108.5 -9.5 -256.5zM969.002 1812
c60.667 0 114.666 -9.00098 161.999 -27.001c23.333 -8.66699 42.333 -21 57 -37s21.667 -32 21 -48c-1.33301 -30 -29.666 -66.333 -84.999 -109c-100.667 -77.333 -212 -116 -334 -116c-68.667 0 -103 24.667 -103 74c0 17.333 3.5 30.5 10.5 39.5s27.167 26.5 60.5 52.5
c30 21.333 48.333 35.5 55 42.5s10 15.5 10 25.5c0 5.33301 -4 15 -12 29c-2.66699 4.66699 -4 9.66699 -4 15c0 17.333 15 31.333 45 42s69 16.334 117 17.001z" />
    <glyph glyph-name="Yacute" unicode="&#xdd;" horiz-adv-x="1597" 
d="M439 1386c130.667 0 230.335 -6.99805 299.002 -20.998c31.333 -6 56.5 -17.833 75.5 -35.5s28.5 -37.834 28.5 -60.501c0 -17.333 -7.33301 -35 -22 -53c-21.333 -27.333 -32 -47 -32 -59c0 -24 19 -62.333 57 -115c24.667 -34 48 -51 70 -51
c14 0 27.667 5.16699 41 15.5s30.666 28.833 51.999 55.5c26 32.667 39 58.667 39 78c0 12 -1.5 21 -4.5 27s-13.833 20.333 -32.5 43c-13.333 15.333 -20 36 -20 62c0 75.333 102 113 306 113c115.333 0 190.333 -5.33301 225 -16c22 -6.66699 40.167 -19.334 54.5 -38.001
s21.5 -38.667 21.5 -60c0 -27.333 -8.33301 -48 -25 -62s-45.667 -24.667 -87 -32c-38 -7.33301 -71 -21.833 -99 -43.5s-79.333 -72.5 -154 -152.5c-90.667 -98 -147.167 -170.167 -169.5 -216.5s-33.5 -115.5 -33.5 -207.5c0 -77.333 3 -149 9 -215
c3.33301 -40.667 9.66602 -68.834 18.999 -84.501s28.666 -31.167 57.999 -46.5c48.667 -25.333 73 -57 73 -95c0 -90.667 -134 -136 -402 -136c-110 0 -214 10.667 -312 32c-82.667 18 -124 53.667 -124 107c0 41.333 25.333 71 76 89c38 13.333 61.667 30.333 71 51
c21.333 46 32 154.667 32 326c0 53.333 -5.33301 94.833 -16 124.5s-34 68.167 -70 115.5c-75.333 98 -153 186.333 -233 265c-34.667 34 -68 57 -100 69c-45.333 16.667 -72.666 29 -81.999 37c-18.667 16 -28 37.333 -28 64c0 44.667 33.667 76.834 101 96.501
s180 29.5 338 29.5zM935.001 1812c60.667 0 114.666 -9.00098 161.999 -27.001c23.333 -8.66699 42.333 -21 57 -37s21.667 -32 21 -48c-1.33301 -30 -29.666 -66.333 -84.999 -109c-100.667 -77.333 -212 -116 -334 -116c-68.667 0 -103 24.667 -103 74
c0 17.333 3.5 30.5 10.5 39.5s27.167 26.5 60.5 52.5c30 21.333 48.333 35.5 55 42.5s10 15.5 10 25.5c0 5.33301 -4 15 -12 29c-2.66699 4.66699 -4 9.66699 -4 15c0 17.333 15 31.333 45 42s69 16.334 117 17.001z" />
    <glyph glyph-name="agrave" unicode="&#xe0;" horiz-adv-x="1161" 
d="M609 997c116 0 214.336 -29.334 295.003 -88.001c42.667 -31.333 72.5 -67.166 89.5 -107.499s25.5 -95.833 25.5 -166.5l-2 -149c0 -103.333 7.33301 -170.333 22 -201c7.33301 -14.667 14.333 -24 21 -28s20.667 -7.66699 42 -11s32 -17.333 32 -42
c0 -32 -12.833 -65.333 -38.5 -100s-58.834 -63.667 -99.501 -87c-50 -29.333 -102.333 -44 -157 -44c-70 0 -125.333 24 -166 72c-14 17.333 -27 26 -39 26c-13.333 0 -31 -8.33301 -53 -25c-66.667 -48.667 -142.334 -73 -227.001 -73c-87.333 0 -158 18.667 -212 56
c-35.333 24.667 -63.333 56.834 -84 96.501s-31 81.167 -31 124.5c0 69.333 28 130.666 84 183.999c87.333 84 218 126.333 392 127c38.667 0 63 3.83301 73 11.5s15 25.5 15 53.5c0 70.667 -7.33301 121.834 -22 153.501s-38.667 47.5 -72 47.5c-20 0 -37.833 -6 -53.5 -18
s-35.167 -34 -58.5 -66c-59.333 -84.667 -121.333 -127 -186 -127c-32.667 0 -59.334 9.66699 -80.001 29s-31 44.666 -31 75.999c0 32 12.833 64 38.5 96s60.5 60 104.5 84c120.667 64 246.667 96 378 96zM542.003 417.999c-29.333 0 -54.832 -12.002 -76.499 -36.002
s-32.5 -52.667 -32.5 -86c0 -32 7.66699 -57.833 23 -77.5s35.666 -29.5 60.999 -29.5c53.333 0 80 45 80 135c0 36.667 -3.83301 61.334 -11.5 74.001s-22.167 19.334 -43.5 20.001zM476.004 1430c47.333 0 86.167 -5.49902 116.5 -16.499s45.5 -25.167 45.5 -42.5
c0 -5.33301 -3.33301 -14.333 -10 -27c-3.33301 -6 -5 -12 -5 -18c0 -9.33301 3.33301 -17.5 10 -24.5s25 -21.5 55 -43.5c33.333 -25.333 53.5 -42.5 60.5 -51.5s10.5 -22.5 10.5 -40.5c0 -49.333 -34.333 -74 -103 -74c-122 0 -233.333 39 -334 117
c-56.667 43.333 -85 80.666 -85 111.999s22.667 57.333 68 78s102.333 31 171 31z" />
    <glyph glyph-name="aacute" unicode="&#xe1;" horiz-adv-x="1161" 
d="M609 997c116 0 214.336 -29.334 295.003 -88.001c42.667 -31.333 72.5 -67.166 89.5 -107.499s25.5 -95.833 25.5 -166.5l-2 -149c0 -103.333 7.33301 -170.333 22 -201c7.33301 -14.667 14.333 -24 21 -28s20.667 -7.66699 42 -11s32 -17.333 32 -42
c0 -32 -12.833 -65.333 -38.5 -100s-58.834 -63.667 -99.501 -87c-50 -29.333 -102.333 -44 -157 -44c-70 0 -125.333 24 -166 72c-14 17.333 -27 26 -39 26c-13.333 0 -31 -8.33301 -53 -25c-66.667 -48.667 -142.334 -73 -227.001 -73c-87.333 0 -158 18.667 -212 56
c-35.333 24.667 -63.333 56.834 -84 96.501s-31 81.167 -31 124.5c0 69.333 28 130.666 84 183.999c87.333 84 218 126.333 392 127c38.667 0 63 3.83301 73 11.5s15 25.5 15 53.5c0 70.667 -7.33301 121.834 -22 153.501s-38.667 47.5 -72 47.5c-20 0 -37.833 -6 -53.5 -18
s-35.167 -34 -58.5 -66c-59.333 -84.667 -121.333 -127 -186 -127c-32.667 0 -59.334 9.66699 -80.001 29s-31 44.666 -31 75.999c0 32 12.833 64 38.5 96s60.5 60 104.5 84c120.667 64 246.667 96 378 96zM542.003 417.999c-29.333 0 -54.832 -12.002 -76.499 -36.002
s-32.5 -52.667 -32.5 -86c0 -32 7.66699 -57.833 23 -77.5s35.666 -29.5 60.999 -29.5c53.333 0 80 45 80 135c0 36.667 -3.83301 61.334 -11.5 74.001s-22.167 19.334 -43.5 20.001zM669.004 1430c60.667 0 114.666 -9 161.999 -27c23.333 -8.66699 42.333 -21 57 -37
s21.667 -32 21 -48c-1.33301 -30.667 -29.666 -67 -84.999 -109c-100.667 -78 -212 -117 -334 -117c-68.667 0 -103 24.667 -103 74c0 18 3.5 31.5 10.5 40.5s27.167 26.167 60.5 51.5c30 22 48.333 36.5 55 43.5s10 15.167 10 24.5c0 6 -4 16 -12 30
c-2.66699 4.66699 -4 9.66699 -4 15c0 16.667 15 30.5 45 41.5s69 16.833 117 17.5z" />
    <glyph glyph-name="acircumflex" unicode="&#xe2;" horiz-adv-x="1161" 
d="M609 997c116 0 214.336 -29.334 295.003 -88.001c42.667 -31.333 72.5 -67.166 89.5 -107.499s25.5 -95.833 25.5 -166.5l-2 -149c0 -103.333 7.33301 -170.333 22 -201c7.33301 -14.667 14.333 -24 21 -28s20.667 -7.66699 42 -11s32 -17.333 32 -42
c0 -32 -12.833 -65.333 -38.5 -100s-58.834 -63.667 -99.501 -87c-50 -29.333 -102.333 -44 -157 -44c-70 0 -125.333 24 -166 72c-14 17.333 -27 26 -39 26c-13.333 0 -31 -8.33301 -53 -25c-66.667 -48.667 -142.334 -73 -227.001 -73c-87.333 0 -158 18.667 -212 56
c-35.333 24.667 -63.333 56.834 -84 96.501s-31 81.167 -31 124.5c0 69.333 28 130.666 84 183.999c87.333 84 218 126.333 392 127c38.667 0 63 3.83301 73 11.5s15 25.5 15 53.5c0 70.667 -7.33301 121.834 -22 153.501s-38.667 47.5 -72 47.5c-20 0 -37.833 -6 -53.5 -18
s-35.167 -34 -58.5 -66c-59.333 -84.667 -121.333 -127 -186 -127c-32.667 0 -59.334 9.66699 -80.001 29s-31 44.666 -31 75.999c0 32 12.833 64 38.5 96s60.5 60 104.5 84c120.667 64 246.667 96 378 96zM542.003 417.999c-29.333 0 -54.832 -12.002 -76.499 -36.002
s-32.5 -52.667 -32.5 -86c0 -32 7.66699 -57.833 23 -77.5s35.666 -29.5 60.999 -29.5c53.333 0 80 45 80 135c0 36.667 -3.83301 61.334 -11.5 74.001s-22.167 19.334 -43.5 20.001zM575.004 1462c22 0 57.666 -13.833 106.999 -41.5s100 -61.834 152 -102.501
c46.667 -36.667 78.834 -65.667 96.501 -87s26.5 -41.666 26.5 -60.999c0 -20 -7.33301 -37.667 -22 -53s-31.667 -23 -51 -23c-27.333 0 -82.333 20 -165 60c-25.333 12 -53.333 23.5 -84 34.5s-50.667 16.5 -60 16.5c-23.333 0 -70.666 -19 -141.999 -57
c-70 -37.333 -120.667 -56 -152 -56c-22.667 0 -41.167 7.5 -55.5 22.5s-21.5 34.5 -21.5 58.5c0 22 11 45.833 33 71.5s60.333 59.167 115 100.5c103.333 78 177.666 117 222.999 117z" />
    <glyph glyph-name="atilde" unicode="&#xe3;" horiz-adv-x="1161" 
d="M609 997c116 0 214.336 -29.334 295.003 -88.001c42.667 -31.333 72.5 -67.166 89.5 -107.499s25.5 -95.833 25.5 -166.5l-2 -149c0 -103.333 7.33301 -170.333 22 -201c7.33301 -14.667 14.333 -24 21 -28s20.667 -7.66699 42 -11s32 -17.333 32 -42
c0 -32 -12.833 -65.333 -38.5 -100s-58.834 -63.667 -99.501 -87c-50 -29.333 -102.333 -44 -157 -44c-70 0 -125.333 24 -166 72c-14 17.333 -27 26 -39 26c-13.333 0 -31 -8.33301 -53 -25c-66.667 -48.667 -142.334 -73 -227.001 -73c-87.333 0 -158 18.667 -212 56
c-35.333 24.667 -63.333 56.834 -84 96.501s-31 81.167 -31 124.5c0 69.333 28 130.666 84 183.999c87.333 84 218 126.333 392 127c38.667 0 63 3.83301 73 11.5s15 25.5 15 53.5c0 70.667 -7.33301 121.834 -22 153.501s-38.667 47.5 -72 47.5c-20 0 -37.833 -6 -53.5 -18
s-35.167 -34 -58.5 -66c-59.333 -84.667 -121.333 -127 -186 -127c-32.667 0 -59.334 9.66699 -80.001 29s-31 44.666 -31 75.999c0 32 12.833 64 38.5 96s60.5 60 104.5 84c120.667 64 246.667 96 378 96zM542.003 417.999c-29.333 0 -54.832 -12.002 -76.499 -36.002
s-32.5 -52.667 -32.5 -86c0 -32 7.66699 -57.833 23 -77.5s35.666 -29.5 60.999 -29.5c53.333 0 80 45 80 135c0 36.667 -3.83301 61.334 -11.5 74.001s-22.167 19.334 -43.5 20.001zM396.004 1206l-0.00390625 -27c0 -24 -9 -43.167 -27 -57.5s-41.667 -21.5 -71 -21.5
c-33.333 0 -60.666 11 -81.999 33s-32 50.333 -32 85c0 39.333 8.66699 76 26 110c15.333 28 37.833 50.333 67.5 67s62.834 25 99.501 25c35.333 0 67.333 -4.83301 96 -14.5s82.334 -34.167 161.001 -73.5c36.667 -18.667 65.334 -28 86.001 -28c16.667 0 27 13 31 39
c3.33301 24 6 38.667 8 44s7.33301 11.333 16 18c18.667 14.667 42.667 22 72 22c86.667 0 130 -44 130 -132c0 -57.333 -16.833 -103.5 -50.5 -138.5s-78.167 -52.5 -133.5 -52.5c-28.667 0 -54.834 3.16699 -78.501 9.5s-57.167 19.5 -100.5 39.5
c-29.333 13.333 -61 27 -95 41c-42.667 18 -64.667 27.667 -66 29c-13.333 6 -24.666 9 -33.999 9c-15.333 0 -23 -8.66699 -23 -26z" />
    <glyph glyph-name="egrave" unicode="&#xe8;" horiz-adv-x="1086" 
d="M962 448h-470.002c-20.667 0 -31 -9 -31 -27c0 -43.333 23.5 -84.166 70.5 -122.499s97.5 -57.5 151.5 -57.5c32 0 67.5 6.16699 106.5 18.5s71.167 27.5 96.5 45.5c22.667 16 40.667 24 54 24c17.333 0 34.333 -10.667 51 -32s25 -43.333 25 -66
c0 -48 -30 -94.333 -90 -139c-106 -79.333 -228.333 -119 -367 -119c-140 0 -257.333 40.667 -352 122c-46 40 -84 88.333 -114 145c-39.333 75.333 -59 154.666 -59 237.999c0 112 34 212.667 102 302c58.667 77.333 133.334 135 224.001 173c68 28.667 141.667 43 221 43
c126.667 0 234.334 -36 323.001 -108c44.667 -36 80.667 -78.667 108 -128c31.333 -56 47 -110.667 47 -164c0 -43.333 -9 -78.833 -27 -106.5s-41.333 -41.5 -70 -41.5zM517.998 635h100.999c42.667 0 64 19.667 64 59c0 36 -10.333 65.333 -31 88s-47.667 34 -81 34
c-37.333 0 -66.666 -14.667 -87.999 -44c-20 -27.333 -30 -55 -30 -83c0 -20 4.83301 -34 14.5 -42s26.5 -12 50.5 -12zM465.997 1430c47.333 0 86.167 -5.49902 116.5 -16.499s45.5 -25.167 45.5 -42.5c0 -5.33301 -3.33301 -14.333 -10 -27c-3.33301 -6 -5 -12 -5 -18
c0 -9.33301 3.33301 -17.5 10 -24.5s25 -21.5 55 -43.5c33.333 -25.333 53.5 -42.5 60.5 -51.5s10.5 -22.5 10.5 -40.5c0 -49.333 -34.333 -74 -103 -74c-122 0 -233.333 39 -334 117c-56.667 43.333 -85 80.666 -85 111.999s22.667 57.333 68 78s102.333 31 171 31z" />
    <glyph glyph-name="eacute" unicode="&#xe9;" horiz-adv-x="1086" 
d="M962 448h-470.002c-20.667 0 -31 -9 -31 -27c0 -43.333 23.5 -84.166 70.5 -122.499s97.5 -57.5 151.5 -57.5c32 0 67.5 6.16699 106.5 18.5s71.167 27.5 96.5 45.5c22.667 16 40.667 24 54 24c17.333 0 34.333 -10.667 51 -32s25 -43.333 25 -66
c0 -48 -30 -94.333 -90 -139c-106 -79.333 -228.333 -119 -367 -119c-140 0 -257.333 40.667 -352 122c-46 40 -84 88.333 -114 145c-39.333 75.333 -59 154.666 -59 237.999c0 112 34 212.667 102 302c58.667 77.333 133.334 135 224.001 173c68 28.667 141.667 43 221 43
c126.667 0 234.334 -36 323.001 -108c44.667 -36 80.667 -78.667 108 -128c31.333 -56 47 -110.667 47 -164c0 -43.333 -9 -78.833 -27 -106.5s-41.333 -41.5 -70 -41.5zM517.998 635h100.999c42.667 0 64 19.667 64 59c0 36 -10.333 65.333 -31 88s-47.667 34 -81 34
c-37.333 0 -66.666 -14.667 -87.999 -44c-20 -27.333 -30 -55 -30 -83c0 -20 4.83301 -34 14.5 -42s26.5 -12 50.5 -12zM672.997 1430c60.667 0 114.666 -9 161.999 -27c23.333 -8.66699 42.333 -21 57 -37s21.667 -32 21 -48c-1.33301 -30.667 -29.666 -67 -84.999 -109
c-100.667 -78 -212 -117 -334 -117c-68.667 0 -103 24.667 -103 74c0 18 3.5 31.5 10.5 40.5s27.167 26.167 60.5 51.5c30 22 48.333 36.5 55 43.5s10 15.167 10 24.5c0 6 -4 16 -12 30c-2.66699 4.66699 -4 9.66699 -4 15c0 16.667 15 30.5 45 41.5s69 16.833 117 17.5z
" />
    <glyph glyph-name="ecircumflex" unicode="&#xea;" horiz-adv-x="1086" 
d="M962 448h-470.002c-20.667 0 -31 -9 -31 -27c0 -43.333 23.5 -84.166 70.5 -122.499s97.5 -57.5 151.5 -57.5c32 0 67.5 6.16699 106.5 18.5s71.167 27.5 96.5 45.5c22.667 16 40.667 24 54 24c17.333 0 34.333 -10.667 51 -32s25 -43.333 25 -66
c0 -48 -30 -94.333 -90 -139c-106 -79.333 -228.333 -119 -367 -119c-140 0 -257.333 40.667 -352 122c-46 40 -84 88.333 -114 145c-39.333 75.333 -59 154.666 -59 237.999c0 112 34 212.667 102 302c58.667 77.333 133.334 135 224.001 173c68 28.667 141.667 43 221 43
c126.667 0 234.334 -36 323.001 -108c44.667 -36 80.667 -78.667 108 -128c31.333 -56 47 -110.667 47 -164c0 -43.333 -9 -78.833 -27 -106.5s-41.333 -41.5 -70 -41.5zM517.998 635h100.999c42.667 0 64 19.667 64 59c0 36 -10.333 65.333 -31 88s-47.667 34 -81 34
c-37.333 0 -66.666 -14.667 -87.999 -44c-20 -27.333 -30 -55 -30 -83c0 -20 4.83301 -34 14.5 -42s26.5 -12 50.5 -12zM591.997 1462c22 0 57.666 -13.833 106.999 -41.5s100 -61.834 152 -102.501c46.667 -36.667 78.834 -65.667 96.501 -87s26.5 -41.666 26.5 -60.999
c0 -20 -7.33301 -37.667 -22 -53s-31.667 -23 -51 -23c-27.333 0 -82.333 20 -165 60c-25.333 12 -53.333 23.5 -84 34.5s-50.667 16.5 -60 16.5c-23.333 0 -70.666 -19 -141.999 -57c-70 -37.333 -120.667 -56 -152 -56c-22.667 0 -41.167 7.5 -55.5 22.5
s-21.5 34.5 -21.5 58.5c0 22 11 45.833 33 71.5s60.333 59.167 115 100.5c103.333 78 177.666 117 222.999 117z" />
    <glyph glyph-name="igrave" unicode="&#xec;" horiz-adv-x="730" 
d="M594 927l-0.000976562 -581.002c0 -46 4.16699 -79.667 12.5 -101s25.166 -41 50.499 -59c20.667 -14.667 34.5 -27.167 41.5 -37.5s10.5 -23.5 10.5 -39.5c0 -86 -109 -129 -327 -129c-117.333 0 -210.333 9.33301 -279 28
c-23.333 6.66699 -42.166 18.334 -56.499 35.001s-21.5 35.667 -21.5 57c0 18 3.66699 32 11 42s26 26 56 48c20.667 15.333 35.334 40.333 44.001 75s13 86.334 13 155.001c0 22 -1.5 63.167 -4.5 123.5s-5.16699 95.5 -6.5 105.5c-4 27.333 -22.667 48.333 -56 63
c-41.333 18 -62 44.667 -62 80c0 42 27 73.333 81 94c74.667 28.667 154.667 53 240 73s151.333 30 198 30c36.667 0 55 -20.667 55 -62zM253.999 1430c47.333 0 86.167 -5.49902 116.5 -16.499s45.5 -25.167 45.5 -42.5c0 -5.33301 -3.33301 -14.333 -10 -27
c-3.33301 -6 -5 -12 -5 -18c0 -9.33301 3.33301 -17.5 10 -24.5s25 -21.5 55 -43.5c33.333 -25.333 53.5 -42.5 60.5 -51.5s10.5 -22.5 10.5 -40.5c0 -49.333 -34.333 -74 -103 -74c-122 0 -233.333 39 -334 117c-56.667 43.333 -85 80.666 -85 111.999s22.667 57.333 68 78
s102.333 31 171 31z" />
    <glyph glyph-name="iacute" unicode="&#xed;" horiz-adv-x="730" 
d="M594 927l-0.000976562 -581.002c0 -46 4.16699 -79.667 12.5 -101s25.166 -41 50.499 -59c20.667 -14.667 34.5 -27.167 41.5 -37.5s10.5 -23.5 10.5 -39.5c0 -86 -109 -129 -327 -129c-117.333 0 -210.333 9.33301 -279 28
c-23.333 6.66699 -42.166 18.334 -56.499 35.001s-21.5 35.667 -21.5 57c0 18 3.66699 32 11 42s26 26 56 48c20.667 15.333 35.334 40.333 44.001 75s13 86.334 13 155.001c0 22 -1.5 63.167 -4.5 123.5s-5.16699 95.5 -6.5 105.5c-4 27.333 -22.667 48.333 -56 63
c-41.333 18 -62 44.667 -62 80c0 42 27 73.333 81 94c74.667 28.667 154.667 53 240 73s151.333 30 198 30c36.667 0 55 -20.667 55 -62zM446.999 1430c60.667 0 114.666 -9 161.999 -27c23.333 -8.66699 42.333 -21 57 -37s21.667 -32 21 -48
c-1.33301 -30.667 -29.666 -67 -84.999 -109c-100.667 -78 -212 -117 -334 -117c-68.667 0 -103 24.667 -103 74c0 18 3.5 31.5 10.5 40.5s27.167 26.167 60.5 51.5c30 22 48.333 36.5 55 43.5s10 15.167 10 24.5c0 6 -4 16 -12 30c-2.66699 4.66699 -4 9.66699 -4 15
c0 16.667 15 30.5 45 41.5s69 16.833 117 17.5z" />
    <glyph glyph-name="ograve" unicode="&#xf2;" horiz-adv-x="1233" 
d="M657 997c122 0 229 -31.667 321 -95c66 -45.333 119 -104.333 159 -177c41.333 -76 62 -155.333 62 -238c0 -144.667 -66.333 -267.667 -199 -369c-126.667 -96.667 -271.667 -145 -435 -145c-159.333 0 -288.333 45.333 -387 136c-96 88 -144 202.667 -144 344
c0 157.333 58.667 286 176 386c122.667 105.333 271.667 158 447 158zM577 766c-29.333 0 -52.834 -10.832 -70.501 -32.499s-26.5 -50.5 -26.5 -86.5c0 -40 7.5 -94.5 22.5 -163.5s32.833 -130.167 53.5 -183.5c20.667 -54.667 54.334 -82 101.001 -82
c59.333 0 89 37.667 89 113c0 56 -7.5 119.667 -22.5 191s-33.167 129.333 -54.5 174c-22 45.333 -52.667 68.666 -92 69.999zM498.999 1430c47.333 0 86.167 -5.49902 116.5 -16.499s45.5 -25.167 45.5 -42.5c0 -5.33301 -3.33301 -14.333 -10 -27
c-3.33301 -6 -5 -12 -5 -18c0 -9.33301 3.33301 -17.5 10 -24.5s25 -21.5 55 -43.5c33.333 -25.333 53.5 -42.5 60.5 -51.5s10.5 -22.5 10.5 -40.5c0 -49.333 -34.333 -74 -103 -74c-122 0 -233.333 39 -334 117c-56.667 43.333 -85 80.666 -85 111.999s22.667 57.333 68 78
s102.333 31 171 31z" />
    <glyph glyph-name="oacute" unicode="&#xf3;" horiz-adv-x="1233" 
d="M657 997c122 0 229 -31.667 321 -95c66 -45.333 119 -104.333 159 -177c41.333 -76 62 -155.333 62 -238c0 -144.667 -66.333 -267.667 -199 -369c-126.667 -96.667 -271.667 -145 -435 -145c-159.333 0 -288.333 45.333 -387 136c-96 88 -144 202.667 -144 344
c0 157.333 58.667 286 176 386c122.667 105.333 271.667 158 447 158zM577 766c-29.333 0 -52.834 -10.832 -70.501 -32.499s-26.5 -50.5 -26.5 -86.5c0 -40 7.5 -94.5 22.5 -163.5s32.833 -130.167 53.5 -183.5c20.667 -54.667 54.334 -82 101.001 -82
c59.333 0 89 37.667 89 113c0 56 -7.5 119.667 -22.5 191s-33.167 129.333 -54.5 174c-22 45.333 -52.667 68.666 -92 69.999zM732.999 1430c60.667 0 114.666 -9 161.999 -27c23.333 -8.66699 42.333 -21 57 -37s21.667 -32 21 -48
c-1.33301 -30.667 -29.666 -67 -84.999 -109c-100.667 -78 -212 -117 -334 -117c-68.667 0 -103 24.667 -103 74c0 18 3.5 31.5 10.5 40.5s27.167 26.167 60.5 51.5c30 22 48.333 36.5 55 43.5s10 15.167 10 24.5c0 6 -4 16 -12 30c-2.66699 4.66699 -4 9.66699 -4 15
c0 16.667 15 30.5 45 41.5s69 16.833 117 17.5z" />
    <glyph glyph-name="ocircumflex" unicode="&#xf4;" horiz-adv-x="1233" 
d="M657 997c122 0 229 -31.667 321 -95c66 -45.333 119 -104.333 159 -177c41.333 -76 62 -155.333 62 -238c0 -144.667 -66.333 -267.667 -199 -369c-126.667 -96.667 -271.667 -145 -435 -145c-159.333 0 -288.333 45.333 -387 136c-96 88 -144 202.667 -144 344
c0 157.333 58.667 286 176 386c122.667 105.333 271.667 158 447 158zM577 766c-29.333 0 -52.834 -10.832 -70.501 -32.499s-26.5 -50.5 -26.5 -86.5c0 -40 7.5 -94.5 22.5 -163.5s32.833 -130.167 53.5 -183.5c20.667 -54.667 54.334 -82 101.001 -82
c59.333 0 89 37.667 89 113c0 56 -7.5 119.667 -22.5 191s-33.167 129.333 -54.5 174c-22 45.333 -52.667 68.666 -92 69.999zM610.999 1462c22 0 57.666 -13.833 106.999 -41.5s100 -61.834 152 -102.501c46.667 -36.667 78.834 -65.667 96.501 -87
s26.5 -41.666 26.5 -60.999c0 -20 -7.33301 -37.667 -22 -53s-31.667 -23 -51 -23c-27.333 0 -82.333 20 -165 60c-25.333 12 -53.333 23.5 -84 34.5s-50.667 16.5 -60 16.5c-23.333 0 -70.666 -19 -141.999 -57c-70 -37.333 -120.667 -56 -152 -56
c-22.667 0 -41.167 7.5 -55.5 22.5s-21.5 34.5 -21.5 58.5c0 22 11 45.833 33 71.5s60.333 59.167 115 100.5c103.333 78 177.666 117 222.999 117z" />
    <glyph glyph-name="otilde" unicode="&#xf5;" horiz-adv-x="1233" 
d="M657 997c122 0 229 -31.667 321 -95c66 -45.333 119 -104.333 159 -177c41.333 -76 62 -155.333 62 -238c0 -144.667 -66.333 -267.667 -199 -369c-126.667 -96.667 -271.667 -145 -435 -145c-159.333 0 -288.333 45.333 -387 136c-96 88 -144 202.667 -144 344
c0 157.333 58.667 286 176 386c122.667 105.333 271.667 158 447 158zM577 766c-29.333 0 -52.834 -10.832 -70.501 -32.499s-26.5 -50.5 -26.5 -86.5c0 -40 7.5 -94.5 22.5 -163.5s32.833 -130.167 53.5 -183.5c20.667 -54.667 54.334 -82 101.001 -82
c59.333 0 89 37.667 89 113c0 56 -7.5 119.667 -22.5 191s-33.167 129.333 -54.5 174c-22 45.333 -52.667 68.666 -92 69.999zM431.999 1206l-0.00390625 -27c0 -24 -9 -43.167 -27 -57.5s-41.667 -21.5 -71 -21.5c-33.333 0 -60.666 11 -81.999 33s-32 50.333 -32 85
c0 39.333 8.66699 76 26 110c15.333 28 37.833 50.333 67.5 67s62.834 25 99.501 25c35.333 0 67.333 -4.83301 96 -14.5s82.334 -34.167 161.001 -73.5c36.667 -18.667 65.334 -28 86.001 -28c16.667 0 27 13 31 39c3.33301 24 6 38.667 8 44s7.33301 11.333 16 18
c18.667 14.667 42.667 22 72 22c86.667 0 130 -44 130 -132c0 -57.333 -16.833 -103.5 -50.5 -138.5s-78.167 -52.5 -133.5 -52.5c-28.667 0 -54.834 3.16699 -78.501 9.5s-57.167 19.5 -100.5 39.5c-29.333 13.333 -61 27 -95 41c-42.667 18 -64.667 27.667 -66 29
c-13.333 6 -24.666 9 -33.999 9c-15.333 0 -23 -8.66699 -23 -26z" />
    <glyph glyph-name="divide" unicode="&#xf7;" horiz-adv-x="1706" 
 />
    <glyph glyph-name="glyph216" unicode="&#xf9;" horiz-adv-x="1388" 
d="M586 939l-0.000976562 -542.001c0 -116 38.333 -174 115 -174c19.333 0 38.333 5.5 57 16.5s31.667 24.5 39 40.5c14.667 32 22 103.333 22 214c0 109.333 -3.66699 184 -11 224c-2.66699 16.667 -7.33398 28.834 -14.001 36.501s-19.334 16.5 -38.001 26.5
c-38 20 -57 45.333 -57 76c0 41.333 32.667 70 98 86c124 30.667 246.333 46 367 46c67.333 0 101 -35.667 101 -107c0 -7.33301 -0.333008 -22.333 -1 -45c-1.33301 -32 -2.33301 -71 -3 -117v-441c0 -22.667 19.333 -43.334 58 -62.001c32.667 -16 49 -39.333 49 -70
c0 -60 -71 -106.333 -213 -139c-83.333 -19.333 -164 -29 -242 -29c-32 0 -53.833 3.66699 -65.5 11s-18.5 21.666 -20.5 42.999c-3.33301 41.333 -16 62 -38 62c-8 0 -15.333 -1.83301 -22 -5.5s-27 -17.167 -61 -40.5c-67.333 -46 -139.666 -69 -216.999 -69
c-128 0 -218.333 37 -271 111c-44.667 62 -67 166.333 -67 313c0 54.667 0.333008 101.334 1 140.001v46c0 57.333 -5.16699 99.5 -15.5 126.5s-29.166 48.167 -56.499 63.5c-26 13.333 -42.5 24 -49.5 32s-10.5 19 -10.5 33c0 50.667 38.333 84.334 115 101.001
c130.667 28.667 261.334 43 392.001 43c39.333 0 59 -16.667 59 -50zM575.999 1430c47.333 0 86.167 -5.49902 116.5 -16.499s45.5 -25.167 45.5 -42.5c0 -5.33301 -3.33301 -14.333 -10 -27c-3.33301 -6 -5 -12 -5 -18c0 -9.33301 3.33301 -17.5 10 -24.5
s25 -21.5 55 -43.5c33.333 -25.333 53.5 -42.5 60.5 -51.5s10.5 -22.5 10.5 -40.5c0 -49.333 -34.333 -74 -103 -74c-122 0 -233.333 39 -334 117c-56.667 43.333 -85 80.666 -85 111.999s22.667 57.333 68 78s102.333 31 171 31z" />
    <glyph glyph-name="glyph217" unicode="&#xfa;" horiz-adv-x="1388" 
d="M586 939l-0.000976562 -542.001c0 -116 38.333 -174 115 -174c19.333 0 38.333 5.5 57 16.5s31.667 24.5 39 40.5c14.667 32 22 103.333 22 214c0 109.333 -3.66699 184 -11 224c-2.66699 16.667 -7.33398 28.834 -14.001 36.501s-19.334 16.5 -38.001 26.5
c-38 20 -57 45.333 -57 76c0 41.333 32.667 70 98 86c124 30.667 246.333 46 367 46c67.333 0 101 -35.667 101 -107c0 -7.33301 -0.333008 -22.333 -1 -45c-1.33301 -32 -2.33301 -71 -3 -117v-441c0 -22.667 19.333 -43.334 58 -62.001c32.667 -16 49 -39.333 49 -70
c0 -60 -71 -106.333 -213 -139c-83.333 -19.333 -164 -29 -242 -29c-32 0 -53.833 3.66699 -65.5 11s-18.5 21.666 -20.5 42.999c-3.33301 41.333 -16 62 -38 62c-8 0 -15.333 -1.83301 -22 -5.5s-27 -17.167 -61 -40.5c-67.333 -46 -139.666 -69 -216.999 -69
c-128 0 -218.333 37 -271 111c-44.667 62 -67 166.333 -67 313c0 54.667 0.333008 101.334 1 140.001v46c0 57.333 -5.16699 99.5 -15.5 126.5s-29.166 48.167 -56.499 63.5c-26 13.333 -42.5 24 -49.5 32s-10.5 19 -10.5 33c0 50.667 38.333 84.334 115 101.001
c130.667 28.667 261.334 43 392.001 43c39.333 0 59 -16.667 59 -50zM809.999 1430c60.667 0 114.666 -9 161.999 -27c23.333 -8.66699 42.333 -21 57 -37s21.667 -32 21 -48c-1.33301 -30.667 -29.666 -67 -84.999 -109c-100.667 -78 -212 -117 -334 -117
c-68.667 0 -103 24.667 -103 74c0 18 3.5 31.5 10.5 40.5s27.167 26.167 60.5 51.5c30 22 48.333 36.5 55 43.5s10 15.167 10 24.5c0 6 -4 16 -12 30c-2.66699 4.66699 -4 9.66699 -4 15c0 16.667 15 30.5 45 41.5s69 16.833 117 17.5z" />
    <glyph glyph-name="glyph234" unicode="&#xfd;" horiz-adv-x="1268" 
d="M991 504l-132.001 -362.996c-32.667 -90 -65.5 -163.5 -98.5 -220.5s-70.5 -105.5 -112.5 -145.5c-86.667 -82.667 -191 -124 -313 -124c-98.667 0 -178.667 26 -240 78c-47.333 40 -71 91 -71 153c0 51.333 16.5 94.5 49.5 129.5s73.5 52.5 121.5 52.5
s86.667 -16 116 -48c14 -14.667 23.333 -27.667 28 -39s11.667 -36.333 21 -75c7.33301 -29.333 24 -44 50 -44c20.667 0 38 9 52 27s21 40.333 21 67c0 31.333 -17.333 83.666 -52 156.999l-241 513c-25.333 53.333 -44.333 86.666 -57 99.999s-40.667 29.666 -84 48.999
c-13.333 5.33301 -24.833 15.833 -34.5 31.5s-14.5 30.834 -14.5 45.501c0 59.333 59 99.666 177 120.999c78.667 14 168.334 21 269.001 21c70.667 0 126.334 -7.33301 167.001 -22c54.667 -19.333 82 -52.333 82 -99c0 -16.667 -7.66699 -36.334 -23 -59.001
c-14.667 -21.333 -22 -40.333 -22 -57c0 -16 3.5 -32.667 10.5 -50s21.833 -46.666 44.5 -87.999c25.333 -46.667 47.666 -70 66.999 -70c20.667 0 42 20.5 64 61.5s33 80.5 33 118.5c0 30.667 -8.33301 55.667 -25 75c-25.333 30 -38 55.667 -38 77
c0 34 22.667 61.167 68 81.5s106 30.5 182 30.5c141.333 0 212 -34 212 -102c0 -24.667 -7.16699 -44.5 -21.5 -59.5s-40.5 -29.167 -78.5 -42.5c-32 -12 -57.333 -32 -76 -60c-29.333 -44.667 -63 -118.334 -101 -221.001zM809.999 1430c60.667 0 114.666 -9 161.999 -27
c23.333 -8.66699 42.333 -21 57 -37s21.667 -32 21 -48c-1.33301 -30.667 -29.666 -67 -84.999 -109c-100.667 -78 -212 -117 -334 -117c-68.667 0 -103 24.667 -103 74c0 18 3.5 31.5 10.5 40.5s27.167 26.167 60.5 51.5c30 22 48.333 36.5 55 43.5s10 15.167 10 24.5
c0 6 -4 16 -12 30c-2.66699 4.66699 -4 9.66699 -4 15c0 16.667 15 30.5 45 41.5s69 16.833 117 17.5z" />
    <glyph glyph-name="Abreve" unicode="&#x102;" horiz-adv-x="1693" 
d="M1332 691l189.003 -404.998c18 -37.333 33 -61.833 45 -73.5s30.333 -19.5 55 -23.5c48 -7.33301 72 -31.666 72 -72.999c0 -48.667 -29.333 -83.667 -88 -105s-154.667 -32 -288 -32c-150.667 0 -262.334 6.33301 -335.001 19c-33.333 6 -59.833 18.167 -79.5 36.5
s-29.5 40.5 -29.5 66.5c0 20 5.16699 35.5 15.5 46.5s29.5 21.167 57.5 30.5c31.333 10.667 47 28.667 47 54c0 44.667 -27 71 -81 79c-58 8 -139.667 12 -245 12c-88.667 0 -141.667 -5.33301 -159 -16c-10.667 -6.66699 -20 -18.667 -28 -36s-12 -34 -12 -50
c0 -14.667 2.83301 -24.167 8.5 -28.5s24.167 -11.5 55.5 -21.5c40.667 -12 61 -36 61 -72c0 -79.333 -95 -119 -285 -119c-108 0 -187.333 7.33301 -238 22c-46.667 14 -70 44.667 -70 92c0 20.667 5.16699 36.667 15.5 48s28.833 21.666 55.5 30.999
c43.333 15.333 76.166 36.833 98.499 64.5s54.166 86.834 95.499 177.501l141 309c52 113.333 86.833 198.166 104.5 254.499s26.834 111.5 27.501 165.5c0.666992 57.333 4.16699 97.166 10.5 119.499s20.5 44.166 42.5 65.499c46 46.667 104.667 70 176 70
c67.333 0 131.666 -26.333 192.999 -79c85.333 -72 209.333 -281.667 372 -629zM636.003 565.002l196.001 0.000976562c36 0 54 8 54 24c0 22 -25 76 -75 162c-22.667 39.333 -40 65.666 -52 78.999s-24.667 20 -38 20c-24 0 -44 -22.333 -60 -67
c-2.66699 -6 -12.334 -29.667 -29.001 -71c-28 -68 -42 -108.667 -42 -122c0 -16.667 15.333 -25 46 -25zM429.004 1859c11.333 0 21.001 -2.50293 29.001 -7.50293s29.333 -22.167 64 -51.5c29.333 -25.333 65.666 -45.333 108.999 -60s87 -22 131 -22
c81.333 0 157.666 17 228.999 51c22.667 10.667 38.667 19.5 48 26.5s30 25.833 62 56.5c6 5.33301 14.333 8 25 8c14 0 26.333 -4.16699 37 -12.5s16 -17.833 16 -28.5c0 -30.667 -20.333 -77 -61 -139c-36 -55.333 -81 -99.666 -135 -132.999
c-65.333 -40 -136.333 -60 -213 -60c-135.333 0 -248.666 68.667 -339.999 206c-34 50.667 -51.667 90.334 -53 119.001c-0.666992 13.333 4 24.333 14 33s22.667 13.334 38 14.001z" />
    <glyph glyph-name="abreve" unicode="&#x103;" horiz-adv-x="1161" 
d="M609 997c116 0 214.336 -29.334 295.003 -88.001c42.667 -31.333 72.5 -67.166 89.5 -107.499s25.5 -95.833 25.5 -166.5l-2 -149c0 -103.333 7.33301 -170.333 22 -201c7.33301 -14.667 14.333 -24 21 -28s20.667 -7.66699 42 -11s32 -17.333 32 -42
c0 -32 -12.833 -65.333 -38.5 -100s-58.834 -63.667 -99.501 -87c-50 -29.333 -102.333 -44 -157 -44c-70 0 -125.333 24 -166 72c-14 17.333 -27 26 -39 26c-13.333 0 -31 -8.33301 -53 -25c-66.667 -48.667 -142.334 -73 -227.001 -73c-87.333 0 -158 18.667 -212 56
c-35.333 24.667 -63.333 56.834 -84 96.501s-31 81.167 -31 124.5c0 69.333 28 130.666 84 183.999c87.333 84 218 126.333 392 127c38.667 0 63 3.83301 73 11.5s15 25.5 15 53.5c0 70.667 -7.33301 121.834 -22 153.501s-38.667 47.5 -72 47.5c-20 0 -37.833 -6 -53.5 -18
s-35.167 -34 -58.5 -66c-59.333 -84.667 -121.333 -127 -186 -127c-32.667 0 -59.334 9.66699 -80.001 29s-31 44.666 -31 75.999c0 32 12.833 64 38.5 96s60.5 60 104.5 84c120.667 64 246.667 96 378 96zM542.003 417.999c-29.333 0 -54.832 -12.002 -76.499 -36.002
s-32.5 -52.667 -32.5 -86c0 -32 7.66699 -57.833 23 -77.5s35.666 -29.5 60.999 -29.5c53.333 0 80 45 80 135c0 36.667 -3.83301 61.334 -11.5 74.001s-22.167 19.334 -43.5 20.001zM238.004 1424c10.667 0 19.8359 -2.33301 27.5029 -7s28.167 -20.334 61.5 -47.001
c28 -23.333 62.5 -41.833 103.5 -55.5s82.5 -20.5 124.5 -20.5c78 0 150.667 15.667 218 47c22 10 37.333 18.167 46 24.5s28.334 23.833 59.001 52.5c6 4.66699 14 7 24 7c13.333 0 25.166 -3.83301 35.499 -11.5s15.5 -16.5 15.5 -26.5c0 -28 -19.667 -70.667 -59 -128
c-34 -51.333 -76.667 -92.333 -128 -123c-62.667 -36.667 -130.334 -55 -203.001 -55c-128.667 0 -236.667 63.333 -324 190c-32.667 46.667 -49.334 83.334 -50.001 110.001c-0.666992 12 3.66602 22 12.999 30s21.333 12.333 36 13z" />
    <glyph glyph-name="Ccaron" unicode="&#x10c;" horiz-adv-x="1274" 
 />
    <glyph glyph-name="ccaron" unicode="&#x10d;" horiz-adv-x="922" 
 />
    <glyph glyph-name="Dslash" unicode="&#x110;" horiz-adv-x="1643" 
d="M97 766l67.998 0.00292969c14.667 0 24.334 1.66699 29.001 5s6.66699 10.666 6 21.999l-1 21c-0.666992 12 0 37 2 75c1.33301 32.667 2 80.334 2 143.001c0 55.333 -4.33301 92.333 -13 111s-29 33.667 -61 45c-46 17.333 -69 47 -69 89
c0 32.667 15.833 58.167 47.5 76.5s75.834 27.5 132.501 27.5c18.667 0 40.667 -0.333008 66 -1c56 -2 96.667 -3 122 -3c95.333 0 203 3 323 9c25.333 1.33301 55 2 89 2c156.667 0 279.334 -17.333 368.001 -52c132 -52 231.333 -139.333 298 -262
c59.333 -108 89 -233 89 -375c0 -170 -40.667 -314.667 -122 -434c-77.333 -112 -184 -190.667 -320 -236c-80 -26.667 -165.333 -40 -256 -40l-121 4l-104 3c-80.667 2.66699 -151.667 4 -213 4h-72c-42 0 -89.333 -2 -142 -6c-32.667 -2.66699 -55 -4 -67 -4
c-45.333 0 -82 10.333 -110 31s-42 47.667 -42 81c0 23.333 6.16699 41.666 18.5 54.999s32.833 23.666 61.5 30.999c26.667 6.66699 44.667 17.5 54 32.5s16.333 44.167 21 87.5c2 16 5 61.167 9 135.5s6 120.166 6 137.499c0 13.333 -2.33301 22.166 -7 26.499
s-14.334 6.5 -29.001 6.5h-65c-26 0 -43.833 5.33301 -53.5 16s-14.5 29.334 -14.5 56.001c0 29.333 5.33301 50 16 62s28.667 18 54 18zM668.998 1084l-0.000976562 -276c0 -17.333 2.33301 -28.666 7 -33.999s15.334 -8 32.001 -8h126
c24.667 0 42.167 -5.83301 52.5 -17.5s15.5 -30.834 15.5 -57.501c0 -48.667 -21.667 -73.667 -65 -75l-120 -3l-21 3c-18 0 -27 -19.667 -27 -59v-247c0 -41.333 9 -71 27 -89s48 -27 90 -27c194.667 0 292 148 292 444c0 164 -22.667 290.667 -68 380
c-50 99.333 -134.667 149 -254 149c-32 0 -54.5 -6.33301 -67.5 -19s-19.5 -34 -19.5 -64z" />
    <glyph glyph-name="dcroat" unicode="&#x111;" horiz-adv-x="1332" 
d="M664 782c-43.333 0 -77.667 -23 -103 -69c-34 -61.333 -51 -142 -51 -242c0 -90.667 16.333 -159 49 -205c23.333 -33.333 55 -50 95 -50c43.333 0 74.833 25.167 94.5 75.5s29.5 131.5 29.5 243.5c0 102.667 -11.667 171 -35 205c-18 26.667 -44.333 40.667 -79 42z
M757.999 1183c-12 12.667 -32.6641 23.6699 -61.9971 33.0029c-42 13.333 -63 36.666 -63 69.999c0 48.667 48.333 86.667 145 114c170.667 47.333 285 71 343 71c57.333 0 86 -27.333 86 -82v-206h55c38 0 62.833 -5.33301 74.5 -16s17.5 -29.334 17.5 -56.001
c0 -28 -6.33301 -47.667 -19 -59s-39.334 -17 -80.001 -17l-27 3h-21v-666c0 -52 2.16699 -85.333 6.5 -100s16.5 -29 36.5 -43c24 -16.667 40.167 -31.334 48.5 -44.001s12.5 -28 12.5 -46c0 -53.333 -53.667 -94 -161 -122c-96.667 -24.667 -193.334 -37 -290.001 -37
c-21.333 0 -35.166 3.16699 -41.499 9.5s-10.5 21.5 -12.5 45.5c-3.33301 34 -15.333 51 -36 51c-11.333 0 -29 -10 -53 -30c-68 -55.333 -143.667 -83 -227 -83c-103.333 0 -196.333 38.333 -279 115c-48.667 46 -88 99 -118 159c-40 78 -60 157 -60 237
c0 94 26 184.667 78 272c48 80.667 113.333 142.667 196 186c69.333 36 137.666 54 204.999 54c77.333 0 146.666 -17.333 207.999 -52c10 -5.33301 18 -8 24 -8c21.333 0 32 28.667 32 86v14l-246 -1c-40 0 -65.667 6 -77 18c-8.66699 9.33301 -13 28.666 -13 57.999
c0 26.667 3.66699 44.334 11 53.001c11.333 12.667 35.333 19 72 19h235z" />
    <glyph glyph-name="Itilde" unicode="&#x128;" horiz-adv-x="847" 
d="M468 1386c76 0 147.666 -6.66602 214.999 -19.999c90.667 -18 136 -56.333 136 -115c0 -19.333 -4.5 -33.833 -13.5 -43.5s-31.833 -23.834 -68.5 -42.501c-30.667 -15.333 -50.834 -49 -60.501 -101s-14.5 -153.333 -14.5 -304c0 -254.667 6.33301 -412.334 19 -473.001
c4.66699 -19.333 11.834 -34.166 21.501 -44.499s26.5 -21.5 50.5 -33.5c44 -20 66 -49 66 -87c0 -53.333 -40.667 -90 -122 -110c-88 -21.333 -195.667 -32 -323 -32c-217.333 0 -326 41.333 -326 124c0 30 21.333 58 64 84c32.667 20 52 47.333 58 82
c12.667 76 19 237.333 19 484c0 170.667 -8.66699 280 -26 328c-9.33301 27.333 -31.666 52 -66.999 74c-27.333 18 -45.666 33 -54.999 45s-14 27.333 -14 46c0 28.667 13.833 51.5 41.5 68.5s76.5 32.167 146.5 45.5c83.333 16.667 167.666 25 252.999 25z" />
    <glyph glyph-name="itilde" unicode="&#x129;" horiz-adv-x="730" 
d="M594 927l-0.000976562 -581.002c0 -46 4.16699 -79.667 12.5 -101s25.166 -41 50.499 -59c20.667 -14.667 34.5 -27.167 41.5 -37.5s10.5 -23.5 10.5 -39.5c0 -86 -109 -129 -327 -129c-117.333 0 -210.333 9.33301 -279 28
c-23.333 6.66699 -42.166 18.334 -56.499 35.001s-21.5 35.667 -21.5 57c0 18 3.66699 32 11 42s26 26 56 48c20.667 15.333 35.334 40.333 44.001 75s13 86.334 13 155.001c0 22 -1.5 63.167 -4.5 123.5s-5.16699 95.5 -6.5 105.5c-4 27.333 -22.667 48.333 -56 63
c-41.333 18 -62 44.667 -62 80c0 42 27 73.333 81 94c74.667 28.667 154.667 53 240 73s151.333 30 198 30c36.667 0 55 -20.667 55 -62zM140.999 1206l-0.00390625 -27c0 -24 -9 -43.167 -27 -57.5s-41.667 -21.5 -71 -21.5c-33.333 0 -60.666 11 -81.999 33
s-32 50.333 -32 85c0 39.333 8.66699 76 26 110c15.333 28 37.833 50.333 67.5 67s62.834 25 99.501 25c35.333 0 67.333 -4.83301 96 -14.5s82.334 -34.167 161.001 -73.5c36.667 -18.667 65.334 -28 86.001 -28c16.667 0 27 13 31 39c3.33301 24 6 38.667 8 44
s7.33301 11.333 16 18c18.667 14.667 42.667 22 72 22c86.667 0 130 -44 130 -132c0 -57.333 -16.833 -103.5 -50.5 -138.5s-78.167 -52.5 -133.5 -52.5c-28.667 0 -54.834 3.16699 -78.501 9.5s-57.167 19.5 -100.5 39.5c-29.333 13.333 -61 27 -95 41
c-42.667 18 -64.667 27.667 -66 29c-13.333 6 -24.666 9 -33.999 9c-15.333 0 -23 -8.66699 -23 -26z" />
    <glyph glyph-name="Utilde" unicode="&#x168;" horiz-adv-x="1679" 
d="M1506 865l0.00195312 -244.002c0 -147.333 -11 -251.666 -33 -312.999c-47.333 -129.333 -151.333 -223 -312 -281c-97.333 -36 -207.333 -54 -330 -54c-214 0 -385.333 51 -514 153c-62.667 50 -106 108 -130 174s-36 161.333 -36 286c0 48.667 1.66699 128.667 5 240
c2 78.667 3 130.667 3 156c0 55.333 -4.16699 93.666 -12.5 114.999s-26.5 41.333 -54.5 60c-44 28.667 -66 60.667 -66 96c0 26 11.167 49 33.5 69s51.833 33.667 88.5 41c73.333 14.667 160 22 260 22c110 0 201.333 -8.33301 274 -25c71.333 -16 107 -52.333 107 -109
c0 -28 -10.333 -50.333 -31 -67c-4.66699 -4 -24.667 -14.333 -60 -31c-21.333 -9.33301 -35.833 -26.333 -43.5 -51s-11.5 -65.334 -11.5 -122.001c0 -58 -2.66699 -183.333 -8 -376c-3.33301 -114.667 27.667 -202 93 -262c53.333 -49.333 122 -74 206 -74
c53.333 0 101.666 9.83301 144.999 29.5s76.333 46.5 99 80.5c18 26 30.333 55 37 87s10 75.667 10 131v220c-3.33301 168.667 -8.16602 267.5 -14.499 296.5s-27.833 51.833 -64.5 68.5c-34.667 15.333 -58.334 29.333 -71.001 42s-19 28.334 -19 47.001
c0 40 23.833 69.167 71.5 87.5s124.167 27.5 229.5 27.5c103.333 0 178.166 -9 224.499 -27s69.5 -46.667 69.5 -86c0 -19.333 -4 -33.666 -12 -42.999s-29 -23.666 -63 -42.999c-35.333 -20 -55.5 -41.5 -60.5 -64.5s-8.16699 -108.5 -9.5 -256.5zM701.002 1822
c24.667 1.33301 48.835 -1.33301 72.502 -8s63.167 -22 118.5 -46c56.667 -24.667 91 -39 103 -43c26 -9.33301 40 -14.333 42 -15c13.333 -6 23.666 -9 30.999 -9c16.667 0 26 8.66699 28 26v33c0 17.333 9.5 32.5 28.5 45.5s41.5 19.5 67.5 19.5
c40 0 71.667 -12.667 95 -38s35 -59.333 35 -102c0 -54 -18.167 -101.167 -54.5 -141.5s-78.833 -60.5 -127.5 -60.5c-28.667 0 -70 9 -124 27s-105.333 40 -154 66c-44 23.333 -75.667 35 -95 35c-8.66699 0 -16.667 -2.16699 -24 -6.5s-11 -8.83301 -11 -13.5l2 -51
c0 -12 -9.66699 -23.167 -29 -33.5s-40.666 -15.5 -63.999 -15.5c-24.667 0 -50.334 11.333 -77.001 34s-40 62.334 -40 119.001c0 53.333 15.667 95.666 47 126.999s74.666 48.333 129.999 51z" />
    <glyph glyph-name="utilde" unicode="&#x169;" horiz-adv-x="1388" 
d="M586 939l-0.000976562 -542.001c0 -116 38.333 -174 115 -174c19.333 0 38.333 5.5 57 16.5s31.667 24.5 39 40.5c14.667 32 22 103.333 22 214c0 109.333 -3.66699 184 -11 224c-2.66699 16.667 -7.33398 28.834 -14.001 36.501s-19.334 16.5 -38.001 26.5
c-38 20 -57 45.333 -57 76c0 41.333 32.667 70 98 86c124 30.667 246.333 46 367 46c67.333 0 101 -35.667 101 -107c0 -7.33301 -0.333008 -22.333 -1 -45c-1.33301 -32 -2.33301 -71 -3 -117v-441c0 -22.667 19.333 -43.334 58 -62.001c32.667 -16 49 -39.333 49 -70
c0 -60 -71 -106.333 -213 -139c-83.333 -19.333 -164 -29 -242 -29c-32 0 -53.833 3.66699 -65.5 11s-18.5 21.666 -20.5 42.999c-3.33301 41.333 -16 62 -38 62c-8 0 -15.333 -1.83301 -22 -5.5s-27 -17.167 -61 -40.5c-67.333 -46 -139.666 -69 -216.999 -69
c-128 0 -218.333 37 -271 111c-44.667 62 -67 166.333 -67 313c0 54.667 0.333008 101.334 1 140.001v46c0 57.333 -5.16699 99.5 -15.5 126.5s-29.166 48.167 -56.499 63.5c-26 13.333 -42.5 24 -49.5 32s-10.5 19 -10.5 33c0 50.667 38.333 84.334 115 101.001
c130.667 28.667 261.334 43 392.001 43c39.333 0 59 -16.667 59 -50zM516.999 1206l-0.00390625 -27c0 -24 -9 -43.167 -27 -57.5s-41.667 -21.5 -71 -21.5c-33.333 0 -60.666 11 -81.999 33s-32 50.333 -32 85c0 39.333 8.66699 76 26 110c15.333 28 37.833 50.333 67.5 67
s62.834 25 99.501 25c35.333 0 67.333 -4.83301 96 -14.5s82.334 -34.167 161.001 -73.5c36.667 -18.667 65.334 -28 86.001 -28c16.667 0 27 13 31 39c3.33301 24 6 38.667 8 44s7.33301 11.333 16 18c18.667 14.667 42.667 22 72 22c86.667 0 130 -44 130 -132
c0 -57.333 -16.833 -103.5 -50.5 -138.5s-78.167 -52.5 -133.5 -52.5c-28.667 0 -54.834 3.16699 -78.501 9.5s-57.167 19.5 -100.5 39.5c-29.333 13.333 -61 27 -95 41c-42.667 18 -64.667 27.667 -66 29c-13.333 6 -24.666 9 -33.999 9c-15.333 0 -23 -8.66699 -23 -26z
" />
    <glyph glyph-name="Ohorn" unicode="&#x1a0;" 
d="M808 1393c171.333 0 320.998 -49 448.998 -147c86.667 -67.333 157 -154.666 211 -261.999c52.667 -106.667 79 -213.334 79 -320.001c0 -157.333 -52 -298 -156 -422c-88 -105.333 -203 -181 -345 -227c-87.333 -28 -175 -42 -263 -42
c-115.333 0 -225.666 24 -330.999 72c-127.333 58 -227 145.667 -299 263c-70 113.333 -105 238.333 -105 375c0 158.667 45 298.667 135 420c80 108 187.667 187.333 323 238c90.667 34.667 191.334 52 302.001 52zM712.998 1106c-56 0 -100.334 -25 -133.001 -75
c-25.333 -37.333 -38 -81.666 -38 -132.999c0 -75.333 15.333 -162.5 46 -261.5s69.334 -186.833 116.001 -263.5c20.667 -32.667 46.167 -58.667 76.5 -78s61.166 -29 92.499 -29c50.667 0 91.5 19 122.5 57s46.5 88 46.5 150c0 80.667 -13 167.667 -39 261
s-59.667 173 -101 239c-25.333 40.667 -54.666 72.667 -87.999 96s-67 35.666 -101 36.999zM1457 1655c20 -7.33301 37.9951 -19.8379 53.9951 -37.5049s27.333 -37.167 34 -58.5c15.333 -51.333 11.333 -106.666 -12 -165.999c-12.667 -32.667 -33.167 -67 -61.5 -103
s-58.833 -66.667 -91.5 -92c-53.333 -41.333 -97.666 -55 -132.999 -41c-16 6 -28.333 16.167 -37 30.5s-10.667 27.5 -6 39.5c2.66699 6.66699 25 16.334 67 29.001c14.667 10.667 30.834 21.834 48.501 33.501s25.334 27.167 23.001 46.5s-13.5 34.333 -33.5 45
c-23.333 21.333 -38.666 39.333 -45.999 54c-23.333 42.667 -25.666 87.334 -6.99902 134.001c14.667 36.667 39 63.334 73 80.001c43.333 20.667 86 22.667 128 6z" />
    <glyph glyph-name="ohorn" unicode="&#x1a1;" horiz-adv-x="1233" 
d="M657 997c122 0 229 -31.667 321 -95c66 -45.333 119 -104.333 159 -177c41.333 -76 62 -155.333 62 -238c0 -144.667 -66.333 -267.667 -199 -369c-126.667 -96.667 -271.667 -145 -435 -145c-159.333 0 -288.333 45.333 -387 136c-96 88 -144 202.667 -144 344
c0 157.333 58.667 286 176 386c122.667 105.333 271.667 158 447 158zM577 766c-29.333 0 -52.834 -10.832 -70.501 -32.499s-26.5 -50.5 -26.5 -86.5c0 -40 7.5 -94.5 22.5 -163.5s32.833 -130.167 53.5 -183.5c20.667 -54.667 54.334 -82 101.001 -82
c59.333 0 89 37.667 89 113c0 56 -7.5 119.667 -22.5 191s-33.167 129.333 -54.5 174c-22 45.333 -52.667 68.666 -92 69.999zM1183 1248c20 -7.33301 37.9951 -19.8379 53.9951 -37.5049s27.333 -37.167 34 -58.5c15.333 -51.333 11.333 -106.666 -12 -165.999
c-12.667 -32.667 -33.167 -67 -61.5 -103s-58.833 -66.667 -91.5 -92c-53.333 -41.333 -97.666 -55 -132.999 -41c-16 6 -28.333 16.167 -37 30.5s-10.667 27.5 -6 39.5c2.66699 6.66699 25 16.334 67 29.001c14.667 10.667 30.834 21.834 48.501 33.501
s25.334 27.167 23.001 46.5s-13.5 34.333 -33.5 45c-23.333 21.333 -38.666 39.333 -45.999 54c-23.333 42.667 -25.666 87.334 -6.99902 134.001c14.667 36.667 39 63.334 73 80.001c43.333 20.667 86 22.667 128 6z" />
    <glyph glyph-name="Uhorn" unicode="&#x1af;" horiz-adv-x="1679" 
d="M1674 1655c20 -7.33301 37.9951 -19.8379 53.9951 -37.5049s27.333 -37.167 34 -58.5c15.333 -51.333 11.333 -106.666 -12 -165.999c-12.667 -32.667 -33.167 -67 -61.5 -103s-58.833 -66.667 -91.5 -92c-53.333 -41.333 -97.666 -55 -132.999 -41
c-16 6 -28.333 16.167 -37 30.5s-10.667 27.5 -6 39.5c2.66699 6.66699 25 16.334 67 29.001c14.667 10.667 30.834 21.834 48.501 33.501s25.334 27.167 23.001 46.5s-13.5 34.333 -33.5 45c-23.333 21.333 -38.666 39.333 -45.999 54
c-23.333 42.667 -25.666 87.334 -6.99902 134.001c14.667 36.667 39 63.334 73 80.001c43.333 20.667 86 22.667 128 6zM1511 1076c-2.66699 -43.333 -4.33203 -113.666 -4.99902 -210.999v-244c0 -147.333 -11 -251.666 -33 -312.999
c-47.333 -129.333 -151.333 -223 -312 -281c-97.333 -36 -207.333 -54 -330 -54c-214 0 -385.333 51 -514 153c-62.667 50 -106 108 -130 174s-36 161.333 -36 286c0 48.667 1.66699 128.667 5 240c2 78.667 3 130.667 3 156c0 55.333 -4.16699 93.666 -12.5 114.999
s-26.5 41.333 -54.5 60c-44 28.667 -66 60.667 -66 96c0 26 11.167 49 33.5 69s51.833 33.667 88.5 41c73.333 14.667 160 22 260 22c110 0 201.333 -8.33301 274 -25c71.333 -16 107 -52.333 107 -109c0 -28 -10.333 -50.333 -31 -67c-4.66699 -4 -24.667 -14.333 -60 -31
c-21.333 -9.33301 -35.833 -26.333 -43.5 -51s-11.5 -65.334 -11.5 -122.001c0 -58 -2.66699 -183.333 -8 -376c-3.33301 -114.667 27.667 -202 93 -262c53.333 -49.333 122 -74 206 -74c53.333 0 101.666 9.83301 144.999 29.5s76.333 46.5 99 80.5c18 26 30.333 55 37 87
s10 75.667 10 131v220c-3.33301 168.667 -8.16602 267.5 -14.499 296.5s-27.833 51.833 -64.5 68.5c-34.667 15.333 -58.334 29.333 -71.001 42s-19 28.334 -19 47.001c0 40 23.833 69.167 71.5 87.5s124.167 27.5 229.5 27.5c64 7.33301 106.5 -5.83398 127.5 -39.501
s29.833 -123.5 26.5 -269.5z" />
    <glyph glyph-name="uhorn" unicode="&#x1b0;" horiz-adv-x="1388" 
d="M1261 745l-0.00292969 -466.004c0 -22.667 19.333 -43.334 58 -62.001c32.667 -16 49 -39.333 49 -70c0 -60 -71 -106.333 -213 -139c-83.333 -19.333 -164 -29 -242 -29c-32 0 -53.833 3.66699 -65.5 11s-18.5 21.666 -20.5 42.999c-3.33301 41.333 -16 62 -38 62
c-8 0 -15.333 -1.83301 -22 -5.5s-27 -17.167 -61 -40.5c-67.333 -46 -139.666 -69 -216.999 -69c-128 0 -218.333 37 -271 111c-44.667 62 -67 166.333 -67 313c0 54.667 0.333008 101.334 1 140.001v46c0 57.333 -5.16699 99.5 -15.5 126.5s-29.166 48.167 -56.499 63.5
c-26 13.333 -42.5 24 -49.5 32s-10.5 19 -10.5 33c0 50.667 38.333 84.334 115 101.001c130.667 28.667 261.334 43 392.001 43c39.333 0 59 -16.667 59 -50v-542c0 -116 38.333 -174 115 -174c19.333 0 38.333 5.5 57 16.5s31.667 24.5 39 40.5
c14.667 32 22 103.333 22 214c0 109.333 -3.66699 184 -11 224c-2.66699 16.667 -7.33398 28.834 -14.001 36.501s-19.334 16.5 -38.001 26.5c-38 20 -57 45.333 -57 76c0 41.333 32.667 70 98 86c124 30.667 246.333 46 367 46c67.333 0 101 -35.667 101 -107v-24
c10.667 8 22.667 16.333 36 25c17.333 11.333 24.833 26.666 22.5 45.999s-13.5 34.333 -33.5 45c-23.333 21.333 -38.666 39.333 -45.999 54c-23.333 42.667 -25.666 87.334 -6.99902 134.001c14.667 36.667 39 63.334 73 80.001c43.333 20.667 86 22.667 128 6
c20 -7.33301 38 -19.833 54 -37.5s27.333 -37.167 34 -58.5c15.333 -51.333 11.333 -106.666 -12 -165.999c-12.667 -32.667 -33.167 -67 -61.5 -103s-58.833 -66.667 -91.5 -92c-38 -29.333 -71.333 -44.666 -100 -45.999z" />
    </font>
</defs>
</svg>
